<?xml version="1.0" standalone="no"?>
<!DOCTYPE svg PUBLIC "-//W3C//DTD SVG 1.1//EN" "http://www.w3.org/Graphics/SVG/1.1/DTD/svg11.dtd" >
<svg xmlns="http://www.w3.org/2000/svg" xmlns:xlink="http://www.w3.org/1999/xlink" version="1.1">
<metadata>
Created by FontForge 20201107 at Mon Apr  1 15:02:32 2024
 By 
1.2, Copyright Copr. Castcraft Software, Inc. 1990-1993.
</metadata>
<defs>
<font id="OPTINonoy-BoldItalic" horiz-adv-x="598" >
  <font-face 
    font-family="OPTINonoy"
    font-weight="400"
    font-style="italic"
    font-stretch="normal"
    units-per-em="2048"
    panose-1="2 0 5 3 6 0 0 2 0 4"
    ascent="1638"
    descent="-410"
    x-height="1077"
    cap-height="1448"
    bbox="-139 -664 2347 2050"
    underline-thickness="116"
    underline-position="-214"
    slope="-11"
    unicode-range="U+0020-FB02"
  />
<missing-glyph 
 />
    <glyph glyph-name=".notdef" 
 />
    <glyph glyph-name=".null" horiz-adv-x="0" 
 />
    <glyph glyph-name="nonmarkingreturn" horiz-adv-x="682" 
 />
    <glyph glyph-name="space" unicode=" " 
 />
    <glyph glyph-name="exclam" unicode="!" horiz-adv-x="454" 
d="M367 1448l-76 -1006h-121l-90 1006h287zM412 158q0 -73 -52.5 -125.5t-126.5 -52.5q-73 0 -125.5 52t-52.5 126t52.5 126t125.5 52q74 0 126.5 -52.5t52.5 -125.5z" />
    <glyph glyph-name="quotedbl" unicode="&#x22;" horiz-adv-x="528" 
d="M473 1204l-49 -395h-43l-51 391q-1 6 -6 35.5t-7.5 51.5t-5 56t1.5 58.5t12 48.5t26.5 36.5t45.5 12.5t46.5 -12t28 -35.5t13.5 -46.5t3.5 -57.5t-3.5 -54.5t-6.5 -52t-5.5 -37zM221 1204l-49 -395h-43l-51 391q-1 6 -6 35t-7.5 51.5t-5 56t1 58.5t11.5 48.5t27 36.5
t46 13t46.5 -12t28 -35.5t13.5 -46.5t3.5 -57.5t-3.5 -54.5t-6.5 -52t-5.5 -37z" />
    <glyph glyph-name="numbersign" unicode="#" horiz-adv-x="1136" 
d="M1112 762l-31 -72h-250q-81 -188 -83 -188h247l-30 -72h-246q1 0 -28.5 -65.5t-58.5 -130.5l-30 -66h-117l115 262h-180l-115 -262h-121l119 262h-246l29 72h246l84 188h-244l29 72h243l119 266h117l-115 -266h180l117 266h119l-117 -266h248zM717 690h-187l-81 -188h184
z" />
    <glyph glyph-name="dollar" unicode="$" horiz-adv-x="1011" 
d="M985 541q0 -82 -33.5 -151.5t-90 -116t-129 -74.5t-152.5 -35v-217h-142v217q-204 8 -348 63q1 48 -2.5 138.5t-7.5 156.5l-4 66h30q32 -138 116.5 -207.5t244.5 -69.5q113 0 185.5 43t72.5 125q0 43 -28.5 74t-75.5 49t-107 36t-123 33.5t-123 43t-107 62.5t-75.5 94.5
t-28.5 136.5q0 139 106 233t275 115v190h142v-186q160 -5 319 -62q-1 -51 2.5 -132.5t7.5 -137.5l4 -55h-26q-41 119 -122 178t-220 59q-117 0 -176.5 -38.5t-59.5 -110.5q0 -46 37.5 -80t97 -55t131.5 -41t144 -46t131.5 -61t97 -95.5t37.5 -141.5z" />
    <glyph glyph-name="percent" unicode="%" horiz-adv-x="1409" 
d="M758 1069q0 -144 -103.5 -246t-246.5 -102t-247 102t-104 246q0 145 103 247.5t248 102.5t247.5 -102.5t102.5 -247.5zM1110 1380l-672 -1439l-88 47l670 1437zM1393 299q0 -146 -104 -249t-249 -103t-248.5 103t-103.5 249q0 145 103 247.5t249 102.5t249.5 -102.5
t103.5 -247.5zM541 1069q-7 53 -18.5 93t-30 74.5t-48 52.5t-67.5 18q-61 0 -88.5 -68t-16.5 -170q13 -107 54.5 -172.5t109.5 -65.5q59 0 88 68.5t17 169.5zM1174 299q-26 236 -164 236q-61 0 -88 -67.5t-15 -168.5q13 -107 54.5 -172.5t109.5 -65.5q59 0 87 68t16 170z
" />
    <glyph glyph-name="ampersand" unicode="&#x26;" horiz-adv-x="1519" 
d="M1548 735q-12 -121 -71.5 -194.5t-165.5 -83.5q-16 -231 -182 -370.5t-461 -139.5q-174 0 -312.5 55t-218.5 159.5t-80 241.5q0 70 27 133t71.5 109t99.5 80t112.5 51t109.5 17q-133 24 -212 100.5t-79 196.5q0 167 152 261.5t414 94.5q194 0 370 -72l17 -303h-54
q-53 108 -126 159.5t-179 51.5q-129 0 -204.5 -58t-75.5 -163q0 -116 87 -170.5t240 -54.5q37 0 52.5 -26t1.5 -51.5t-50 -25.5q-90 0 -167 -14.5t-142.5 -46.5t-103 -90t-37.5 -138q0 -140 82 -231.5t244 -91.5q355 0 370 350q-59 6 -119 6q-69 0 -101.5 -28.5t-59.5 -92.5
h-49q10 150 84.5 210.5t201.5 60.5h246q89 0 134.5 19.5t94.5 88.5h39z" />
    <glyph glyph-name="quotesingle" unicode="'" horiz-adv-x="282" 
d="M221 1204l-49 -395h-43l-51 391q-1 6 -6 35t-7.5 51.5t-5 56t1 58.5t11.5 48.5t27 36.5t46 13t46.5 -12t28 -35.5t13.5 -46.5t3.5 -57.5t-3.5 -54.5t-6.5 -52t-5.5 -37z" />
    <glyph glyph-name="parenleft" unicode="(" horiz-adv-x="581" 
d="M543 1462q-47 -30 -83.5 -73t-56.5 -85t-32.5 -90.5t-16.5 -85.5t-4 -73v-828q0 -136 37 -255.5t141 -219.5l-22 -35q-76 43 -138.5 92.5t-107.5 104.5t-79 110.5t-55.5 120.5t-36 123t-21 129t-9 128t-2.5 130q0 99 14 194t48 195t85.5 183.5t133 156t184.5 115.5z" />
    <glyph glyph-name="parenright" unicode=")" horiz-adv-x="581" 
d="M543 655q0 -84 -3 -148.5t-14 -146t-29.5 -146.5t-52.5 -137.5t-80.5 -132.5t-115.5 -119t-156 -108l-22 35q56 53 93.5 114t54.5 125.5t23.5 118.5t6.5 117v828q0 48 -7 95.5t-25.5 106.5t-59 113.5t-99.5 91.5l19 37q103 -43 185 -115.5t134 -156t86 -183.5t48 -195
t14 -194z" />
    <glyph glyph-name="asterisk" unicode="*" horiz-adv-x="733" 
d="M698 1061l-69 -121l-209 150l24 -254h-135l25 254l-209 -150l-68 123l232 104l-232 107l68 119l209 -150l-25 254h135l-24 -254l209 150l69 -121l-231 -107z" />
    <glyph glyph-name="plus" unicode="+" horiz-adv-x="1232" 
d="M1210 469h-469v-469h-217v469h-467v217h467v469h217v-469h469v-217z" />
    <glyph glyph-name="comma" unicode="," horiz-adv-x="317" 
d="M270 213q0 -172 -69.5 -287t-194.5 -155q47 117 57.5 230t-6.5 212q46 -7 110.5 -7t102.5 7z" />
    <glyph glyph-name="hyphen" unicode="-" horiz-adv-x="858" 
d="M827 659l-34 -294h-545q-71 0 -98.5 -18t-59.5 -85h-33l33 295h547q71 0 98 17.5t58 84.5h34z" />
    <glyph glyph-name="period" unicode="." horiz-adv-x="413" 
d="M371 143q0 -65 -46 -111t-110 -46q-65 0 -111.5 46.5t-46.5 110.5q0 65 46.5 111.5t111.5 46.5q64 0 110 -46.5t46 -111.5z" />
    <glyph glyph-name="slash" unicode="/" horiz-adv-x="1298" 
d="M1278 1632l-1108 -1804h-113l1106 1804h115z" />
    <glyph glyph-name="zero" unicode="0" horiz-adv-x="1198" 
d="M1174 725q0 -168 -44.5 -311t-119.5 -239t-174 -150t-209 -54q-267 0 -418.5 209.5t-151.5 564.5q0 167 44.5 310t119 239t173.5 150.5t208 54.5q267 0 419.5 -210t152.5 -564zM829 760q0 212 -25 338t-68.5 174.5t-112.5 48.5q-217 0 -217 -610q0 -212 25 -337.5
t68 -173.5t111 -48q219 0 219 608z" />
    <glyph glyph-name="one" unicode="1" horiz-adv-x="1198" 
d="M893 0q-155 10 -266 10q-48 0 -121.5 -2.5t-122.5 -5.5l-49 -2v35q84 23 110.5 48.5t26.5 82.5v981q0 55 -6 85.5t-27 50t-50.5 27t-86.5 13.5v45q274 39 479 131h17q-11 -281 -11 -350v-983q0 -57 22.5 -84.5t84.5 -46.5v-35z" />
    <glyph glyph-name="two" unicode="2" horiz-adv-x="1198" 
d="M1100 1040q0 -95 -43 -192t-110.5 -177.5t-161 -158.5t-184 -136.5t-189.5 -111.5q108 6 221 6h465l-31 -270h-936v197q111 68 219 161.5t200.5 201t149 227.5t56.5 225q0 129 -70 212t-178 83q-88 0 -164.5 -64.5t-120.5 -177.5h-45q18 230 15 354q163 80 364 80
q251 0 397 -124.5t146 -334.5z" />
    <glyph glyph-name="three" unicode="3" horiz-adv-x="1198" 
d="M1042 492q0 -152 -101 -272.5t-266.5 -184.5t-361.5 -64q-67 0 -159 9l-56 135q106 -5 208 13t189.5 58t141 111t53.5 164t-93 155.5t-232 71.5l-119 10l16 131q45 1 93 8t106.5 27t103 51t75 85t30.5 124q0 85 -58.5 133t-152.5 48q-76 0 -150 -55.5t-131 -168.5h-53
q39 177 51 355q168 63 352 63q218 0 341.5 -89t123.5 -230q0 -123 -91 -225.5t-232 -137.5q74 -6 138 -27.5t118 -59t85 -99t31 -139.5z" />
    <glyph glyph-name="four" unicode="4" horiz-adv-x="1198" 
d="M1130 324h-176v-324h-303v317h-571v177q69 150 285 447.5t403 506.5h195q-1 -21 -3.5 -91.5t-4 -127.5t-1.5 -80v-647h176v-178zM651 504v561q-94 -106 -213.5 -279.5t-173.5 -281.5h387z" />
    <glyph glyph-name="five" unicode="5" horiz-adv-x="1198" 
d="M1044 616q0 -172 -111 -318.5t-294.5 -233t-394.5 -93.5l-45 142q221 23 370.5 157t149.5 301q0 106 -82 172t-201 66q-43 0 -110 -14.5t-123 -38.5l55 692h754l-25 -258h-577l-27 -272q39 18 112.5 35.5t122.5 17.5q185 0 305.5 -101t120.5 -254z" />
    <glyph glyph-name="six" unicode="6" horiz-adv-x="1198" 
d="M1151 528q0 -157 -76 -285.5t-204 -200t-279 -71.5q-245 0 -390 152t-145 397q0 269 164 502q102 151 264 282.5t316 194.5l35 -63q-142 -131 -230.5 -253.5t-159.5 -283.5q118 84 267 84q80 0 157.5 -31.5t140.5 -88.5t101.5 -144.5t38.5 -190.5zM819 487q0 139 -65 212
t-156 73q-94 0 -163.5 -87.5t-69.5 -246.5q0 -138 65.5 -211t155.5 -73q95 0 164 87t69 246z" />
    <glyph glyph-name="seven" unicode="7" horiz-adv-x="1198" 
d="M1100 1448l-195 -528q-104 -282 -154 -445t-64.5 -259t-14.5 -216h-350q0 181 89 415t240 453l213 306h-438q-52 0 -82.5 -1.5t-59.5 -9.5t-43.5 -19t-29.5 -35t-24 -52.5t-21 -75.5h-64l33 176q31 186 31 252v39h934z" />
    <glyph glyph-name="eight" unicode="8" horiz-adv-x="1198" 
d="M1149 418q0 -197 -147.5 -322t-417.5 -125q-219 0 -357.5 116.5t-138.5 311.5q0 132 79 233t220 148q-111 92 -165 172.5t-54 171.5q0 165 126.5 270t352.5 105q197 0 330 -100.5t133 -261.5q0 -112 -61 -189.5t-177 -132.5q169 -123 223 -200.5t54 -196.5zM819 1153
q0 81 -47 126.5t-127 45.5q-67 0 -113.5 -45t-46.5 -100q0 -64 53 -122t156 -128q72 77 98.5 124t26.5 99zM831 360q0 40 -15.5 77.5t-37.5 65t-60.5 58.5t-68.5 51.5t-77 49.5q-9 5 -13 8q-103 -76 -145.5 -136t-42.5 -135q0 -105 68 -175t171 -70q99 0 160 60t61 146z" />
    <glyph glyph-name="nine" unicode="9" horiz-adv-x="1198" 
d="M1137 932q0 -168 -63 -322.5t-175 -276.5t-264.5 -215t-331.5 -147l-55 99q171 111 314 266t210 311q-119 -88 -272 -88q-80 0 -158.5 31.5t-142 88t-103 143.5t-39.5 188q0 211 153 350t386 139q243 0 392 -154.5t149 -412.5zM825 1020q0 144 -70.5 228.5t-166.5 84.5
t-153.5 -68.5t-57.5 -209.5q0 -143 65.5 -224t153.5 -81q97 0 163 67t66 203z" />
    <glyph glyph-name="colon" unicode=":" horiz-adv-x="413" 
d="M371 754q0 -65 -46 -111.5t-110 -46.5q-65 0 -111.5 47t-46.5 111t46.5 110.5t111.5 46.5q64 0 110 -46t46 -111zM371 143q0 -65 -46 -111t-110 -46q-65 0 -111.5 46.5t-46.5 110.5q0 65 46.5 111.5t111.5 46.5q64 0 110 -46.5t46 -111.5z" />
    <glyph glyph-name="semicolon" unicode=";" horiz-adv-x="413" 
d="M371 754q0 -65 -46 -111.5t-110 -46.5q-65 0 -111.5 47t-46.5 111t46.5 110.5t111.5 46.5q64 0 110 -46t46 -111zM309 213q0 -172 -70 -287t-194 -155q44 118 53.5 230.5t-6.5 211.5q49 -7 112.5 -7t104.5 7z" />
    <glyph glyph-name="less" unicode="&#x3c;" horiz-adv-x="1007" 
d="M981 299l-924 344v225l924 344v-208l-709 -250l709 -248v-207z" />
    <glyph glyph-name="equal" unicode="=" horiz-adv-x="1310" 
d="M1290 893h-1233v194h1233v-194zM1290 436h-1233v197h1233v-197z" />
    <glyph glyph-name="greater" unicode="&#x3e;" horiz-adv-x="1007" 
d="M979 643l-922 -344v207l705 248l-705 250v208l922 -344v-225z" />
    <glyph glyph-name="question" unicode="?" horiz-adv-x="1028" 
d="M999 1065q0 -74 -21 -133t-52.5 -98t-86.5 -72.5t-104 -54t-125 -45.5l-49 -17q-91 -30 -126.5 -75.5t-53.5 -143.5h-51v393q31 3 60.5 7.5t74.5 15.5t81.5 30t70.5 46t53.5 69t19.5 94q0 113 -74.5 174.5t-189.5 61.5q-120 0 -221 -83.5t-117 -172.5h-33q49 280 49 362
q131 54 302 54q124 0 230 -25t188 -74.5t128.5 -129.5t46.5 -183zM516 162q0 -74 -52 -126t-126 -52t-126 52t-52 126t52 126t126 52t126 -52t52 -126z" />
    <glyph glyph-name="at" unicode="@" horiz-adv-x="1984" 
d="M1982 770q0 -186 -66.5 -342t-188 -249t-273.5 -93q-108 0 -171 52.5t-77 152.5q-70 -112 -154 -159.5t-188 -47.5q-150 0 -245.5 104t-94.5 269q2 150 73.5 292t188 231t240.5 89q49 0 84.5 -5.5t76.5 -21.5t73.5 -52.5t56.5 -92.5l39 133h264l-137 -489
q-2 -8 -11.5 -39t-15 -54.5t-12.5 -58.5t-6 -61t7.5 -50.5t26 -37.5t50.5 -13q40 0 85.5 21.5t91.5 67.5t82.5 108t59.5 152t23 192q0 132 -40 238t-107 175.5t-160 116t-194 66.5t-214 20q-130 0 -256.5 -35t-240.5 -108t-201 -176t-138 -249.5t-51 -317.5
q0 -144 40.5 -269.5t112 -218.5t166.5 -159.5t206 -100t229 -33.5q408 0 737 205l55 -88q-187 -120 -399.5 -180t-421.5 -60q-184 0 -339 54t-262.5 145t-183 211.5t-110.5 251.5t-35 266q0 204 82.5 384.5t225.5 311t347 206t437 75.5q129 0 247 -25t226 -81t187 -138.5
t126 -207t47 -277.5zM1247 743q10 74 -23 128.5t-110 54.5q-61 0 -114 -50t-86.5 -121.5t-58.5 -153t-35.5 -142.5t-10.5 -92q0 -59 31 -103.5t92 -44.5q62 0 116 46t87 109.5t59 143.5t37 133t16 92z" />
    <glyph glyph-name="A" unicode="A" horiz-adv-x="1478" 
d="M1518 0q-189 6 -308 6l-274 -6v35q80 12 102 40t0 91l-102 280h-455l-98 -258q-27 -72 -6 -105.5t100 -47.5v-35q-147 4 -239 4l-236 -4v35q80 0 109 84l438 1173q21 57 6 85t-74 34v37q142 -10 232 -10q36 0 85 3t80 6l31 3l498 -1335q17 -40 40.5 -56t70.5 -24v-35z
M879 627l-136 409q-24 72 -34 135q-8 -46 -37 -129l-135 -415h342z" />
    <glyph glyph-name="B" unicode="B" horiz-adv-x="1384" 
d="M1366 418q0 -199 -152.5 -308.5t-431.5 -109.5h-725v35q67 9 89 34.5t22 96.5v1116q0 72 -22.5 97.5t-88.5 31.5v37h740q230 0 353.5 -95t123.5 -249q0 -122 -74.5 -207.5t-216.5 -130.5q383 -48 383 -348zM944 1055q0 103 -76 157t-213 54h-153v-435h153q132 0 210.5 61
t78.5 163zM1030 426q0 109 -72.5 169t-207.5 60h-248v-473h250q73 0 134 24.5t102.5 81.5t41.5 138z" />
    <glyph glyph-name="C" unicode="C" horiz-adv-x="1323" 
d="M1321 317l-33 -235q-202 -135 -457 -135q-214 0 -391 97t-280 270.5t-103 387.5q0 228 106 410.5t291 284.5t412 102q213 0 414 -90q-6 -127 -6 -207l6 -219h-45q-23 138 -121 221.5t-260 83.5q-86 0 -160.5 -27.5t-127.5 -75t-91.5 -111t-57 -135t-18.5 -146.5
q0 -145 43.5 -263.5t116.5 -193.5t166 -115.5t195 -40.5q186 0 401 137z" />
    <glyph glyph-name="D" unicode="D" horiz-adv-x="1529" 
d="M1513 741q0 -161 -59 -297t-168.5 -234.5t-274.5 -154t-368 -55.5h-586v35q67 9 89 34.5t22 96.5v1116q0 72 -22.5 97.5t-88.5 31.5v37h652q376 0 590 -185.5t214 -521.5zM1178 680q0 183 -75.5 312.5t-205.5 192t-303 62.5h-92v-1054h135q245 0 393 128.5t148 358.5z
" />
    <glyph glyph-name="E" unicode="E" horiz-adv-x="1310" 
d="M1290 422l-39 -422h-1194v35q67 9 89 34.5t22 96.5v1116q0 72 -22.5 97.5t-88.5 31.5v37h1160l18 -365h-51q-24 110 -66.5 141t-159.5 31h-456v-405h270q85 0 124 25.5t58 93.5h41q-6 -127 -6 -207l6 -213h-41q-19 66 -58 90.5t-124 24.5h-270v-474h442q82 0 127 7
t80.5 33t53.5 69.5t36 122.5h49z" />
    <glyph glyph-name="F" unicode="F" horiz-adv-x="1206" 
d="M1204 1083h-49q-14 58 -28.5 90.5t-41.5 51.5t-61.5 24.5t-95.5 5.5h-426v-440h246q81 0 121.5 30t58.5 99h43q-8 -135 -8 -223l8 -234h-43q-18 70 -60 105t-120 35h-246v-461q0 -64 34.5 -92t120.5 -39v-35q-218 10 -327 10q-47 0 -115.5 -2.5t-112.5 -5.5l-45 -2v35
q67 9 89 34.5t22 96.5v1116q0 72 -22.5 97.5t-88.5 31.5v37h1129z" />
    <glyph glyph-name="G" unicode="G" horiz-adv-x="1583" 
d="M1571 643q-64 -6 -88.5 -33t-24.5 -98v-512h-135l-59 147q-202 -196 -484 -196q-154 0 -287.5 55.5t-229.5 155t-151 245.5t-55 320q0 166 61 307.5t173 244.5t280 161.5t373 58.5q253 0 459 -94q-10 -110 -10 -180l10 -236h-45q-22 82 -65 143t-99.5 96t-117.5 51.5
t-128 16.5q-243 0 -389.5 -140t-146.5 -402q0 -141 38.5 -254.5t102.5 -182t141.5 -105t161.5 -36.5q139 0 210 50t71 136v134q0 66 -40 103t-128 44v35q212 -10 321 -10q49 0 119.5 2.5t116.5 5.5l45 2v-35z" />
    <glyph glyph-name="H" unicode="H" horiz-adv-x="1548" 
d="M1534 0q-170 10 -281 10q-47 0 -116 -2.5t-115 -5.5l-45 -2v35q67 9 88.5 34.5t21.5 96.5v487h-585v-487q0 -71 21.5 -96.5t88.5 -34.5v-35q-169 10 -278 10q-47 0 -116.5 -2.5t-115.5 -5.5l-45 -2v35q67 9 89 34.5t22 96.5v1116q0 72 -22.5 97.5t-88.5 31.5v37
q171 -10 277 -10q48 0 117.5 2.5t114.5 5.5l46 2v-37q-66 -6 -88 -31.5t-22 -97.5v-416h585v416q0 72 -22 97.5t-88 31.5v37q170 -10 276 -10q49 0 119.5 2.5t115.5 5.5l46 2v-37q-67 -6 -90 -32t-23 -97v-1116q0 -71 23 -96.5t90 -34.5v-35z" />
    <glyph glyph-name="I" unicode="I" horiz-adv-x="651" 
d="M612 0q-169 10 -278 10q-47 0 -116.5 -2.5t-115.5 -5.5l-45 -2v35q67 9 89 34.5t22 96.5v1116q0 72 -22.5 97.5t-88.5 31.5v37q171 -10 277 -10q48 0 117.5 2.5t114.5 5.5l46 2v-37q-66 -6 -88 -31.5t-22 -97.5v-1116q0 -71 21.5 -96.5t88.5 -34.5v-35z" />
    <glyph glyph-name="J" unicode="J" horiz-adv-x="681" 
d="M647 1411q-67 -6 -89.5 -32t-22.5 -97v-1026q0 -172 -49.5 -301.5t-170.5 -208.5q-95 -61 -227 -70l-39 76q62 37 92 73.5t44 97t14 167.5v1192q0 67 -31 94t-111 35v37q202 -10 308 -10q50 0 120.5 2.5t116.5 5.5l45 2v-37z" />
    <glyph glyph-name="K" unicode="K" horiz-adv-x="1427" 
d="M1454 0q-135 10 -223 10q-39 0 -96 -2.5t-94 -5.5l-37 -2q-136 215 -230 352q-44 67 -111 161.5t-112 156.5l-45 61l393 510q59 78 49.5 121t-82.5 49v37q147 -10 256 -10q49 0 113.5 2.5t104.5 5.5l40 2v-37q-44 -3 -75.5 -26t-96.5 -105l-379 -469q148 -182 240 -313
q56 -79 111 -161.5t82 -125.5l26 -43q48 -73 81.5 -98t84.5 -35v-35zM612 0q-169 10 -278 10q-47 0 -116.5 -2.5t-115.5 -5.5l-45 -2v35q67 9 89 34.5t22 96.5v1116q0 72 -22.5 97.5t-88.5 31.5v37q171 -10 277 -10q48 0 117.5 2.5t114.5 5.5l46 2v-37q-66 -6 -88 -31.5
t-22 -97.5v-1116q0 -71 21.5 -96.5t88.5 -34.5v-35z" />
    <glyph glyph-name="L" unicode="L" horiz-adv-x="1247" 
d="M1223 436q-29 -137 -43 -246l-13 -190h-1110v35q67 9 89 34.5t22 96.5v1116q0 72 -22.5 97.5t-88.5 31.5v37q180 -10 293 -10q52 0 126 2.5t122 5.5l47 2v-37q-77 -6 -110 -35t-33 -94v-1092h352q144 0 212 51.5t101 194.5h56z" />
    <glyph glyph-name="M" unicode="M" horiz-adv-x="1910" 
d="M1907 0q-174 10 -285 10q-52 0 -126 -2.5t-122 -5.5l-49 -2v35q90 12 118.5 47t22.5 135l-53 885l-393 -1102h-180l-414 1104l-35 -950q-3 -57 26 -83t113 -36v-35q-133 8 -219 8l-254 -8v35q73 11 97 35t28 98l68 1085q4 67 -3 97.5t-27 43t-68 17.5v37q158 -10 256 -10
q36 0 86 3t82 6l32 3l383 -989l363 989q137 -12 225 -12q39 0 95 2.5t92 5.5l36 2v-37q-62 -14 -77.5 -41t-10.5 -98l76 -1092q6 -83 28.5 -108.5t88.5 -36.5v-35z" />
    <glyph glyph-name="N" unicode="N" horiz-adv-x="1540" 
d="M1526 1411q-70 -7 -92.5 -30.5t-22.5 -86.5v-1294q-76 2 -125 2l-123 -2l-790 1149l12 -963q0 -76 30.5 -106.5t119.5 -44.5v-35q-159 10 -259 10q-38 0 -93 -2.5t-91 -5.5l-35 -2v35q69 11 91 33.5t22 85.5v1120q0 27 -2.5 47t-4.5 34t-10.5 23.5t-12.5 14.5t-20 9
t-22.5 5t-29.5 4v37q145 -10 235 -10q41 0 100.5 3t98.5 6l39 3l669 -975l-12 785q-2 79 -32 110t-119 41v37q155 -10 253 -10q40 0 96.5 2.5t93.5 5.5l36 2v-37z" />
    <glyph glyph-name="O" unicode="O" horiz-adv-x="1603" 
d="M1589 725q0 -165 -57 -309.5t-157 -247.5t-243 -162t-309 -59q-221 0 -396.5 102t-272.5 279.5t-97 396.5q0 162 57 304.5t157 246t243.5 163.5t308.5 60q221 0 396.5 -101t272.5 -277.5t97 -395.5zM1233 762q-23 149 -71 256.5t-113 165.5t-135 83t-148 21
q-89 -4 -163.5 -50t-124.5 -123t-70 -187t-2 -236q17 -119 53.5 -213t82.5 -152.5t102.5 -96.5t112 -51.5t113.5 -10.5q89 4 164.5 50t126.5 122.5t71 186.5t1 235z" />
    <glyph glyph-name="P" unicode="P" horiz-adv-x="1347" 
d="M1329 991q0 -105 -40.5 -191.5t-107.5 -141t-152 -84t-177 -29.5q-89 0 -163.5 17t-111 40t-36.5 43q0 10 5 15t18 6t26 0t37.5 -2.5t44.5 -1.5q147 0 235 77.5t88 239.5q0 132 -86 203t-223 71h-184v-1087q0 -71 21.5 -96.5t88.5 -34.5v-35q-170 10 -276 10
q-48 0 -118 -2.5t-116 -5.5l-45 -2v35q67 9 89 34.5t22 96.5v1116q0 72 -22.5 97.5t-88.5 31.5v37q205 -4 338 -4l318 4q298 3 457 -123.5t159 -333.5z" />
    <glyph glyph-name="Q" unicode="Q" horiz-adv-x="1603" 
d="M1626 100l-43 -96q-74 -23 -134 -32.5t-139.5 -0.5t-150.5 47q-165 -71 -336 -71q-221 0 -396.5 102t-272.5 279.5t-97 396.5q0 162 57 304.5t157 246t243.5 163.5t308.5 60q221 0 396.5 -101t272.5 -277.5t97 -395.5q0 -327 -207 -547q23 -18 43.5 -30.5t40 -21
t32.5 -13.5t33 -7.5t29.5 -3t32.5 -1.5t33 -1zM1233 762q-23 149 -71 256.5t-113 165.5t-135 83t-148 21q-89 -4 -163.5 -50t-124.5 -123t-70 -187t-2 -236q17 -119 53.5 -213t82.5 -152.5t102.5 -96.5t112 -51.5t113.5 -10.5q89 4 164.5 50t126.5 122.5t71 186.5t1 235z
" />
    <glyph glyph-name="R" unicode="R" horiz-adv-x="1429" 
d="M1436 0h-451q-119 192 -201 317l-206 299q-38 54 -35.5 74.5t45.5 20.5q57 0 108.5 7t104.5 26t91.5 49.5t62.5 81.5t24 118q0 130 -72.5 196t-193.5 66h-211v-1089q0 -71 21.5 -96.5t88.5 -34.5v-35q-170 10 -276 10q-48 0 -118 -2.5t-116 -5.5l-45 -2v35q67 9 89 34.5
t22 96.5v1116q0 72 -22.5 97.5t-88.5 31.5v37h774q233 0 360.5 -107t127.5 -294q0 -303 -383 -410q106 -146 174 -240l176 -266q33 -50 62.5 -69.5t87.5 -26.5v-35z" />
    <glyph glyph-name="S" unicode="S" horiz-adv-x="1273" 
d="M1251 436q0 -221 -176 -355t-489 -134q-103 0 -241 24t-253 64q9 115 -6 461h43q34 -173 148 -266t301 -93q160 0 246.5 53.5t86.5 149.5q0 153 -258 221l-135 35q-461 123 -461 446q0 129 72.5 231.5t218 164t342.5 61.5q115 0 246 -26t209 -56q-3 -143 20 -416h-41
q-36 152 -148.5 229t-277.5 77q-155 0 -234 -49.5t-79 -137.5q0 -36 14.5 -65t35.5 -49t58.5 -38t69.5 -29.5t82 -25.5l129 -36q89 -26 153.5 -50.5t129 -62t104.5 -81.5t65 -107t25 -140z" />
    <glyph glyph-name="T" unicode="T" horiz-adv-x="1212" 
d="M1253 1020h-39q-14 54 -25.5 90.5t-25 64.5t-28 43t-33.5 26.5t-42 13t-54 4.5t-68 0h-47h-103v-1096q0 -70 31 -94.5t125 -36.5v-35q-212 10 -323 10q-48 0 -128 -2.5t-136 -5.5l-56 -2v35q94 12 124 36.5t30 94.5v1096h-103h-46q-34 -1 -60.5 0t-49 -3t-40 -8.5
t-33 -17.5t-27.5 -29t-24 -43t-22.5 -60.5t-22.5 -80.5h-37q10 67 21.5 214t11.5 214h1198q0 -68 11.5 -215t20.5 -213z" />
    <glyph glyph-name="U" unicode="U" horiz-adv-x="1525" 
d="M1509 1411q-66 -6 -88 -31.5t-22 -97.5v-752q0 -143 -30 -246.5t-99.5 -181.5t-190.5 -116.5t-295 -38.5q-177 0 -298.5 38.5t-190.5 116.5t-98 181t-29 247v752q0 72 -22.5 97.5t-88.5 31.5v37q171 -10 277 -10q48 0 117.5 2.5t114.5 5.5l46 2v-37q-66 -6 -88 -31.5
t-22 -97.5v-836q0 -152 66.5 -229.5t215.5 -77.5t215 77.5t66 229.5v836q0 71 -23 97t-90 32v37q170 -10 279 -10q48 0 117.5 2.5t115.5 5.5l45 2v-37z" />
    <glyph glyph-name="V" unicode="V" horiz-adv-x="1409" 
d="M1446 1411q-51 -4 -72.5 -29.5t-52.5 -107.5l-467 -1274h-262l-463 1274q-27 73 -51 103t-76 34v37q171 -10 277 -10q50 0 127 2.5t128 5.5l52 2v-37q-86 -9 -109 -39.5t-2 -89.5l307 -846l297 817q29 73 7.5 112t-103.5 46v37q114 -10 225 -10q48 0 107.5 2.5t94.5 5.5
l36 2v-37z" />
    <glyph glyph-name="W" unicode="W" horiz-adv-x="1937" 
d="M1987 1411q-51 -4 -78 -34.5t-47 -94.5l-381 -1282h-258l-226 797l-225 -797h-262l-381 1282q-20 64 -48 94.5t-79 34.5v37q171 -10 277 -10q50 0 120.5 2.5t116.5 5.5l45 2v-37q-74 -6 -93.5 -35t1.5 -96l262 -909l189 698l-58 213q-22 74 -51 98.5t-106 30.5v37
q192 -10 309 -10q51 0 125.5 2.5t122.5 5.5l49 2v-37q-164 -12 -127 -160l227 -880l234 909q18 64 -3 94.5t-92 36.5v37q113 -10 215 -10q41 0 96.5 2.5t90.5 5.5l35 2v-37z" />
    <glyph glyph-name="X" unicode="X" horiz-adv-x="1406" 
d="M1444 0q-199 10 -305 10l-344 -10v35q91 10 114 42.5t-12 90.5l-213 377l-246 -377q-43 -64 -26.5 -93.5t108.5 -39.5v-35q-149 10 -260 10q-47 0 -111.5 -2.5t-105.5 -5.5l-41 -2v35q64 9 101 36t83 95l381 555l-331 561q-45 75 -73.5 99t-90.5 30v37q216 -10 325 -10
q48 0 120.5 2.5t120.5 5.5l48 2v-37q-72 -6 -88.5 -38t18.5 -93l154 -283l186 283q41 65 27 95t-86 36v37q129 -10 240 -10q47 0 107 2.5t96 5.5l36 2v-37q-59 -6 -88.5 -30.5t-79.5 -98.5l-315 -463l385 -653q37 -65 71.5 -93.5t94.5 -37.5v-35z" />
    <glyph glyph-name="Y" unicode="Y" horiz-adv-x="1298" 
d="M1331 1411q-52 -4 -79.5 -31.5t-65.5 -105.5l-352 -758v-350q0 -71 22 -96.5t90 -34.5v-35q-171 10 -280 10q-47 0 -116.5 -2.5t-115.5 -5.5l-45 -2v35q67 9 89 34.5t22 96.5v350l-340 758q-35 77 -64.5 104t-93.5 33v37q177 -10 283 -10q50 0 125.5 2.5t125.5 5.5l50 2
v-37q-71 -6 -89 -37t9 -92l227 -516l217 487q34 73 16 112t-98 46v37q117 -10 226 -10q48 0 107.5 2.5t94.5 5.5l35 2v-37z" />
    <glyph glyph-name="Z" unicode="Z" horiz-adv-x="1331" 
d="M1313 403q-3 -35 -8 -88.5t-12.5 -163t-4.5 -151.5h-1233l729 1251h-368q-113 0 -163 -31t-67 -124h-32q32 241 36 352h1098l-725 -1251h441q94 0 147.5 21.5t79.5 62.5t47 122h35z" />
    <glyph glyph-name="bracketleft" unicode="[" horiz-adv-x="604" 
d="M565 -457h-508v1956h508v-72h-276v-1814h276v-70z" />
    <glyph glyph-name="backslash" unicode="\" horiz-adv-x="1118" 
d="M1090 0h-113l-920 1499h113z" />
    <glyph glyph-name="bracketright" unicode="]" horiz-adv-x="604" 
d="M565 -457h-508v70h275v1814h-275v72h508v-1956z" />
    <glyph glyph-name="asciicircum" unicode="^" horiz-adv-x="839" 
d="M809 1245h-141l-238 211l-240 -211h-133l291 402h164z" />
    <glyph glyph-name="underscore" unicode="_" horiz-adv-x="1206" 
d="M1182 -283h-1258v103h1258v-103z" />
    <glyph glyph-name="grave" unicode="`" horiz-adv-x="645" 
d="M606 1245h-149l-187 119q-135 87 -174 123t-39 80q0 40 27 67t68 27q11 0 20.5 -2t18 -4t19.5 -8.5t18.5 -11t20.5 -16.5t21 -19t25 -24.5t27 -28t32.5 -34t36.5 -38.5z" />
    <glyph glyph-name="a" unicode="a" horiz-adv-x="1112" 
d="M418 653q-21 -74 -44.5 -199.5t-23.5 -197.5q0 -69 20 -91t48 -13q37 11 78 72.5t74.5 143.5t55 145.5t33.5 107.5l82 309q-91 10 -120 8q-34 -2 -61.5 -17.5t-46.5 -37.5t-37.5 -62.5t-29.5 -75t-28 -92.5zM674 426q-17 -54 -41 -108.5t-62 -116.5t-81 -109
t-101.5 -78.5t-120.5 -31.5q-105 0 -164 89t-59 232q0 455 430 703q147 88 299 88q72 0 166 -27l119 57l-111 -792q-10 -60 -10 -94q0 -49 15.5 -67.5t52 -5.5t98.5 62l26 -41q-88 -77 -188 -140.5t-174 -63.5q-151 0 -109 329z" />
    <glyph glyph-name="b" unicode="b" horiz-adv-x="1087" 
d="M848 1661l-25 -180q-50 4 -76.5 6t-57.5 0.5t-45.5 -5.5t-32 -17.5t-24.5 -28.5t-16.5 -44.5t-14 -60.5t-11.5 -82l-88 -637l12 31l20 48t23.5 56t26.5 57.5t31.5 61t35 57.5t40.5 55t45 45.5t52 38.5t58 23t65 9q42 0 80.5 -17t72 -52t53.5 -99.5t20 -149.5
q0 -134 -44 -260.5t-116 -221t-160 -166.5t-180.5 -109t-173.5 -37q-60 0 -103 17t-82 62l-143 -73l156 1237q17 136 140.5 249t305.5 168q100 31 156 19zM418 258q0 -78 30.5 -112.5t94.5 -34.5q33 0 70.5 46.5t58.5 108.5q21 59 44.5 133t51 194t27.5 191q0 97 -78 97
q-55 0 -128 -131t-122 -279.5t-49 -212.5z" />
    <glyph glyph-name="c" unicode="c" horiz-adv-x="829" 
d="M864 1079q-28 -69 -40.5 -107t-37.5 -136q-17 7 -48 17t-77.5 21.5t-81 10.5t-59.5 -15q-65 -54 -117.5 -259.5t-52.5 -301.5q0 -168 139 -168q93 0 285 140l31 -31q-107 -124 -226.5 -196t-226.5 -72q-143 0 -225 100.5t-82 267.5q0 122 45 246.5t127 224.5
q104 129 241 201t285 72q63 0 121 -15z" />
    <glyph glyph-name="d" unicode="d" horiz-adv-x="1091" 
d="M563 922q-54 -12 -106 -120.5t-82.5 -251t-30.5 -261.5q0 -44 7 -75t18 -44.5t25 -18.5t28 3q54 21 117.5 164.5t102.5 279t52 211.5l23 113q-102 11 -154 0zM662 467l-19 -64q-16 -52 -37.5 -103.5t-55.5 -110.5t-73 -103.5t-92 -74t-109 -29.5q-105 0 -168 88t-63 245
q0 256 143 462.5t371 275.5q88 25 180 18l54 428l-142 -31l13 60l129 35q212 60 337 112q-31 -136 -69 -403l-131 -940q0 -3 -4 -37.5t-4 -56.5q0 -50 14.5 -68t51 -5t99.5 62l27 -41q-88 -77 -188 -140.5t-174 -63.5q-46 0 -74 27.5t-36.5 78t-7.5 103t9 120.5z" />
    <glyph glyph-name="e" unicode="e" horiz-adv-x="962" 
d="M348 406q0 -77 16 -136.5t55.5 -99t98.5 -39.5q74 0 148.5 53t173.5 162l39 -24q-100 -163 -227.5 -251.5t-264.5 -88.5q-144 0 -243 112t-99 279q0 111 42 221t113.5 198t160.5 157t188 107t190 38q98 0 161 -51t63 -136q0 -132 -100.5 -239.5t-264.5 -178.5
q-135 -59 -250 -83zM692 834q0 58 -54.5 85t-88.5 17q-40 -12 -87 -119.5t-73 -200.5t-31 -127q151 60 242.5 151.5t91.5 193.5z" />
    <glyph glyph-name="f" unicode="f" horiz-adv-x="679" 
d="M741 1630l-24 -182q-3 0 -45.5 2t-73.5 2q-121 0 -155 -27.5t-3 -93.5q47 -94 64.5 -149t17.5 -111h203l-23 -110h-194l-100 -687q-21 -136 -71.5 -369t-64.5 -265l-143 -23q-14 82 -20 250.5t8 331.5l96 762h-139l16 94q2 0 17 0.5t19 1t18 1.5t19.5 2.5t17 3.5t18 6
t15 8.5t15 11t11.5 14.5q16 31 5.5 136.5t2.5 158.5q22 78 85 134.5t141 81.5t163 25q39 0 104 -10z" />
    <glyph glyph-name="g" unicode="g" horiz-adv-x="1077" 
d="M418 653q-2 -7 -11.5 -47t-14.5 -62t-14 -64t-13.5 -71.5t-8.5 -66.5t-4 -66q0 -54 20.5 -79t47.5 -25q31 0 64.5 39.5t60 93t52 122.5t39 113.5t23.5 80.5l82 309q-70 8 -120 8q-35 0 -66.5 -22.5t-52.5 -53.5t-39.5 -74t-27.5 -73t-17 -62zM674 426q-16 -38 -28 -65.5
t-37.5 -77t-48.5 -86t-57.5 -80t-68.5 -71t-77.5 -46t-88.5 -18.5q-105 0 -164 89t-59 232q0 455 430 703q147 88 299 88q33 0 85 -11.5t81 -23.5l119 65l-121 -856q-27 -200 -119 -335.5t-301 -272.5q-98 -66 -226.5 -73.5t-254.5 40.5q25 58 36 92.5t31 114.5q5 -2 16 -5
q50 -16 84 -25t91.5 -20.5t104.5 -7.5t79 23q109 66 158 387z" />
    <glyph glyph-name="h" unicode="h" horiz-adv-x="1122" 
d="M979 332q-8 -48 -8 -94q0 -50 14.5 -68t51 -5t100.5 62l24 -41q-87 -77 -187.5 -140.5t-172.5 -63.5q-47 0 -75.5 27.5t-38 78t-8.5 103.5t9 120l62 475q11 81 -25 60l-4 -2q-42 -25 -118 -150t-118 -250l-149 -440l-248 -35l158 1256q17 136 140.5 249t305.5 168
q100 31 156 19l-25 -180q-50 4 -76.5 6t-57.5 0.5t-45.5 -5.5t-32 -17.5t-24.5 -28.5t-16.5 -44.5t-14 -60.5t-11.5 -82l-96 -692q40 90 89 175.5t112.5 171t138.5 138t147 52.5q65 0 94 -34.5t29 -123.5q0 -10 -19 -150z" />
    <glyph glyph-name="i" unicode="i" horiz-adv-x="585" 
d="M461 1567q53 0 92 -42.5t39 -107.5q0 -96 -55 -166.5t-140 -70.5q-54 0 -93.5 41.5t-39.5 107.5q0 96 55.5 167t141.5 71zM545 1124q-30 -125 -70 -403l-55 -389q-8 -48 -8 -94q0 -50 14.5 -68t51 -5t100.5 62l24 -41q-87 -77 -187.5 -140.5t-172.5 -63.5q-38 0 -63 19.5
t-37 49.5t-16 76t-1.5 87.5t8.5 96.5l74 637l-141 -30l12 59l129 33q179 48 338 114z" />
    <glyph glyph-name="j" unicode="j" horiz-adv-x="585" 
d="M461 1567q53 0 92 -42.5t39 -107.5q0 -96 -55 -166.5t-140 -70.5q-54 0 -93.5 41.5t-39.5 107.5q0 96 55.5 167t141.5 71zM207 948l-141 -30l12 59l129 33q179 48 338 114q-22 -91 -70 -403l-67 -447q-21 -136 -71.5 -369t-64.5 -265l-143 -23q-14 82 -20 250.5t8 331.5z
" />
    <glyph glyph-name="k" unicode="k" horiz-adv-x="1142" 
d="M231 1157q10 90 76 192t169 183t210 110q84 23 156 19l-25 -180q-50 4 -76.5 6t-57.5 0.5t-45.5 -5.5t-32 -17.5t-24.5 -28.5t-16.5 -44.5t-14 -60.5t-11.5 -82l-105 -745q22 58 44 108.5t52.5 110t61 107.5t69.5 94.5t79.5 77.5t89.5 50t100 19q86 0 149.5 -49.5
t63.5 -147.5q0 -113 -77.5 -201.5t-240.5 -172.5q6 -30 18.5 -75.5t34.5 -110.5t54.5 -114t66.5 -59q42 -12 144 72l22 -45q-246 -232 -374 -197q-40 11 -77.5 52.5t-62.5 97t-37 88.5t-20 59l-37 138q152 140 219.5 245t67.5 203q0 36 -16.5 53.5t-53.5 1.5
q-44 -18 -96 -87t-92.5 -150t-68 -146t-36.5 -94l-139 -432l-248 -35z" />
    <glyph glyph-name="l" unicode="l" horiz-adv-x="591" 
d="M618 1675q-34 -137 -69 -403l-131 -940q-8 -48 -8 -94q0 -50 14.5 -68t50.5 -5t100 62l25 -41q-87 -77 -187.5 -140.5t-172.5 -63.5q-47 0 -75 27.5t-36.5 78.5t-7.5 102.5t10 120.5l148 1188l-140 -31l13 60l127 35q211 59 339 112z" />
    <glyph glyph-name="m" unicode="m" horiz-adv-x="1646" 
d="M995 557q232 537 465 537q65 0 93 -34t28 -124q0 -32 -16 -150l-64 -454q-8 -48 -8 -94q0 -50 15 -68t51.5 -5t99.5 62l27 -41q-86 -76 -188.5 -140t-174.5 -64q-37 0 -62.5 19.5t-38 50t-17 75t-2.5 88t9 96.5l62 475q7 65 -14 65q-7 0 -17 -7q-38 -24 -102.5 -143
t-110.5 -257l-149 -440l-246 -35l96 817q7 65 -14 65q-6 0 -17 -7q-38 -24 -102.5 -143t-110.5 -257l-149 -440l-248 -35l117 979l-141 -30l12 59l129 33q179 48 338 114q-29 -121 -70 -403l-22 -164q232 537 465 537q65 0 92.5 -34t27.5 -124q0 -32 -12 -150z" />
    <glyph glyph-name="n" unicode="n" horiz-adv-x="1126" 
d="M207 948l-141 -30l12 59l129 33q179 48 338 114q-29 -121 -70 -403l-22 -164q39 89 87.5 175t112 171.5t138.5 138t147 52.5q65 0 94 -34.5t29 -123.5q0 -16 -3 -38t-8 -57t-8 -55l-61 -454q-8 -48 -8 -94q0 -50 14.5 -68t51 -5t100.5 62l24 -41q-87 -77 -187.5 -140.5
t-172.5 -63.5q-47 0 -75.5 27.5t-38 78t-8.5 103.5t9 120l62 475q11 81 -25 60l-4 -2q-42 -26 -118.5 -150t-117.5 -250l-149 -440l-248 -35z" />
    <glyph glyph-name="o" unicode="o" horiz-adv-x="1003" 
d="M686 1094q143 0 231.5 -100.5t88.5 -276.5q0 -139 -53.5 -273.5t-141 -235.5t-207 -163.5t-244.5 -62.5q-146 0 -230.5 107.5t-84.5 275.5q0 138 52.5 271.5t139 234t205.5 162t244 61.5zM350 332q0 -126 35 -173.5t96 -52.5q41 -2 70 37.5t61 157.5q86 293 86 442
q0 66 -10 111.5t-29.5 69t-40.5 33t-49 12.5q-43 3 -72 -36t-63 -159q-84 -298 -84 -442z" />
    <glyph glyph-name="p" unicode="p" horiz-adv-x="1112" 
d="M420 199q0 -40 23.5 -64t72.5 -24q52 0 109 86.5t96.5 201.5t65.5 223.5t26 159.5q0 54 -19 82.5t-51 28.5t-59 -27q-53 -46 -117 -186.5t-105.5 -280t-41.5 -200.5zM360 -4q-75 -380 -98 -436l-147 -21q-6 54 -11.5 145t-7.5 217.5t10 217.5l103 829l-141 -30l12 59
l129 33q176 48 340 114q-12 -47 -22 -101t-24 -145t-26 -157q-16 -109 -18 -109l28 64l18 39q21 48 33.5 73.5t37 71.5t44 73t49.5 62t58.5 53.5t66.5 32t78 13.5q105 0 174.5 -93t69.5 -249q0 -104 -32.5 -206t-85.5 -185t-122 -155t-142 -120.5t-145.5 -76t-131.5 -27.5
q-40 0 -97 14z" />
    <glyph glyph-name="q" unicode="q" horiz-adv-x="1099" 
d="M418 653q-2 -10 -25.5 -95t-36 -150t-12.5 -119q0 -64 20 -87.5t48 -19.5q36 5 72.5 45t62.5 90.5t51.5 117.5t38 107.5t22.5 78.5l82 309q-70 8 -120 8q-35 0 -66.5 -22.5t-52.5 -53.5t-39.5 -74t-27.5 -73t-17 -62zM926 201q-37 -265 -62 -385.5t-71 -249.5l-146 -21
q-19 67 -23 242t15 342l35 297q-16 -38 -28 -65.5t-37.5 -77t-48.5 -86t-57.5 -80t-68.5 -71t-77.5 -46t-88.5 -18.5q-105 0 -164 89t-59 232q0 455 430 703q147 88 299 88q70 0 141 -23q21 -6 39.5 0t78.5 39q17 9 26 14z" />
    <glyph glyph-name="r" unicode="r" horiz-adv-x="917" 
d="M207 948l-141 -30l12 59l129 33q179 48 338 114q-16 -66 -72 -403l-39 -227q4 13 14 44q19 59 30.5 93.5t36 100.5t45 107.5t52.5 94t63 83t72 52t84 21.5q63 0 119 -15l-65 -287q-50 17 -121 17q-52 0 -101.5 -44.5t-86.5 -109.5t-70.5 -154.5t-54.5 -164t-39 -152.5
l-39 -178l-279 -27z" />
    <glyph glyph-name="s" unicode="s" horiz-adv-x="897" 
d="M866 1053q-41 -112 -63 -226q-204 68 -359 68q-64 0 -96.5 -20t-32.5 -50q0 -47 174 -127l74 -34q129 -59 195.5 -115.5t66.5 -130.5q0 -67 -30 -141t-85 -141t-146.5 -110.5t-201.5 -43.5q-169 0 -303 77q36 127 52 209q246 -98 383 -98q70 0 107.5 21.5t37.5 62.5
q0 29 -32 55t-120 66l-79 35q-162 72 -216.5 127t-54.5 139q0 73 40.5 148.5t107 135t159.5 97t191 37.5q52 0 118.5 -12t112.5 -29z" />
    <glyph glyph-name="t" unicode="t" horiz-adv-x="733" 
d="M578 1468l-56 -397h226l-17 -113h-225l-78 -569q0 -1 -2 -16t-4 -30.5t-3 -38.5t-0.5 -43.5t5 -42t12.5 -36.5t22 -25t34 -10q34 0 98.5 53t120.5 111l34 -35q-82 -91 -128 -138.5t-96 -87.5t-91 -54t-90 -14q-37 0 -80.5 21.5t-75.5 59.5q-23 27 -36 57.5t-19 53
t-4 66.5t4 64.5t10 80.5l74 573h-150l17 113h149l35 283q189 62 314 114z" />
    <glyph glyph-name="u" unicode="u" horiz-adv-x="1130" 
d="M733 537l-53 -131q-166 -424 -348 -424q-86 0 -133.5 55.5t-56 152.5t4.5 228l60 530l-141 -30l12 59l129 33q179 48 338 114q-30 -125 -70 -403l-43 -291q0 -1 -2 -17t-3.5 -31t-3.5 -38t-2.5 -42.5t0 -38.5t3.5 -32t8 -18q11 -20 45 -12q48 20 117.5 175.5t89.5 225.5
l100 330q1 5 12 47t13 59l272 47l-96 -753q-8 -48 -8 -94q0 -50 14.5 -68t51 -5t100.5 62l24 -41q-87 -77 -187.5 -140.5t-172.5 -63.5q-47 0 -76.5 28t-39.5 77t-9 104.5t12 119.5z" />
    <glyph glyph-name="v" unicode="v" horiz-adv-x="1015" 
d="M520 1116q0 -158 25 -424.5t57 -478.5q70 104 139.5 252.5t69.5 247.5q0 50 -21 78t-98 83q71 80 96 113t86 131q73 -29 124 -80.5t51 -111.5q0 -97 -96.5 -296t-258.5 -423l-145 -207l-178 -20q-50 211 -94 500.5t-52 451.5l-106 -21l16 60q154 31 326 114z" />
    <glyph glyph-name="w" unicode="w" horiz-adv-x="1425" 
d="M770 1014l211 65q-21 -432 20 -866q94 115 164 253t70 247q0 50 -21 78t-96 83q70 81 94.5 114t85.5 130q70 -27 123.5 -89t53.5 -124q0 -76 -22.5 -140t-102 -189.5t-256.5 -368.5l-148 -207l-178 -20q-36 243 -63 555l-222 -535l-176 -20q-34 209 -55.5 476t-26.5 476
l-106 -21l16 60q154 31 326 114l59 31q-19 -171 -22 -401t14 -459l88 231q43 110 85.5 242t63.5 209z" />
    <glyph glyph-name="x" unicode="x" horiz-adv-x="1021" 
d="M381 436q-20 52 -35 115l-98 371l-107 -37l-16 47q147 57 379 166l76 -334q8 -39 24 -98q35 52 93.5 147t99.5 165l41 69l223 26l-418 -522q51 -149 111 -256t102 -107q31 0 58 23.5t83 101.5l39 -30q-21 -35 -50.5 -75.5t-75.5 -96.5t-96.5 -92.5t-90.5 -36.5
q-90 0 -164 80t-141 260l-197 -328l-190 -14z" />
    <glyph glyph-name="y" unicode="y" horiz-adv-x="1126" 
d="M680 406q-17 -46 -36 -90t-54 -108.5t-71 -111t-86 -80.5t-101 -34q-86 0 -133.5 55.5t-56 152.5t4.5 228l60 530l-141 -30l12 59l129 33q179 48 338 114q-30 -125 -70 -403l-43 -291q0 -1 -2 -17t-3.5 -31t-3.5 -38t-2.5 -42.5t0 -38.5t3.5 -32t8 -18q11 -20 45 -12
q48 20 117.5 175.5t89.5 225.5l100 330q1 5 12 47t13 59l272 47l-94 -766q-12 -93 -25 -157t-40 -135.5t-66.5 -126.5t-103.5 -112.5t-152 -109.5q-203 -121 -471 -26q28 106 41 194q57 -22 127 -36.5t145 -17t117 23.5q81 46 113 282q1 9 2 13l61 440z" />
    <glyph glyph-name="z" unicode="z" horiz-adv-x="903" 
d="M215 1077q198 -42 352 -43.5t346 35.5q-58 -112 -231.5 -348t-329.5 -410q57 3 127 -18t124.5 -41t78.5 -16q20 3 37.5 12t32 26.5t24.5 30t21 38.5t14.5 35t13.5 34h45q-20 -87 -45.5 -160t-60 -136t-80.5 -98.5t-98 -35.5q-76 0 -126 11.5t-134 45.5l-52 22
q-34 14 -51.5 20.5t-37.5 9.5t-29.5 0t-24.5 -15t-26.5 -27.5t-30.5 -44.5l-58 49l220 254q264 307 372 473q-115 -18 -202.5 -15.5t-210.5 26.5l-54 -129h-55q52 140 129 415z" />
    <glyph glyph-name="braceleft" unicode="{" horiz-adv-x="1001" 
d="M975 -664q-258 0 -406.5 109.5t-148.5 286.5v241q0 110 -22.5 184t-71.5 117.5t-111.5 64.5t-157.5 32v110q80 9 134 22.5t102 39t75 64.5t42.5 98.5t15.5 142.5v264q0 62 18.5 117.5t60.5 105.5t104.5 86t156 57t209.5 21v-80q-190 -32 -269 -102t-79 -205v-262
q0 -107 -33 -185.5t-71 -119.5t-114 -70t-115 -36t-121 -17q-9 -1 -13 -2q156 -18 223 -41q151 -53 203 -203q32 -91 32 -221v-225q0 -95 55 -167t135 -106.5t167 -34.5v-86z" />
    <glyph glyph-name="bar" unicode="|" horiz-adv-x="208" 
d="M160 -283h-103v1782h103v-1782z" />
    <glyph glyph-name="braceright" unicode="}" horiz-adv-x="1001" 
d="M975 371q-96 -11 -159 -32t-112.5 -64.5t-72.5 -117.5t-23 -184v-241q0 -177 -147.5 -286.5t-403.5 -109.5v86q87 0 166.5 34.5t134 106.5t54.5 167v225q0 86 15 154.5t35.5 114t60 79.5t70.5 52.5t86.5 32.5t88 19t93.5 12q6 1 9 1q-153 19 -223 43q-202 71 -237 287
q-7 47 -7 100v262q0 135 -78 205t-268 102v80q143 0 251 -31.5t170.5 -87t93 -123t30.5 -145.5v-264q0 -83 15.5 -142.5t43.5 -98.5t76.5 -64.5t103 -39t134.5 -22.5v-110z" />
    <glyph glyph-name="asciitilde" unicode="~" horiz-adv-x="866" 
d="M834 1530q-69 -285 -265 -285q-51 0 -158 51.5t-151 51.5q-32 0 -53.5 -24.5t-42.5 -80.5h-107q61 279 260 279q49 0 107 -26t111 -51.5t90 -25.5q31 0 51 23.5t51 87.5h107z" />
    <glyph glyph-name="nbspace" unicode="&#xa0;" 
 />
    <glyph glyph-name="exclamdown" unicode="&#xa1;" horiz-adv-x="466" 
d="M424 315q-98 7 -166 7l-180 -7v29q51 10 67.5 25.5t16.5 50.5v561q0 62 -19 80t-86 24v35q175 26 295 78h10q-6 -177 -6 -207v-571q0 -34 14.5 -50.5t53.5 -25.5v-29z" />
    <glyph glyph-name="cent" unicode="&#xa2;" horiz-adv-x="903" 
d="M874 551l-47 -197q-103 -44 -252 -47v-211h-151v223q-180 37 -273.5 169.5t-93.5 312.5q0 176 96 307.5t271 177.5v240h151v-217q164 0 289 -58q-4 -53 -4 -141.5t4 -148.5h-43q-29 91 -86.5 136.5t-126.5 45.5q-101 0 -181.5 -86.5t-80.5 -229.5q0 -165 89.5 -255.5
t221.5 -90.5q93 0 217 70z" />
    <glyph glyph-name="sterling" unicode="&#xa3;" horiz-adv-x="1253" 
d="M1227 467q-6 -36 -14.5 -94t-22.5 -183.5t-12 -189.5h-1008q64 70 125 195t61 233q0 98 -37 227h-262v176h199q-27 89 -27 156q0 87 33 166.5t89.5 139.5t129 105t154 68t162.5 23q98 0 197.5 -32t144.5 -68q-3 -29 1 -116t10 -159l5 -72h-41q-47 131 -128.5 198
t-219.5 67q-102 0 -163.5 -53t-61.5 -138q0 -54 10.5 -109t21.5 -89t31 -87h377v-176h-319q4 -28 4 -45q0 -169 -199 -348h461q118 0 166.5 38.5t89.5 166.5h43z" />
    <glyph glyph-name="currency" unicode="&#xa4;" horiz-adv-x="665" 
d="M629 475l-21 -160h-551v115q143 87 256 223.5t113 257.5q0 75 -42 124.5t-105 49.5q-105 0 -170 -145h-23q8 104 8 213q99 47 215 47q147 0 233.5 -74t86.5 -198q0 -69 -37 -138t-99.5 -127.5t-129 -104.5t-140.5 -85q41 2 129 2h277z" />
    <glyph glyph-name="yen" unicode="&#xa5;" 
 />
    <glyph glyph-name="brokenbar" unicode="&#xa6;" 
 />
    <glyph glyph-name="section" unicode="&#xa7;" 
 />
    <glyph glyph-name="dieresis" unicode="&#xa8;" horiz-adv-x="788" 
d="M754 1378q0 -56 -39 -94.5t-94 -38.5q-57 0 -95.5 38.5t-38.5 94.5q0 57 38.5 95t95.5 38q56 0 94.5 -38t38.5 -95zM324 1378q0 -56 -39.5 -94.5t-96.5 -38.5q-56 0 -93.5 38.5t-37.5 94.5q0 57 37 95t94 38t96.5 -38t39.5 -95z" />
    <glyph glyph-name="copyright" unicode="&#xa9;" horiz-adv-x="1171" 
d="M1149 956q0 -149 -71.5 -275t-196.5 -200.5t-275 -74.5q-147 0 -273.5 74t-201 201t-74.5 275q0 147 75.5 272.5t201.5 198t272 72.5q149 0 274 -72.5t197 -197.5t72 -273zM1090 956q0 99 -38.5 189t-103.5 154.5t-154.5 102.5t-187.5 38q-131 0 -244.5 -64t-181 -176
t-67.5 -244t67 -244t180.5 -177.5t245.5 -65.5t243.5 65.5t176 177.5t64.5 244zM872 797q-67 -100 -131 -139.5t-157 -39.5q-123 0 -215.5 102t-92.5 243q0 93 48.5 172.5t121 122t146.5 42.5q32 0 62.5 -7t47.5 -14.5t41.5 -20t32.5 -15.5q17 -5 27 9.5t18 41.5h33v-262
h-31q-7 38 -23.5 75.5t-42 73.5t-65 58.5t-86.5 22.5q-88 0 -141 -84t-53 -222q0 -124 58 -207t163 -83q110 0 207 149z" />
    <glyph glyph-name="ordfeminine" unicode="&#xaa;" horiz-adv-x="729" 
d="M692 864q0 -197 -136.5 -348t-356.5 -217l-29 55q98 64 183.5 156.5t127.5 183.5q-73 -49 -162 -49q-102 0 -182 73t-80 193q0 124 90.5 206.5t227.5 82.5q143 0 230 -91.5t87 -244.5zM510 918q0 84 -41.5 133t-97.5 49q-58 0 -91.5 -39.5t-33.5 -124.5q0 -83 39 -131.5
t90 -48.5q56 0 95.5 41t39.5 121z" />
    <glyph glyph-name="guillemotleft" unicode="&#xab;" 
 />
    <glyph glyph-name="logicalnot" unicode="&#xac;" 
 />
    <glyph glyph-name="registered" unicode="&#xae;" horiz-adv-x="1171" 
d="M1149 956q0 -149 -71.5 -275t-196.5 -200.5t-275 -74.5q-147 0 -273.5 74t-201 201t-74.5 275q0 147 75.5 272.5t201.5 198t272 72.5q149 0 274 -72.5t197 -197.5t72 -273zM1090 956q0 99 -38.5 189t-103.5 154.5t-154.5 102.5t-187.5 38q-131 0 -244.5 -64t-181 -176
t-67.5 -244t67 -244t180.5 -177.5t245.5 -65.5t243.5 65.5t176 177.5t64.5 244zM950 788q-2 -28 -8 -52.5t-19.5 -51.5t-41 -43t-66.5 -16t-64.5 17t-36.5 46.5t-15 57.5t-6 61.5t-5 46.5q-6 32 -34.5 57t-63.5 25h-84v-174q0 -60 18.5 -74t93.5 -14v-37h-321v37q34 0 49 1
t31 7.5t21 20.5t5 38v424q0 44 -20.5 57t-85.5 13v37h233q164 0 252 -36.5t88 -121.5q0 -127 -215 -162q54 -15 88.5 -49.5t47 -72.5t20 -73.5t17 -59t28.5 -23.5q50 0 59 114h35zM741 1120q-2 52 -42.5 84.5t-110.5 32.5q-48 0 -65 -17.5t-17 -70.5v-166h100q43 0 72 14
t42 37.5t17.5 44t3.5 41.5z" />
    <glyph glyph-name="macron" unicode="&#xaf;" 
 />
    <glyph glyph-name="degree" unicode="&#xb0;" horiz-adv-x="716" 
d="M680 561q0 -117 -86 -189.5t-246 -72.5q-129 0 -210 68.5t-81 183.5q0 78 46 136.5t130 86.5q-66 55 -98.5 103t-32.5 102q0 96 75 158.5t210 62.5q116 0 194 -60t78 -155q0 -124 -141 -190q100 -71 131 -116.5t31 -117.5zM487 995q0 49 -27.5 75t-74.5 26q-40 0 -67 -26
t-27 -60q0 -66 123 -146q42 44 57.5 72t15.5 59zM496 526q0 30 -12.5 56t-40.5 50t-48.5 38t-60.5 39q-60 -43 -85.5 -79t-25.5 -79q0 -62 39 -103.5t100 -41.5q59 0 96.5 34.5t37.5 85.5z" />
    <glyph glyph-name="plusminus" unicode="&#xb1;" horiz-adv-x="585" 
d="M549 502l-33 -115q-55 -30 -151 -33v-123h-91v131q-105 24 -161 104t-56 187q0 105 57 183.5t160 107.5v143h91v-131q105 0 176 -32q-8 -83 0 -174h-27q-18 54 -51.5 80t-73.5 26q-62 0 -110 -50.5t-48 -137.5q0 -99 53.5 -153t131.5 -54q52 0 133 41z" />
    <glyph glyph-name="twosuperior" unicode="&#xb2;" 
 />
    <glyph glyph-name="threesuperior" unicode="&#xb3;" 
 />
    <glyph glyph-name="acute" unicode="&#xb4;" horiz-adv-x="645" 
d="M606 1567q0 -45 -40 -82t-173 -121l-190 -119h-144l213 230q114 121 143 145q49 41 97 41q41 0 67.5 -27t26.5 -67z" />
    <glyph glyph-name="mu" unicode="&#xb5;" 
 />
    <glyph glyph-name="mu" unicode="&#x3bc;" 
 />
    <glyph glyph-name="paragraph" unicode="&#xb6;" 
 />
    <glyph glyph-name="periodcentered" unicode="&#xb7;" horiz-adv-x="546" 
d="M506 -266q0 -116 -113 -188t-291 -83l-10 80q126 23 194 66.5t68 97.5q0 47 -35 76t-88 29q-33 0 -67.5 -11t-106.5 -41l152 328h117l-80 -170h33q102 0 164.5 -50t62.5 -134z" />
    <glyph glyph-name="cedilla" unicode="&#xb8;" 
 />
    <glyph glyph-name="onesuperior" unicode="&#xb9;" 
 />
    <glyph glyph-name="ordmasculine" unicode="&#xba;" horiz-adv-x="749" 
d="M717 741q0 -196 -94.5 -319t-229.5 -123q-158 0 -247 123.5t-89 331.5q0 196 95 321t229 125q155 0 245.5 -125.5t90.5 -333.5zM512 762q0 184 -29.5 258t-91.5 74q-129 0 -129 -359q0 -184 30.5 -258t92.5 -74q127 0 127 359z" />
    <glyph glyph-name="guillemotright" unicode="&#xbb;" 
 />
    <glyph glyph-name="onequarter" unicode="&#xbc;" 
 />
    <glyph glyph-name="onehalf" unicode="&#xbd;" 
 />
    <glyph glyph-name="threequarters" unicode="&#xbe;" 
 />
    <glyph glyph-name="questiondown" unicode="&#xbf;" 
 />
    <glyph glyph-name="Agrave" unicode="&#xc0;" horiz-adv-x="1478" 
d="M813 1599h-151l-185 117q-136 87 -176.5 123.5t-40.5 79.5q0 40 28 68t66 28q12 0 22 -1.5t22 -7t20.5 -10t22.5 -16t22.5 -19t27 -26t29 -29.5t35 -37t39.5 -42zM1518 0q-189 6 -308 6l-274 -6v35q80 12 102 40t0 91l-102 280h-455l-98 -258q-27 -72 -6 -105.5
t100 -47.5v-35q-147 4 -239 4l-236 -4v35q80 0 109 84l438 1173q21 57 6 85t-74 34v37q142 -10 232 -10q36 0 85 3t80 6l31 3l498 -1335q17 -40 40.5 -56t70.5 -24v-35zM879 627l-136 409q-24 72 -34 135q-8 -46 -37 -129l-135 -415h342z" />
    <glyph glyph-name="Aacute" unicode="&#xc1;" horiz-adv-x="1478" 
d="M1182 1919q0 -44 -40.5 -82t-172.5 -121l-189 -117h-145l213 228q114 122 142 146q49 42 97 42q41 0 68 -28t27 -68zM1518 0q-189 6 -308 6l-274 -6v35q80 12 102 40t0 91l-102 280h-455l-98 -258q-27 -72 -6 -105.5t100 -47.5v-35q-147 4 -239 4l-236 -4v35q80 0 109 84
l438 1173q21 57 6 85t-74 34v37q142 -10 232 -10q36 0 85 3t80 6l31 3l498 -1335q17 -40 40.5 -56t70.5 -24v-35zM879 627l-136 409q-24 72 -34 135q-8 -46 -37 -129l-135 -415h342z" />
    <glyph glyph-name="Acircumflex" unicode="&#xc2;" horiz-adv-x="1478" 
d="M1075 1599h-141l-236 211l-239 -211h-135l292 400h164zM1518 0q-189 6 -308 6l-274 -6v35q80 12 102 40t0 91l-102 280h-455l-98 -258q-27 -72 -6 -105.5t100 -47.5v-35q-147 4 -239 4l-236 -4v35q80 0 109 84l438 1173q21 57 6 85t-74 34v37q142 -10 232 -10q36 0 85 3
t80 6l31 3l498 -1335q17 -40 40.5 -56t70.5 -24v-35zM879 627l-136 409q-24 72 -34 135q-8 -46 -37 -129l-135 -415h342z" />
    <glyph glyph-name="Atilde" unicode="&#xc3;" horiz-adv-x="1478" 
d="M1139 1882q-72 -283 -267 -283q-52 0 -158 51.5t-149 51.5q-34 0 -54.5 -24t-41.5 -83h-111q67 279 263 279q50 0 107.5 -25t110 -50t89.5 -25q33 0 53 23.5t49 84.5h109zM1518 0q-189 6 -308 6l-274 -6v35q80 12 102 40t0 91l-102 280h-455l-98 -258q-27 -72 -6 -105.5
t100 -47.5v-35q-147 4 -239 4l-236 -4v35q80 0 109 84l438 1173q21 57 6 85t-74 34v37q142 -10 232 -10q36 0 85 3t80 6l31 3l498 -1335q17 -40 40.5 -56t70.5 -24v-35zM879 627l-136 409q-24 72 -34 135q-8 -46 -37 -129l-135 -415h342z" />
    <glyph glyph-name="Adieresis" unicode="&#xc4;" horiz-adv-x="1478" 
d="M1059 1710q0 -57 -39 -95t-96 -38t-95 38t-38 95t38 96t95 39t96 -39t39 -96zM627 1710q0 -57 -38 -95t-95 -38t-96.5 38t-39.5 95t39.5 96t96.5 39t95 -39t38 -96zM1518 0q-189 6 -308 6l-274 -6v35q80 12 102 40t0 91l-102 280h-455l-98 -258q-27 -72 -6 -105.5
t100 -47.5v-35q-147 4 -239 4l-236 -4v35q80 0 109 84l438 1173q21 57 6 85t-74 34v37q142 -10 232 -10q36 0 85 3t80 6l31 3l498 -1335q17 -40 40.5 -56t70.5 -24v-35zM879 627l-136 409q-24 72 -34 135q-8 -46 -37 -129l-135 -415h342z" />
    <glyph glyph-name="Aring" unicode="&#xc5;" horiz-adv-x="1478" 
d="M946 1815q0 -98 -69.5 -168t-167.5 -70t-167 70t-69 168t69 166.5t167 68.5t167.5 -68.5t69.5 -166.5zM1518 0q-189 6 -308 6l-274 -6v35q80 12 102 40t0 91l-102 280h-455l-98 -258q-27 -72 -6 -105.5t100 -47.5v-35q-147 4 -239 4l-236 -4v35q80 0 109 84l438 1173
q21 57 6 85t-74 34v37q142 -10 232 -10q36 0 85 3t80 6l31 3l498 -1335q17 -40 40.5 -56t70.5 -24v-35zM823 1815q0 46 -34 80t-80 34t-80.5 -34t-34.5 -80q0 -47 34.5 -81t80.5 -34t80 34t34 81zM879 627l-136 409q-24 72 -34 135q-8 -46 -37 -129l-135 -415h342z" />
    <glyph glyph-name="AE" unicode="&#xc6;" horiz-adv-x="2082" 
d="M2081 422l-39 -422h-1151v35q67 9 88.5 34.5t21.5 96.5v280h-380l-152 -258q-43 -72 -29.5 -105.5t88.5 -47.5v-35q-143 4 -237 4l-234 -4v35q76 0 125 84l686 1173q33 57 24 85t-67 34v37h1184l16 -365h-49q-14 58 -28.5 90.5t-41.5 51.5t-61.5 24.5t-95.5 5.5h-414
v-405h230q82 0 121.5 26t58.5 93h41q-6 -127 -6 -207l6 -213h-41q-19 65 -58 90t-122 25h-230v-474h400q82 0 127 7t80.5 33t53.5 69.5t36 122.5h49zM1001 627v538q-15 -41 -63 -123l-221 -415h284z" />
    <glyph glyph-name="Ccedilla" unicode="&#xc7;" horiz-adv-x="1323" 
d="M1321 317l-33 -235q-195 -132 -450 -135l-41 -86h34q101 0 164.5 -50t63.5 -135q0 -116 -113 -187.5t-291 -80.5l-10 80q126 21 194 65t68 99q0 48 -36 75t-89 27q-55 0 -176 -51l119 250q-190 24 -342 126t-239 265t-87 358q0 228 106 410.5t291 284.5t412 102
q213 0 414 -90q-6 -127 -6 -207l6 -219h-45q-23 138 -121 221.5t-260 83.5q-86 0 -160.5 -27.5t-127.5 -75t-91.5 -111t-57 -135t-18.5 -146.5q0 -145 43.5 -263.5t116.5 -193.5t166 -115.5t195 -40.5q186 0 401 137z" />
    <glyph glyph-name="Egrave" unicode="&#xc8;" horiz-adv-x="1310" 
d="M803 1599h-152l-184 117q-136 86 -176.5 123t-40.5 80q0 40 27 68t67 28q44 0 81.5 -29.5t126.5 -124.5q21 -22 32 -34zM1290 422l-39 -422h-1194v35q67 9 89 34.5t22 96.5v1116q0 72 -22.5 97.5t-88.5 31.5v37h1160l18 -365h-51q-24 110 -66.5 141t-159.5 31h-456v-405
h270q85 0 124 25.5t58 93.5h41q-6 -127 -6 -207l6 -213h-41q-19 66 -58 90.5t-124 24.5h-270v-474h442q82 0 127 7t80.5 33t53.5 69.5t36 122.5h49z" />
    <glyph glyph-name="Eacute" unicode="&#xc9;" horiz-adv-x="1310" 
d="M1108 1915q0 -44 -42 -84t-173 -119l-188 -117h-146l213 228q116 122 140 142q53 46 100 46q41 0 68.5 -28t27.5 -68zM1290 422l-39 -422h-1194v35q67 9 89 34.5t22 96.5v1116q0 72 -22.5 97.5t-88.5 31.5v37h1160l18 -365h-51q-24 110 -66.5 141t-159.5 31h-456v-405
h270q85 0 124 25.5t58 93.5h41q-6 -127 -6 -207l6 -213h-41q-19 66 -58 90.5t-124 24.5h-270v-474h442q82 0 127 7t80.5 33t53.5 69.5t36 122.5h49z" />
    <glyph glyph-name="Ecircumflex" unicode="&#xca;" horiz-adv-x="1310" 
d="M1042 1599h-139l-237 211l-240 -211h-135l293 400h164zM1290 422l-39 -422h-1194v35q67 9 89 34.5t22 96.5v1116q0 72 -22.5 97.5t-88.5 31.5v37h1160l18 -365h-51q-24 110 -66.5 141t-159.5 31h-456v-405h270q85 0 124 25.5t58 93.5h41q-6 -127 -6 -207l6 -213h-41
q-19 66 -58 90.5t-124 24.5h-270v-474h442q82 0 127 7t80.5 33t53.5 69.5t36 122.5h49z" />
    <glyph glyph-name="Edieresis" unicode="&#xcb;" horiz-adv-x="1310" 
d="M1004 1733q0 -57 -38.5 -95.5t-95.5 -38.5t-95 38.5t-38 95.5t38 95t95 38t95.5 -38t38.5 -95zM573 1733q0 -57 -39 -95.5t-96 -38.5t-94 38.5t-37 95.5t37 95t94 38t96 -38t39 -95zM1290 422l-39 -422h-1194v35q67 9 89 34.5t22 96.5v1116q0 72 -22.5 97.5t-88.5 31.5
v37h1160l18 -365h-51q-24 110 -66.5 141t-159.5 31h-456v-405h270q85 0 124 25.5t58 93.5h41q-6 -127 -6 -207l6 -213h-41q-19 66 -58 90.5t-124 24.5h-270v-474h442q82 0 127 7t80.5 33t53.5 69.5t36 122.5h49z" />
    <glyph glyph-name="Igrave" unicode="&#xcc;" horiz-adv-x="651" 
d="M414 1599h-152l-184 117q-136 87 -176.5 123.5t-40.5 79.5q0 40 28 68t66 28q12 0 22 -1.5t22 -7t20.5 -10t22.5 -16t22.5 -19t27 -26t29 -29.5t35 -37t39.5 -42zM612 0q-169 10 -278 10q-47 0 -116.5 -2.5t-115.5 -5.5l-45 -2v35q67 9 89 34.5t22 96.5v1116
q0 72 -22.5 97.5t-88.5 31.5v37q171 -10 277 -10q48 0 117.5 2.5t114.5 5.5l46 2v-37q-66 -6 -88 -31.5t-22 -97.5v-1116q0 -71 21.5 -96.5t88.5 -34.5v-35z" />
    <glyph glyph-name="Iacute" unicode="&#xcd;" horiz-adv-x="651" 
d="M827 1919q0 -43 -41.5 -81t-175.5 -122l-186 -117h-148l218 228q114 121 138 142q52 46 101 46q40 0 67 -28t27 -68zM612 0q-169 10 -278 10q-47 0 -116.5 -2.5t-115.5 -5.5l-45 -2v35q67 9 89 34.5t22 96.5v1116q0 72 -22.5 97.5t-88.5 31.5v37q171 -10 277 -10
q48 0 117.5 2.5t114.5 5.5l46 2v-37q-66 -6 -88 -31.5t-22 -97.5v-1116q0 -71 21.5 -96.5t88.5 -34.5v-35z" />
    <glyph glyph-name="Icircumflex" unicode="&#xce;" horiz-adv-x="651" 
d="M711 1599h-140l-237 211l-240 -211h-133l291 400h164zM612 0q-169 10 -278 10q-47 0 -116.5 -2.5t-115.5 -5.5l-45 -2v35q67 9 89 34.5t22 96.5v1116q0 72 -22.5 97.5t-88.5 31.5v37q171 -10 277 -10q48 0 117.5 2.5t114.5 5.5l46 2v-37q-66 -6 -88 -31.5t-22 -97.5
v-1116q0 -71 21.5 -96.5t88.5 -34.5v-35z" />
    <glyph glyph-name="Idieresis" unicode="&#xcf;" horiz-adv-x="651" 
d="M680 1733q0 -57 -37.5 -95.5t-93.5 -38.5q-57 0 -96 38.5t-39 95.5t39 95t96 38q56 0 93.5 -38t37.5 -95zM250 1733q0 -57 -39 -95.5t-96 -38.5t-94 38.5t-37 95.5t37 95t94 38t96 -38t39 -95zM612 0q-169 10 -278 10q-47 0 -116.5 -2.5t-115.5 -5.5l-45 -2v35
q67 9 89 34.5t22 96.5v1116q0 72 -22.5 97.5t-88.5 31.5v37q171 -10 277 -10q48 0 117.5 2.5t114.5 5.5l46 2v-37q-66 -6 -88 -31.5t-22 -97.5v-1116q0 -71 21.5 -96.5t88.5 -34.5v-35z" />
    <glyph glyph-name="Eth" unicode="&#xd0;" 
 />
    <glyph glyph-name="Ntilde" unicode="&#xd1;" horiz-adv-x="1540" 
d="M1214 1880q-69 -285 -264 -285q-43 0 -101 26.5t-113.5 52.5t-92.5 26q-34 0 -54.5 -24t-43.5 -83h-109q67 279 262 279q50 0 108 -25t110.5 -50t89.5 -25q33 0 53.5 23t48.5 85h106zM1526 1411q-70 -7 -92.5 -30.5t-22.5 -86.5v-1294q-76 2 -125 2l-123 -2l-790 1149
l12 -963q0 -76 30.5 -106.5t119.5 -44.5v-35q-159 10 -259 10q-38 0 -93 -2.5t-91 -5.5l-35 -2v35q69 11 91 33.5t22 85.5v1120q0 27 -2.5 47t-4.5 34t-10.5 23.5t-12.5 14.5t-20 9t-22.5 5t-29.5 4v37q145 -10 235 -10q41 0 100.5 3t98.5 6l39 3l669 -975l-12 785
q-2 79 -32 110t-119 41v37q155 -10 253 -10q40 0 96.5 2.5t93.5 5.5l36 2v-37z" />
    <glyph glyph-name="Ograve" unicode="&#xd2;" horiz-adv-x="1603" 
d="M930 1599h-148l-188 117q-132 83 -172.5 121t-40.5 82q0 40 26.5 68t67.5 28q11 0 21.5 -1.5t21.5 -7t19.5 -10t22.5 -16t22.5 -19t27 -26t29 -30t35 -37t39.5 -41.5zM1589 725q0 -165 -57 -309.5t-157 -247.5t-243 -162t-309 -59q-221 0 -396.5 102t-272.5 279.5
t-97 396.5q0 162 57 304.5t157 246t243.5 163.5t308.5 60q221 0 396.5 -101t272.5 -277.5t97 -395.5zM1233 762q-23 149 -71 256.5t-113 165.5t-135 83t-148 21q-89 -4 -163.5 -50t-124.5 -123t-70 -187t-2 -236q17 -119 53.5 -213t82.5 -152.5t102.5 -96.5t112 -51.5
t113.5 -10.5q89 4 164.5 50t126.5 122.5t71 186.5t1 235z" />
    <glyph glyph-name="Oacute" unicode="&#xd3;" horiz-adv-x="1603" 
d="M1280 1919q0 -43 -41 -81.5t-174 -121.5l-188 -117h-146l215 228q61 67 83.5 90.5t55.5 53t53.5 37t45.5 7.5q41 0 68.5 -28t27.5 -68zM1589 725q0 -165 -57 -309.5t-157 -247.5t-243 -162t-309 -59q-221 0 -396.5 102t-272.5 279.5t-97 396.5q0 162 57 304.5t157 246
t243.5 163.5t308.5 60q221 0 396.5 -101t272.5 -277.5t97 -395.5zM1233 762q-23 149 -71 256.5t-113 165.5t-135 83t-148 21q-89 -4 -163.5 -50t-124.5 -123t-70 -187t-2 -236q17 -119 53.5 -213t82.5 -152.5t102.5 -96.5t112 -51.5t113.5 -10.5q89 4 164.5 50t126.5 122.5
t71 186.5t1 235z" />
    <glyph glyph-name="Ocircumflex" unicode="&#xd4;" horiz-adv-x="1603" 
d="M1194 1599h-139l-238 211l-239 -211h-138l295 400h164zM1589 725q0 -165 -57 -309.5t-157 -247.5t-243 -162t-309 -59q-221 0 -396.5 102t-272.5 279.5t-97 396.5q0 162 57 304.5t157 246t243.5 163.5t308.5 60q221 0 396.5 -101t272.5 -277.5t97 -395.5zM1233 762
q-23 149 -71 256.5t-113 165.5t-135 83t-148 21q-89 -4 -163.5 -50t-124.5 -123t-70 -187t-2 -236q17 -119 53.5 -213t82.5 -152.5t102.5 -96.5t112 -51.5t113.5 -10.5q89 4 164.5 50t126.5 122.5t71 186.5t1 235z" />
    <glyph glyph-name="Otilde" unicode="&#xd5;" horiz-adv-x="1603" 
d="M1235 1882q-72 -283 -264 -283q-53 0 -159 51.5t-150 51.5q-33 0 -54.5 -25t-42.5 -82h-108q63 279 262 279q49 0 106 -25t110 -50t91 -25q32 0 51.5 23.5t48.5 84.5h109zM1589 725q0 -165 -57 -309.5t-157 -247.5t-243 -162t-309 -59q-221 0 -396.5 102t-272.5 279.5
t-97 396.5q0 162 57 304.5t157 246t243.5 163.5t308.5 60q221 0 396.5 -101t272.5 -277.5t97 -395.5zM1233 762q-23 149 -71 256.5t-113 165.5t-135 83t-148 21q-89 -4 -163.5 -50t-124.5 -123t-70 -187t-2 -236q17 -119 53.5 -213t82.5 -152.5t102.5 -96.5t112 -51.5
t113.5 -10.5q89 4 164.5 50t126.5 122.5t71 186.5t1 235z" />
    <glyph glyph-name="Odieresis" unicode="&#xd6;" horiz-adv-x="1603" 
d="M1163 1733q0 -57 -38.5 -95.5t-94.5 -38.5q-57 0 -95 38.5t-38 95.5t38 95t95 38q56 0 94.5 -38t38.5 -95zM733 1733q0 -57 -39 -95.5t-96 -38.5t-94 38.5t-37 95.5t37 95t94 38t96 -38t39 -95zM1589 725q0 -165 -57 -309.5t-157 -247.5t-243 -162t-309 -59
q-221 0 -396.5 102t-272.5 279.5t-97 396.5q0 162 57 304.5t157 246t243.5 163.5t308.5 60q221 0 396.5 -101t272.5 -277.5t97 -395.5zM1233 762q-23 149 -71 256.5t-113 165.5t-135 83t-148 21q-89 -4 -163.5 -50t-124.5 -123t-70 -187t-2 -236q17 -119 53.5 -213
t82.5 -152.5t102.5 -96.5t112 -51.5t113.5 -10.5q89 4 164.5 50t126.5 122.5t71 186.5t1 235z" />
    <glyph glyph-name="multiply" unicode="&#xd7;" 
 />
    <glyph glyph-name="Oslash" unicode="&#xd8;" horiz-adv-x="1603" 
d="M1589 725q0 -165 -57 -309.5t-157 -247.5t-243 -162t-309 -59q-285 0 -495 170l-156 -170h-113l205 229q-98 106 -152.5 247.5t-54.5 301.5q0 162 57 304.5t157 246t243.5 163.5t308.5 60q289 0 496 -170l156 170h112l-207 -227q100 -103 154.5 -244t54.5 -303z
M1114 1104q-130 194 -348 184q-89 -4 -163.5 -50t-124.5 -123t-70 -187t-2 -236q24 -166 79 -276zM1233 762q-23 149 -76 266l-627 -686q68 -96 157 -137.5t183 -36.5q89 4 164.5 50t127 122.5t71.5 186.5t0 235z" />
    <glyph glyph-name="Ugrave" unicode="&#xd9;" horiz-adv-x="1525" 
d="M889 1599h-152l-184 117q-136 86 -176.5 123t-40.5 80q0 40 27 68t67 28q44 0 81.5 -29.5t126.5 -124.5q21 -22 32 -34zM1509 1411q-66 -6 -88 -31.5t-22 -97.5v-752q0 -143 -30 -246.5t-99.5 -181.5t-190.5 -116.5t-295 -38.5q-177 0 -298.5 38.5t-190.5 116.5t-98 181
t-29 247v752q0 72 -22.5 97.5t-88.5 31.5v37q171 -10 277 -10q48 0 117.5 2.5t114.5 5.5l46 2v-37q-66 -6 -88 -31.5t-22 -97.5v-836q0 -152 66.5 -229.5t215.5 -77.5t215 77.5t66 229.5v836q0 71 -23 97t-90 32v37q170 -10 279 -10q48 0 117.5 2.5t115.5 5.5l45 2v-37z" />
    <glyph glyph-name="Uacute" unicode="&#xda;" horiz-adv-x="1525" 
d="M1237 1919q0 -43 -41.5 -81t-175.5 -122l-186 -117h-148l217 228q11 12 32 34q88 94 126 124t82 30q40 0 67 -28t27 -68zM1509 1411q-66 -6 -88 -31.5t-22 -97.5v-752q0 -143 -30 -246.5t-99.5 -181.5t-190.5 -116.5t-295 -38.5q-177 0 -298.5 38.5t-190.5 116.5t-98 181
t-29 247v752q0 72 -22.5 97.5t-88.5 31.5v37q171 -10 277 -10q48 0 117.5 2.5t114.5 5.5l46 2v-37q-66 -6 -88 -31.5t-22 -97.5v-836q0 -152 66.5 -229.5t215.5 -77.5t215 77.5t66 229.5v836q0 71 -23 97t-90 32v37q170 -10 279 -10q48 0 117.5 2.5t115.5 5.5l45 2v-37z" />
    <glyph glyph-name="Ucircumflex" unicode="&#xdb;" horiz-adv-x="1525" 
d="M1151 1599h-141l-238 211l-237 -211h-136l291 400h164zM1509 1411q-66 -6 -88 -31.5t-22 -97.5v-752q0 -143 -30 -246.5t-99.5 -181.5t-190.5 -116.5t-295 -38.5q-177 0 -298.5 38.5t-190.5 116.5t-98 181t-29 247v752q0 72 -22.5 97.5t-88.5 31.5v37q171 -10 277 -10
q48 0 117.5 2.5t114.5 5.5l46 2v-37q-66 -6 -88 -31.5t-22 -97.5v-836q0 -152 66.5 -229.5t215.5 -77.5t215 77.5t66 229.5v836q0 71 -23 97t-90 32v37q170 -10 279 -10q48 0 117.5 2.5t115.5 5.5l45 2v-37z" />
    <glyph glyph-name="Udieresis" unicode="&#xdc;" horiz-adv-x="1525" 
d="M1133 1733q0 -57 -38.5 -95.5t-95.5 -38.5t-95 38.5t-38 95.5t38 95t95 38t95.5 -38t38.5 -95zM702 1733q0 -57 -38 -95.5t-95 -38.5t-96 38.5t-39 95.5t39 95t96 38t95 -38t38 -95zM1509 1411q-66 -6 -88 -31.5t-22 -97.5v-752q0 -143 -30 -246.5t-99.5 -181.5
t-190.5 -116.5t-295 -38.5q-177 0 -298.5 38.5t-190.5 116.5t-98 181t-29 247v752q0 72 -22.5 97.5t-88.5 31.5v37q171 -10 277 -10q48 0 117.5 2.5t114.5 5.5l46 2v-37q-66 -6 -88 -31.5t-22 -97.5v-836q0 -152 66.5 -229.5t215.5 -77.5t215 77.5t66 229.5v836q0 71 -23 97
t-90 32v37q170 -10 279 -10q48 0 117.5 2.5t115.5 5.5l45 2v-37z" />
    <glyph glyph-name="Yacute" unicode="&#xdd;" 
 />
    <glyph glyph-name="Thorn" unicode="&#xde;" 
 />
    <glyph glyph-name="germandbls" unicode="&#xdf;" horiz-adv-x="1306" 
d="M1284 410q0 -107 -38 -192.5t-102.5 -138.5t-145.5 -80.5t-171 -27.5q-72 0 -132.5 22t-129.5 75q-36 142 -45 239h45q41 -94 99 -146t118 -52q97 0 143 68t46 233q0 134 -100 240t-298 155v51q134 48 204.5 124t70.5 189q0 102 -55 174t-134 72q-91 0 -131.5 -60
t-40.5 -196v-1161q-141 12 -221 12q-40 0 -98.5 -2.5t-96.5 -5.5l-38 -2v33q76 1 106.5 30.5t30.5 94.5v723h-166v80q107 12 139.5 46.5t32.5 139.5q0 200 135.5 329.5t354.5 129.5q215 0 357 -123.5t142 -300.5q0 -128 -89 -217t-234 -117q119 -22 207.5 -67.5t138 -105.5
t73 -126t23.5 -139z" />
    <glyph glyph-name="agrave" unicode="&#xe0;" horiz-adv-x="1112" 
d="M418 653q-21 -74 -44.5 -199.5t-23.5 -197.5q0 -69 20 -91t48 -13q37 11 78 72.5t74.5 143.5t55 145.5t33.5 107.5l82 309q-91 10 -120 8q-34 -2 -61.5 -17.5t-46.5 -37.5t-37.5 -62.5t-29.5 -75t-28 -92.5zM674 426q-17 -54 -41 -108.5t-62 -116.5t-81 -109
t-101.5 -78.5t-120.5 -31.5q-105 0 -164 89t-59 232q0 455 430 703q147 88 299 88q72 0 166 -27l119 57l-111 -792q-10 -60 -10 -94q0 -49 15.5 -67.5t52 -5.5t98.5 62l26 -41q-88 -77 -188 -140.5t-174 -63.5q-151 0 -109 329zM897 1245h-152l-184 119
q-138 88 -177.5 123.5t-39.5 79.5q0 39 27.5 66.5t66.5 27.5q44 0 81.5 -29.5t123.5 -119.5q23 -24 35 -37z" />
    <glyph glyph-name="aacute" unicode="&#xe1;" horiz-adv-x="1112" 
d="M418 653q-21 -74 -44.5 -199.5t-23.5 -197.5q0 -69 20 -91t48 -13q37 11 78 72.5t74.5 143.5t55 145.5t33.5 107.5l82 309q-91 10 -120 8q-34 -2 -61.5 -17.5t-46.5 -37.5t-37.5 -62.5t-29.5 -75t-28 -92.5zM674 426q-17 -54 -41 -108.5t-62 -116.5t-81 -109
t-101.5 -78.5t-120.5 -31.5q-105 0 -164 89t-59 232q0 455 430 703q147 88 299 88q72 0 166 -27l119 57l-111 -792q-10 -60 -10 -94q0 -49 15.5 -67.5t52 -5.5t98.5 62l26 -41q-88 -77 -188 -140.5t-174 -63.5q-151 0 -109 329zM1241 1567q0 -45 -40 -82t-175 -121
l-188 -119h-148l217 230q114 120 139 141q52 45 101 45q40 0 67 -27t27 -67z" />
    <glyph glyph-name="acircumflex" unicode="&#xe2;" horiz-adv-x="1112" 
d="M418 653q-21 -74 -44.5 -199.5t-23.5 -197.5q0 -69 20 -91t48 -13q37 11 78 72.5t74.5 143.5t55 145.5t33.5 107.5l82 309q-91 10 -120 8q-34 -2 -61.5 -17.5t-46.5 -37.5t-37.5 -62.5t-29.5 -75t-28 -92.5zM674 426q-17 -54 -41 -108.5t-62 -116.5t-81 -109
t-101.5 -78.5t-120.5 -31.5q-105 0 -164 89t-59 232q0 455 430 703q147 88 299 88q72 0 166 -27l119 57l-111 -792q-10 -60 -10 -94q0 -49 15.5 -67.5t52 -5.5t98.5 62l26 -41q-88 -77 -188 -140.5t-174 -63.5q-151 0 -109 329zM1161 1245h-141l-236 211l-239 -211h-135
l292 402h164z" />
    <glyph glyph-name="atilde" unicode="&#xe3;" horiz-adv-x="1112" 
d="M418 653q-21 -74 -44.5 -199.5t-23.5 -197.5q0 -69 20 -91t48 -13q37 11 78 72.5t74.5 143.5t55 145.5t33.5 107.5l82 309q-91 10 -120 8q-34 -2 -61.5 -17.5t-46.5 -37.5t-37.5 -62.5t-29.5 -75t-28 -92.5zM674 426q-17 -54 -41 -108.5t-62 -116.5t-81 -109
t-101.5 -78.5t-120.5 -31.5q-105 0 -164 89t-59 232q0 455 430 703q147 88 299 88q72 0 166 -27l119 57l-111 -792q-10 -60 -10 -94q0 -49 15.5 -67.5t52 -5.5t98.5 62l26 -41q-88 -77 -188 -140.5t-174 -63.5q-151 0 -109 329zM1186 1530q-66 -285 -264 -285
q-51 0 -158 51.5t-152 51.5q-31 0 -52.5 -24t-43.5 -81h-106q61 279 260 279q49 0 107.5 -26t111.5 -51.5t90 -25.5q30 0 51 24.5t49 86.5h107z" />
    <glyph glyph-name="adieresis" unicode="&#xe4;" horiz-adv-x="1112" 
d="M418 653q-21 -74 -44.5 -199.5t-23.5 -197.5q0 -69 20 -91t48 -13q37 11 78 72.5t74.5 143.5t55 145.5t33.5 107.5l82 309q-91 10 -120 8q-34 -2 -61.5 -17.5t-46.5 -37.5t-37.5 -62.5t-29.5 -75t-28 -92.5zM674 426q-17 -54 -41 -108.5t-62 -116.5t-81 -109
t-101.5 -78.5t-120.5 -31.5q-105 0 -164 89t-59 232q0 455 430 703q147 88 299 88q72 0 166 -27l119 57l-111 -792q-10 -60 -10 -94q0 -49 15.5 -67.5t52 -5.5t98.5 62l26 -41q-88 -77 -188 -140.5t-174 -63.5q-151 0 -109 329zM1124 1378q0 -56 -38 -94.5t-95 -38.5
t-96 38.5t-39 94.5q0 57 39 95t96 38t95 -38t38 -95zM692 1378q0 -56 -37.5 -94.5t-93.5 -38.5q-57 0 -96 38.5t-39 94.5q0 57 39 95t96 38t94 -38t37 -95z" />
    <glyph glyph-name="aring" unicode="&#xe5;" horiz-adv-x="1112" 
d="M418 653q-21 -74 -44.5 -199.5t-23.5 -197.5q0 -69 20 -91t48 -13q37 11 78 72.5t74.5 143.5t55 145.5t33.5 107.5l82 309q-91 10 -120 8q-34 -2 -61.5 -17.5t-46.5 -37.5t-37.5 -62.5t-29.5 -75t-28 -92.5zM674 426q-17 -54 -41 -108.5t-62 -116.5t-81 -109
t-101.5 -78.5t-120.5 -31.5q-105 0 -164 89t-59 232q0 455 430 703q147 88 299 88q72 0 166 -27l119 57l-111 -792q-10 -60 -10 -94q0 -49 15.5 -67.5t52 -5.5t98.5 62l26 -41q-88 -77 -188 -140.5t-174 -63.5q-151 0 -109 329zM991 1483q0 -100 -68.5 -169t-168.5 -69
q-99 0 -168.5 69.5t-69.5 168.5q0 98 69.5 166.5t168.5 68.5q100 0 168.5 -68.5t68.5 -166.5zM868 1483q0 46 -33.5 79t-80.5 33t-80 -33t-33 -79q0 -47 33 -81t80 -34t80.5 34t33.5 81z" />
    <glyph glyph-name="ae" unicode="&#xe6;" horiz-adv-x="1529" 
d="M418 653q-21 -74 -44.5 -199.5t-23.5 -197.5q0 -69 20 -91t48 -13q37 11 78 72.5t74.5 143.5t55 145.5t33.5 107.5l82 309q-91 10 -120 8q-34 -2 -61.5 -17.5t-46.5 -37.5t-37.5 -62.5t-29.5 -75t-28 -92.5zM1276 834q0 40 -30.5 67t-64 34.5t-53.5 0.5
q-30 -9 -64.5 -73.5t-60.5 -148t-41.5 -141t-21.5 -84.5q150 61 243 152.5t93 192.5zM1042 1014q136 80 279 80q98 0 160.5 -51t62.5 -136q0 -132 -101 -240.5t-263 -177.5q-135 -59 -250 -83q0 -77 16 -136.5t55.5 -99t98.5 -39.5q74 0 146.5 52.5t174.5 162.5l39 -24
q-100 -164 -227 -252t-264 -88q-130 0 -225 91t-115 238q-28 -62 -62.5 -117t-79.5 -104.5t-102 -78.5t-117 -29q-105 0 -164 89t-59 232q0 455 430 703q147 88 299 88q72 0 166 -27l119 57z" />
    <glyph glyph-name="ccedilla" unicode="&#xe7;" horiz-adv-x="829" 
d="M270 -8q-105 26 -165 122t-60 236q0 122 45 246.5t127 224.5q104 129 241 201t285 72q63 0 121 -15q-28 -69 -40.5 -107t-37.5 -136q-17 7 -48 17t-77.5 21.5t-81 10.5t-59.5 -15q-65 -54 -117.5 -259.5t-52.5 -301.5q0 -168 139 -168q93 0 285 140l31 -31
q-104 -120 -219.5 -192t-220.5 -76l-37 -82h26q88 0 141.5 -43t53.5 -115q0 -96 -94.5 -147.5t-253.5 -61.5l-6 47q108 18 166.5 56t58.5 85q0 38 -31 63.5t-74 25.5q-29 0 -57.5 -9.5t-91.5 -36.5z" />
    <glyph glyph-name="egrave" unicode="&#xe8;" horiz-adv-x="962" 
d="M348 406q0 -77 16 -136.5t55.5 -99t98.5 -39.5q74 0 148.5 53t173.5 162l39 -24q-100 -163 -227.5 -251.5t-264.5 -88.5q-144 0 -243 112t-99 279q0 111 42 221t113.5 198t160.5 157t188 107t190 38q98 0 161 -51t63 -136q0 -132 -100.5 -239.5t-264.5 -178.5
q-135 -59 -250 -83zM692 834q0 58 -54.5 85t-88.5 17q-40 -12 -87 -119.5t-73 -200.5t-31 -127q151 60 242.5 151.5t91.5 193.5zM852 1245h-150l-186 119q-135 87 -174 123t-39 80q0 40 26.5 67t67.5 27q44 0 81 -29t123 -119q23 -25 36 -38z" />
    <glyph glyph-name="eacute" unicode="&#xe9;" horiz-adv-x="962" 
d="M348 406q0 -77 16 -136.5t55.5 -99t98.5 -39.5q74 0 148.5 53t173.5 162l39 -24q-100 -163 -227.5 -251.5t-264.5 -88.5q-144 0 -243 112t-99 279q0 111 42 221t113.5 198t160.5 157t188 107t190 38q98 0 161 -51t63 -136q0 -132 -100.5 -239.5t-264.5 -178.5
q-135 -59 -250 -83zM692 834q0 58 -54.5 85t-88.5 17q-40 -12 -87 -119.5t-73 -200.5t-31 -127q151 60 242.5 151.5t91.5 193.5zM1176 1567q0 -44 -39.5 -80t-175.5 -123l-189 -119h-145l215 230q14 15 36.5 38.5t32.5 34t27 28t25 24.5t21 19t20.5 16.5t18.5 11t19.5 8.5
t18 4t20.5 2q41 0 68 -27t27 -67z" />
    <glyph glyph-name="ecircumflex" unicode="&#xea;" horiz-adv-x="962" 
d="M348 406q0 -77 16 -136.5t55.5 -99t98.5 -39.5q74 0 148.5 53t173.5 162l39 -24q-100 -163 -227.5 -251.5t-264.5 -88.5q-144 0 -243 112t-99 279q0 111 42 221t113.5 198t160.5 157t188 107t190 38q98 0 161 -51t63 -136q0 -132 -100.5 -239.5t-264.5 -178.5
q-135 -59 -250 -83zM692 834q0 58 -54.5 85t-88.5 17q-40 -12 -87 -119.5t-73 -200.5t-31 -127q151 60 242.5 151.5t91.5 193.5zM1161 1245h-141l-236 211l-239 -211h-135l292 402h164z" />
    <glyph glyph-name="edieresis" unicode="&#xeb;" horiz-adv-x="962" 
d="M348 406q0 -77 16 -136.5t55.5 -99t98.5 -39.5q74 0 148.5 53t173.5 162l39 -24q-100 -163 -227.5 -251.5t-264.5 -88.5q-144 0 -243 112t-99 279q0 111 42 221t113.5 198t160.5 157t188 107t190 38q98 0 161 -51t63 -136q0 -132 -100.5 -239.5t-264.5 -178.5
q-135 -59 -250 -83zM692 834q0 58 -54.5 85t-88.5 17q-40 -12 -87 -119.5t-73 -200.5t-31 -127q151 60 242.5 151.5t91.5 193.5zM1085 1378q0 -56 -38 -94.5t-95 -38.5t-95 38.5t-38 94.5q0 57 38 95t95 38t95 -38t38 -95zM655 1378q0 -56 -39 -94.5t-96 -38.5
q-56 0 -93.5 38.5t-37.5 94.5q0 57 37 95t94 38t96 -38t39 -95z" />
    <glyph glyph-name="igrave" unicode="&#xec;" horiz-adv-x="585" 
d="M545 1124q-30 -125 -70 -403l-55 -389q-8 -48 -8 -94q0 -50 14.5 -68t51 -5t100.5 62l24 -41q-87 -77 -187.5 -140.5t-172.5 -63.5q-38 0 -63 19.5t-37 49.5t-16 76t-1.5 87.5t8.5 96.5l74 637l-141 -30l12 59l129 33q179 48 338 114zM500 1245h-152l-184 119
q-138 88 -177.5 123.5t-39.5 79.5q0 40 28.5 67t69.5 27q47 0 102 -49q21 -19 134 -137z" />
    <glyph glyph-name="iacute" unicode="&#xed;" horiz-adv-x="585" 
d="M545 1124q-30 -125 -70 -403l-55 -389q-8 -48 -8 -94q0 -50 14.5 -68t51 -5t100.5 62l24 -41q-87 -77 -187.5 -140.5t-172.5 -63.5q-38 0 -63 19.5t-37 49.5t-16 76t-1.5 87.5t8.5 96.5l74 637l-141 -30l12 59l129 33q179 48 338 114zM866 1567q0 -45 -40 -82t-175 -121
l-186 -119h-148l213 230q6 6 16 17q98 104 138.5 136.5t85.5 32.5q41 0 68.5 -27t27.5 -67z" />
    <glyph glyph-name="icircumflex" unicode="&#xee;" horiz-adv-x="585" 
d="M545 1124q-30 -125 -70 -403l-55 -389q-8 -48 -8 -94q0 -50 14.5 -68t51 -5t100.5 62l24 -41q-87 -77 -187.5 -140.5t-172.5 -63.5q-38 0 -63 19.5t-37 49.5t-16 76t-1.5 87.5t8.5 96.5l74 637l-141 -30l12 59l129 33q179 48 338 114zM809 1245h-141l-238 211l-240 -211
h-133l291 402h164z" />
    <glyph glyph-name="idieresis" unicode="&#xef;" horiz-adv-x="585" 
d="M545 1124q-30 -125 -70 -403l-55 -389q-8 -48 -8 -94q0 -50 14.5 -68t51 -5t100.5 62l24 -41q-87 -77 -187.5 -140.5t-172.5 -63.5q-38 0 -63 19.5t-37 49.5t-16 76t-1.5 87.5t8.5 96.5l74 637l-141 -30l12 59l129 33q179 48 338 114zM733 1378q0 -56 -39 -94.5
t-96 -38.5q-56 0 -93.5 38.5t-37.5 94.5q0 57 37 95t94 38t96 -38t39 -95zM303 1378q0 -56 -39 -94.5t-96 -38.5t-96 38.5t-39 94.5q0 57 39 95t96 38t96 -38t39 -95z" />
    <glyph glyph-name="eth" unicode="&#xf0;" 
 />
    <glyph glyph-name="ntilde" unicode="&#xf1;" horiz-adv-x="1126" 
d="M207 948l-141 -30l12 59l129 33q179 48 338 114q-29 -121 -70 -403l-22 -164q39 89 87.5 175t112 171.5t138.5 138t147 52.5q65 0 94 -34.5t29 -123.5q0 -16 -3 -38t-8 -57t-8 -55l-61 -454q-8 -48 -8 -94q0 -50 14.5 -68t51 -5t100.5 62l24 -41q-87 -77 -187.5 -140.5
t-172.5 -63.5q-47 0 -75.5 27.5t-38 78t-8.5 103.5t9 120l62 475q11 81 -25 60l-4 -2q-42 -26 -118.5 -150t-117.5 -250l-149 -440l-248 -35zM1114 1530q-69 -285 -266 -285q-51 0 -156.5 51.5t-150.5 51.5q-33 0 -54 -23.5t-45 -81.5h-106q64 279 260 279q50 0 108 -26
t111 -51.5t90 -25.5q32 0 53 25t48 86h108z" />
    <glyph glyph-name="ograve" unicode="&#xf2;" horiz-adv-x="1003" 
d="M686 1094q143 0 231.5 -100.5t88.5 -276.5q0 -139 -53.5 -273.5t-141 -235.5t-207 -163.5t-244.5 -62.5q-146 0 -230.5 107.5t-84.5 275.5q0 138 52.5 271.5t139 234t205.5 162t244 61.5zM350 332q0 -126 35 -173.5t96 -52.5q41 -2 70 37.5t61 157.5q86 293 86 442
q0 66 -10 111.5t-29.5 69t-40.5 33t-49 12.5q-43 3 -72 -36t-63 -159q-84 -298 -84 -442zM811 1245h-152l-184 119q-138 88 -177.5 123.5t-39.5 79.5q0 39 27.5 66.5t66.5 27.5q44 0 81.5 -29.5t123.5 -119.5q23 -24 35 -37z" />
    <glyph glyph-name="oacute" unicode="&#xf3;" horiz-adv-x="1003" 
d="M686 1094q143 0 231.5 -100.5t88.5 -276.5q0 -139 -53.5 -273.5t-141 -235.5t-207 -163.5t-244.5 -62.5q-146 0 -230.5 107.5t-84.5 275.5q0 138 52.5 271.5t139 234t205.5 162t244 61.5zM350 332q0 -126 35 -173.5t96 -52.5q41 -2 70 37.5t61 157.5q86 293 86 442
q0 66 -10 111.5t-29.5 69t-40.5 33t-49 12.5q-43 3 -72 -36t-63 -159q-84 -298 -84 -442zM1176 1567q0 -44 -39.5 -80t-175.5 -123l-189 -119h-145l215 230q14 15 36.5 38.5t32.5 34t27 28t25 24.5t21 19t20.5 16.5t18.5 11t19.5 8.5t18 4t20.5 2q41 0 68 -27t27 -67z" />
    <glyph glyph-name="ocircumflex" unicode="&#xf4;" horiz-adv-x="1003" 
d="M686 1094q143 0 231.5 -100.5t88.5 -276.5q0 -139 -53.5 -273.5t-141 -235.5t-207 -163.5t-244.5 -62.5q-146 0 -230.5 107.5t-84.5 275.5q0 138 52.5 271.5t139 234t205.5 162t244 61.5zM350 332q0 -126 35 -173.5t96 -52.5q41 -2 70 37.5t61 157.5q86 293 86 442
q0 66 -10 111.5t-29.5 69t-40.5 33t-49 12.5q-43 3 -72 -36t-63 -159q-84 -298 -84 -442zM1096 1245h-140l-235 211l-240 -211h-137l295 402h164z" />
    <glyph glyph-name="otilde" unicode="&#xf5;" horiz-adv-x="1003" 
d="M686 1094q143 0 231.5 -100.5t88.5 -276.5q0 -139 -53.5 -273.5t-141 -235.5t-207 -163.5t-244.5 -62.5q-146 0 -230.5 107.5t-84.5 275.5q0 138 52.5 271.5t139 234t205.5 162t244 61.5zM350 332q0 -126 35 -173.5t96 -52.5q41 -2 70 37.5t61 157.5q86 293 86 442
q0 66 -10 111.5t-29.5 69t-40.5 33t-49 12.5q-43 3 -72 -36t-63 -159q-84 -298 -84 -442zM1122 1530q-69 -285 -266 -285q-51 0 -156 51.5t-149 51.5q-34 0 -54.5 -23.5t-43.5 -81.5h-109q67 279 260 279q50 0 108.5 -26t111 -51.5t89.5 -25.5q32 0 53 25t48 86h108z" />
    <glyph glyph-name="odieresis" unicode="&#xf6;" horiz-adv-x="1003" 
d="M686 1094q143 0 231.5 -100.5t88.5 -276.5q0 -139 -53.5 -273.5t-141 -235.5t-207 -163.5t-244.5 -62.5q-146 0 -230.5 107.5t-84.5 275.5q0 138 52.5 271.5t139 234t205.5 162t244 61.5zM350 332q0 -126 35 -173.5t96 -52.5q41 -2 70 37.5t61 157.5q86 293 86 442
q0 66 -10 111.5t-29.5 69t-40.5 33t-49 12.5q-43 3 -72 -36t-63 -159q-84 -298 -84 -442zM1042 1378q0 -56 -38 -94.5t-95 -38.5t-96 38.5t-39 94.5q0 57 39 95t96 38t95 -38t38 -95zM610 1378q0 -56 -37.5 -94.5t-93.5 -38.5q-57 0 -96 38.5t-39 94.5q0 57 39 95t96 38
t94 -38t37 -95z" />
    <glyph glyph-name="divide" unicode="&#xf7;" 
 />
    <glyph glyph-name="oslash" unicode="&#xf8;" horiz-adv-x="1003" 
d="M352 389l338 442q-11 73 -42.5 103t-78.5 35q-43 3 -72 -36t-63 -159q-66 -228 -82 -385zM694 684l-338 -440q22 -131 125 -138q39 -3 68 37t63 158q67 232 82 383zM922 987q84 -101 84 -270q0 -139 -53.5 -273.5t-141 -235.5t-207 -163.5t-244.5 -62.5q-91 0 -167 45
l-35 -45h-113l84 108q-84 107 -84 275q0 138 52.5 271.5t139 234t205.5 162t244 61.5q100 0 168 -47l39 47h113z" />
    <glyph glyph-name="ugrave" unicode="&#xf9;" horiz-adv-x="1130" 
d="M733 537l-53 -131q-166 -424 -348 -424q-86 0 -133.5 55.5t-56 152.5t4.5 228l60 530l-141 -30l12 59l129 33q179 48 338 114q-30 -125 -70 -403l-43 -291q0 -1 -2 -17t-3.5 -31t-3.5 -38t-2.5 -42.5t0 -38.5t3.5 -32t8 -18q11 -20 45 -12q48 20 117.5 175.5t89.5 225.5
l100 330q1 5 12 47t13 59l272 47l-96 -753q-8 -48 -8 -94q0 -50 14.5 -68t51 -5t100.5 62l24 -41q-87 -77 -187.5 -140.5t-172.5 -63.5q-47 0 -76.5 28t-39.5 77t-9 104.5t12 119.5zM823 1243h-151l-185 119q-136 86 -176.5 122.5t-40.5 80.5q0 39 28 66.5t67 27.5
q11 0 21 -2t18.5 -4t19 -9t18 -11.5t21 -16.5t21.5 -19t25 -24.5t27 -28t32 -34t36 -37.5z" />
    <glyph glyph-name="uacute" unicode="&#xfa;" horiz-adv-x="1130" 
d="M733 537l-53 -131q-166 -424 -348 -424q-86 0 -133.5 55.5t-56 152.5t4.5 228l60 530l-141 -30l12 59l129 33q179 48 338 114q-30 -125 -70 -403l-43 -291q0 -1 -2 -17t-3.5 -31t-3.5 -38t-2.5 -42.5t0 -38.5t3.5 -32t8 -18q11 -20 45 -12q48 20 117.5 175.5t89.5 225.5
l100 330q1 5 12 47t13 59l272 47l-96 -753q-8 -48 -8 -94q0 -50 14.5 -68t51 -5t100.5 62l24 -41q-87 -77 -187.5 -140.5t-172.5 -63.5q-47 0 -76.5 28t-39.5 77t-9 104.5t12 119.5zM1190 1567q0 -45 -40 -82t-175 -121l-189 -119h-145l213 230q6 6 16 17
q98 104 138.5 136.5t85.5 32.5q41 0 68.5 -27t27.5 -67z" />
    <glyph glyph-name="ucircumflex" unicode="&#xfb;" horiz-adv-x="1130" 
d="M733 537l-53 -131q-166 -424 -348 -424q-86 0 -133.5 55.5t-56 152.5t4.5 228l60 530l-141 -30l12 59l129 33q179 48 338 114q-30 -125 -70 -403l-43 -291q0 -1 -2 -17t-3.5 -31t-3.5 -38t-2.5 -42.5t0 -38.5t3.5 -32t8 -18q11 -20 45 -12q48 20 117.5 175.5t89.5 225.5
l100 330q1 5 12 47t13 59l272 47l-96 -753q-8 -48 -8 -94q0 -50 14.5 -68t51 -5t100.5 62l24 -41q-87 -77 -187.5 -140.5t-172.5 -63.5q-47 0 -76.5 28t-39.5 77t-9 104.5t12 119.5zM1067 1245h-141l-238 211l-239 -211h-134l291 402h164z" />
    <glyph glyph-name="udieresis" unicode="&#xfc;" horiz-adv-x="1130" 
d="M733 537l-53 -131q-166 -424 -348 -424q-86 0 -133.5 55.5t-56 152.5t4.5 228l60 530l-141 -30l12 59l129 33q179 48 338 114q-30 -125 -70 -403l-43 -291q0 -1 -2 -17t-3.5 -31t-3.5 -38t-2.5 -42.5t0 -38.5t3.5 -32t8 -18q11 -20 45 -12q48 20 117.5 175.5t89.5 225.5
l100 330q1 5 12 47t13 59l272 47l-96 -753q-8 -48 -8 -94q0 -50 14.5 -68t51 -5t100.5 62l24 -41q-87 -77 -187.5 -140.5t-172.5 -63.5q-47 0 -76.5 28t-39.5 77t-9 104.5t12 119.5zM1077 1378q0 -56 -38.5 -94.5t-94.5 -38.5q-57 0 -95 38.5t-38 94.5q0 57 38 95t95 38
q56 0 94.5 -38t38.5 -95zM647 1378q0 -56 -39 -94.5t-96 -38.5q-56 0 -93.5 38.5t-37.5 94.5q0 57 37 95t94 38t96 -38t39 -95z" />
    <glyph glyph-name="yacute" unicode="&#xfd;" 
 />
    <glyph glyph-name="thorn" unicode="&#xfe;" 
 />
    <glyph glyph-name="ydieresis" unicode="&#xff;" horiz-adv-x="1126" 
d="M680 406q-17 -46 -36 -90t-54 -108.5t-71 -111t-86 -80.5t-101 -34q-86 0 -133.5 55.5t-56 152.5t4.5 228l60 530l-141 -30l12 59l129 33q179 48 338 114q-30 -125 -70 -403l-43 -291q0 -1 -2 -17t-3.5 -31t-3.5 -38t-2.5 -42.5t0 -38.5t3.5 -32t8 -18q11 -20 45 -12
q48 20 117.5 175.5t89.5 225.5l100 330q1 5 12 47t13 59l272 47l-94 -766q-12 -93 -25 -157t-40 -135.5t-66.5 -126.5t-103.5 -112.5t-152 -109.5q-203 -121 -471 -26q28 106 41 194q57 -22 127 -36.5t145 -17t117 23.5q81 46 113 282q1 9 2 13l61 440zM1057 1378
q0 -56 -39 -94.5t-96 -38.5t-95.5 38.5t-38.5 94.5q0 57 38.5 95t95.5 38t96 -38t39 -95zM625 1378q0 -56 -38 -94.5t-95 -38.5t-96.5 38.5t-39.5 94.5q0 57 39.5 95t96.5 38t95 -38t38 -95z" />
    <glyph glyph-name="dotlessi" unicode="&#x131;" horiz-adv-x="600" 
d="M545 1124q-30 -125 -70 -403l-55 -389q-8 -48 -8 -94q0 -50 14.5 -68t51 -5t100.5 62l24 -41q-87 -77 -187.5 -140.5t-172.5 -63.5q-38 0 -63 19.5t-37 49.5t-16 76t-1.5 87.5t8.5 96.5l74 637l-141 -30l12 59l129 33q179 48 338 114z" />
    <glyph glyph-name="OE" unicode="&#x152;" horiz-adv-x="2340" 
d="M2347 422l-41 -422h-1040v80q-192 -133 -443 -133q-221 0 -396.5 102t-272.5 279.5t-97 396.5q0 162 57 304.5t157 246t243.5 163.5t308.5 60q254 0 443 -131l-2 80h1009l17 -365h-49q-26 110 -68.5 141t-157.5 31h-413v-405h227q84 0 123.5 26t58.5 93h39
q-6 -127 -6 -207l6 -213h-39q-19 65 -58.5 90t-123.5 25h-227v-474h397q82 0 127 7t80.5 33t53.5 69.5t36 122.5h51zM1233 762q-23 149 -71 256.5t-113 165.5t-135 83t-148 21q-89 -4 -163.5 -50t-124.5 -123t-70 -187t-2 -236q17 -119 53.5 -213t82.5 -152.5t102.5 -96.5
t112 -51.5t113.5 -10.5q89 4 164.5 50t126.5 122.5t71 186.5t1 235z" />
    <glyph glyph-name="oe" unicode="&#x153;" horiz-adv-x="1562" 
d="M350 332q0 -126 35 -173.5t96 -52.5q41 -2 70 37.5t61 157.5q86 293 86 442q0 66 -10 111.5t-29.5 69t-40.5 33t-49 12.5q-43 3 -72 -36t-63 -159q-84 -298 -84 -442zM1311 834q0 40 -30.5 67t-64 34.5t-53.5 0.5q-30 -9 -64.5 -74.5t-60 -146t-42 -143t-19.5 -83.5
q149 61 241.5 152.5t92.5 192.5zM956 934q94 76 199 118t201 42q98 0 160.5 -51t62.5 -136q0 -132 -101 -239.5t-264 -178.5q-89 -38 -136 -53.5t-113 -29.5q0 -120 41.5 -197.5t130.5 -77.5q72 0 144.5 52.5t174.5 162.5l39 -24q-100 -163 -228 -251.5t-266 -88.5
q-82 0 -152 38.5t-116 108.5q-170 -147 -373 -147q-146 0 -230.5 107.5t-84.5 275.5q0 138 52.5 271.5t139 234t205.5 162t244 61.5q91 0 160.5 -41t109.5 -119z" />
    <glyph glyph-name="Scaron" unicode="&#x160;" 
 />
    <glyph glyph-name="scaron" unicode="&#x161;" 
 />
    <glyph glyph-name="Ydieresis" unicode="&#x178;" horiz-adv-x="1298" 
d="M1182 1919q0 -44 -40.5 -82t-172.5 -121l-189 -117h-145l213 228q114 122 142 146q49 42 97 42q41 0 68 -28t27 -68zM1331 1411q-52 -4 -79.5 -31.5t-65.5 -105.5l-352 -758v-350q0 -71 22 -96.5t90 -34.5v-35q-171 10 -280 10q-47 0 -116.5 -2.5t-115.5 -5.5l-45 -2v35
q67 9 89 34.5t22 96.5v350l-340 758q-35 77 -64.5 104t-93.5 33v37q177 -10 283 -10q50 0 125.5 2.5t125.5 5.5l50 2v-37q-71 -6 -89 -37t9 -92l227 -516l217 487q34 73 16 112t-98 46v37q117 -10 226 -10q48 0 107.5 2.5t94.5 5.5l35 2v-37z" />
    <glyph glyph-name="florin" unicode="&#x192;" horiz-adv-x="1091" 
d="M1059 1124q-35 -146 -72 -403l-55 -389q0 -3 -4 -37.5t-4 -56.5q0 -50 15 -68t51.5 -5t99.5 62l26 -41q-88 -77 -188 -140.5t-174 -63.5q-46 0 -73.5 27.5t-36 78.5t-8 102.5t8.5 120.5l76 650h-213l-100 -687q-23 -148 -69 -366t-67 -268l-143 -23q-8 49 -15 141
t-8.5 215t11.5 226l96 762h-139l16 94q2 0 17 0.5t19 1t18 1.5t19.5 2.5t17 3.5t18 6t15 8.5t15 11t11.5 14.5q16 31 5.5 136.5t2.5 158.5q22 78 85 134.5t141 81.5t163 25q39 0 104 -10l-24 -182q-3 0 -45.5 2t-73.5 2q-121 0 -155 -27.5t-3 -93.5q47 -94 64.5 -149
t17.5 -111h203q139 0 209 12t125 41zM975 1567q53 0 91 -42t38 -108q0 -96 -54.5 -166.5t-140.5 -70.5q-54 0 -93.5 41.5t-39.5 107.5q0 96 55.5 167t143.5 71z" />
    <glyph glyph-name="circumflex" unicode="&#x2c6;" horiz-adv-x="839" 
d="M809 1599h-141l-238 211l-240 -211h-133l291 400h164z" />
    <glyph glyph-name="ring" unicode="&#x2da;" horiz-adv-x="583" 
d="M528 1483q0 -100 -68.5 -169t-166.5 -69t-167 69t-69 169q0 98 69 166.5t167 68.5t166.5 -68.5t68.5 -166.5zM408 1483q0 45 -34.5 78.5t-80.5 33.5t-80.5 -33.5t-34.5 -78.5q0 -47 34.5 -81t80.5 -34t80.5 34t34.5 81z" />
    <glyph glyph-name="tilde" unicode="&#x2dc;" horiz-adv-x="866" 
d="M834 1882q-69 -283 -265 -283q-51 0 -158 51.5t-151 51.5q-32 0 -53.5 -25t-42.5 -82h-107q60 279 260 279q49 0 107 -25t111 -50t90 -25q31 0 51 23t51 85h107z" />
    <glyph glyph-name="endash" unicode="&#x2013;" horiz-adv-x="1284" 
d="M1264 754l-33 -293h-983q-70 0 -98 -18.5t-60 -86.5h-33l33 295h983q71 0 99.5 18t58.5 85h33z" />
    <glyph glyph-name="emdash" unicode="&#x2014;" horiz-adv-x="1703" 
d="M1696 754l-35 -293h-1413q-70 0 -98 -18.5t-60 -86.5h-33l33 295h1413q72 0 99.5 18t58.5 85h35z" />
    <glyph glyph-name="quoteleft" unicode="&#x2018;" horiz-adv-x="317" 
d="M322 1008q-126 40 -195.5 154t-69.5 286q95 -11 213 0q-17 -97 -6.5 -209.5t58.5 -230.5z" />
    <glyph glyph-name="quoteright" unicode="&#x2019;" horiz-adv-x="317" 
d="M270 1448q0 -172 -69 -286t-195 -154q47 117 57.5 230t-6.5 210q116 -11 213 0z" />
    <glyph glyph-name="quotesinglbase" unicode="&#x201a;" 
 />
    <glyph glyph-name="quotedblleft" unicode="&#x201c;" horiz-adv-x="600" 
d="M610 1008q-126 40 -195 154t-69 286q99 -11 217 0q-18 -98 -8.5 -210t55.5 -230zM322 1008q-126 40 -195.5 154t-69.5 286q95 -11 213 0q-17 -97 -6.5 -209.5t58.5 -230.5z" />
    <glyph glyph-name="quotedblright" unicode="&#x201d;" horiz-adv-x="600" 
d="M563 1448q0 -172 -69 -286t-195 -154q44 118 53.5 230t-6.5 210q118 -11 217 0zM270 1448q0 -172 -69 -286t-195 -154q47 117 57.5 230t-6.5 210q116 -11 213 0z" />
    <glyph glyph-name="quotedblbase" unicode="&#x201e;" 
 />
    <glyph glyph-name="dagger" unicode="&#x2020;" 
 />
    <glyph glyph-name="daggerdbl" unicode="&#x2021;" horiz-adv-x="677" 
d="M645 1167l-117 -311q-87 -237 -111 -337.5t-24 -203.5h-209q0 105 53.5 243.5t143.5 268.5l123 181h-256q-60 0 -86.5 -7.5t-41.5 -30t-28 -77.5h-35l17 104q18 128 18 150v20h553z" />
    <glyph glyph-name="bullet" unicode="&#x2022;" horiz-adv-x="489" 
d="M446 649q0 -81 -57 -137.5t-137 -56.5t-137.5 56.5t-57.5 137.5q0 79 57.5 137t137.5 58q79 0 136.5 -57.5t57.5 -137.5z" />
    <glyph glyph-name="ellipsis" unicode="&#x2026;" 
 />
    <glyph glyph-name="perthousand" unicode="&#x2030;" 
 />
    <glyph glyph-name="guilsinglleft" unicode="&#x2039;" horiz-adv-x="651" 
d="M612 604q0 -89 -59.5 -159.5t-157 -108t-213.5 -37.5q-57 0 -94 4l-29 82q85 -5 162 13t132 67t55 121q0 56 -55.5 94t-135.5 43l-72 4l11 78q35 1 70.5 8.5t76.5 24.5t66.5 53.5t25.5 87.5q0 49 -35 76.5t-92 27.5q-43 0 -87 -33t-77 -98h-30q20 108 28 209
q115 39 211 39q127 0 200 -53t73 -137q0 -72 -53.5 -131.5t-137.5 -81.5q93 -8 155 -55.5t62 -137.5z" />
    <glyph glyph-name="guilsinglright" unicode="&#x203a;" horiz-adv-x="712" 
d="M676 504h-103v-189h-180v187h-336v102q38 88 166 262.5t242 300.5h113q-5 -98 -5 -176v-383h103v-104zM393 610v330q-57 -65 -127.5 -166t-99.5 -164h227z" />
    <glyph glyph-name="fraction" unicode="&#x2044;" horiz-adv-x="1331" 
d="M1036 1733q0 -57 -38 -95.5t-95 -38.5t-96 38.5t-39 95.5t39 95t96 38t95 -38t38 -95zM604 1733q0 -57 -37 -95.5t-94 -38.5t-96 38.5t-39 95.5t39 95t96 38t94 -38t37 -95zM1331 1411q-52 -4 -79.5 -31.5t-65.5 -105.5l-352 -758v-350q0 -71 22 -96.5t90 -34.5v-35
q-171 10 -280 10q-47 0 -116.5 -2.5t-115.5 -5.5l-45 -2v35q67 9 89 34.5t22 96.5v350l-340 758q-35 77 -64.5 104t-93.5 33v37q177 -10 283 -10q50 0 125.5 2.5t125.5 5.5l50 2v-37q-71 -6 -89 -37t9 -92l227 -516l217 487q34 73 16 112t-98 46v37q117 -10 226 -10
q48 0 107.5 2.5t94.5 5.5l35 2v-37z" />
    <glyph glyph-name="trademark" unicode="&#x2122;" horiz-adv-x="1609" 
d="M1595 731q-88 6 -141 6l-147 -6v19q44 5 58 21.5t11 66.5l-28 444l-195 -551h-90l-209 553l-16 -475q0 -31 14 -43.5t57 -15.5v-19q-69 4 -112 4l-127 -4v19q39 3 51.5 15t13.5 50l31 543q3 46 -5.5 60t-41.5 20v16q78 -4 127 -4l102 6l191 -495l180 495q70 -6 113 -6
l112 4v-16q-31 -9 -39 -22.5t-6 -49.5l39 -545q3 -43 13.5 -55.5t43.5 -15.5v-19zM688 1235h-18q-8 31 -14 51t-16.5 34.5t-16.5 21t-25 10.5t-29 4h-41h-22h-49v-541q0 -37 15.5 -48.5t62.5 -16.5v-19q-109 6 -162 6l-160 -6v19q46 5 61 16.5t15 48.5v541h-49q-79 0 -96 -5
q-32 -10 -50 -57q-9 -22 -18 -59h-19q17 116 17 213h598q0 -104 16 -213z" />
    <glyph glyph-name="partialdiff" unicode="&#x2202;" horiz-adv-x="1185" 
d="M731 961h-223l-121 -826q-9 -63 -18.5 -109.5t-32 -111t-52 -111.5t-79.5 -92t-115 -71q-77 -33 -158 -27q-6 24 -18 78q36 16 61.5 31.5t42.5 35.5t27.5 35.5t17.5 43.5t10 46.5t8 57.5q1 5 1 8l131 1012h-139l16 94q6 0 26.5 0.5t30.5 1t27.5 3t27.5 7.5t21 14.5
t17 22.5q9 22 13.5 75t20.5 97q43 118 146.5 180t236.5 62q102 0 220 -76q150 200 366 200q68 0 107 -18l-25 -182q-60 12 -111 12q-28 0 -43 -2.5t-31.5 -16.5t-25.5 -34.5t-22 -68.5t-23 -105t-27 -156h201l-20 -110h-195l-123 -826q-10 -68 -29 -122.5t-53.5 -106.5
t-91 -90.5t-133.5 -61.5q-76 -22 -178 -14q-11 38 -19 78q126 47 163 90.5t52 161.5zM645 1374q-38 0 -57 -19t-34 -82t-32 -202h223l5 33q17 108 6 168t-36.5 81t-74.5 21z" />
    <glyph glyph-name="minus" unicode="&#x2212;" 
 />
    <glyph glyph-name="radical" unicode="&#x221a;" horiz-adv-x="858" 
d="M809 1593l-297 -401h-164l-291 401h133l240 -213l238 213h141z" />
    <glyph glyph-name="infinity" unicode="&#x221e;" horiz-adv-x="1155" 
d="M680 406q-17 -46 -36 -90t-54 -108.5t-71 -111t-86 -80.5t-101 -34q-86 0 -133.5 55.5t-56 152.5t4.5 228l60 530l-141 -30l12 59l129 33q179 48 338 114q-30 -125 -70 -403l-43 -291q0 -1 -2 -17t-3.5 -31t-3.5 -38t-2.5 -42.5t0 -38.5t3.5 -32t8 -18q11 -20 45 -12
q48 20 117.5 175.5t89.5 225.5l100 330q1 5 12 47t13 59l272 47l-94 -766q-12 -93 -25 -157t-40 -135.5t-66.5 -126.5t-103.5 -112.5t-152 -109.5q-203 -121 -471 -26q28 106 41 194q57 -22 127 -36.5t145 -17t117 23.5q81 46 113 282q1 9 2 13l61 440zM1190 1567
q0 -45 -40 -82t-175 -121l-189 -119h-145l213 230q6 6 16 17q98 104 138.5 136.5t85.5 32.5q41 0 68.5 -27t27.5 -67z" />
    <glyph glyph-name="notequal" unicode="&#x2260;" horiz-adv-x="665" 
d="M610 555q0 -98 -70 -157.5t-173 -69.5v-131h-84v131q-105 5 -207 37q1 29 -1 83.5t-5 93.5l-2 40h18q18 -82 69 -124t148 -42q68 0 111 25.5t43 74.5q0 29 -22 49t-57.5 32t-78 23t-85 26t-78 36.5t-57.5 60.5t-22 91q0 85 63 141t163 67v115h84v-113q111 -3 194 -36
l8 -195h-14q-28 73 -75.5 108t-131.5 35q-70 0 -105.5 -24t-35.5 -66q0 -32 30 -54.5t74.5 -34t97 -29t97 -37.5t74.5 -60t30 -96z" />
    <glyph glyph-name="fi" unicode="&#xfb01;" horiz-adv-x="608" 
d="M557 678q0 -100 -66 -186.5t-175 -137.5t-234 -55l-25 84q129 12 216 90.5t87 177.5q0 63 -47.5 101.5t-117.5 38.5q-67 0 -134 -31l29 407h447l-17 -151h-340l-16 -162q22 12 65.5 22.5t75.5 10.5q107 0 179.5 -60t72.5 -149z" />
    <glyph glyph-name="fl" unicode="&#xfb02;" horiz-adv-x="753" 
d="M700 627q0 -141 -95 -234.5t-232 -93.5q-146 0 -231 89.5t-85 234.5q0 160 97 295q63 89 157.5 167t182.5 115l20 -39q-83 -76 -135.5 -148.5t-93.5 -168.5q71 51 157 51q100 0 179 -74.5t79 -193.5zM506 600q0 84 -39 127t-92 43q-55 0 -95 -51.5t-40 -145.5
q0 -82 38 -124.5t89 -42.5q57 0 98 51t41 143z" />
    </font>
</defs>
</svg>
