<?xml version="1.0" standalone="no"?>
<!DOCTYPE svg PUBLIC "-//W3C//DTD SVG 1.1//EN" "http://www.w3.org/Graphics/SVG/1.1/DTD/svg11.dtd" >
<svg xmlns="http://www.w3.org/2000/svg" xmlns:xlink="http://www.w3.org/1999/xlink" version="1.1">
<metadata>
Created by FontForge 20201107 at Mon Apr  1 15:02:32 2024
 By 
Copyright (C) 2023 by UICreative. All Right Reserved
</metadata>
<defs>
<font id="Holispay" horiz-adv-x="993" >
  <font-face 
    font-family="Holispay"
    font-weight="400"
    font-stretch="normal"
    units-per-em="2048"
    panose-1="0 0 0 0 0 0 0 0 0 0"
    ascent="1638"
    descent="-410"
    x-height="947"
    cap-height="1292"
    bbox="-403 -389 2067 1640"
    underline-thickness="0"
    underline-position="0"
    unicode-range="U+000A-20AC"
  />
<missing-glyph horiz-adv-x="1079" 
d="M565 717l371 -621v1239zM541 674l-379 -631h758zM514 717l-369 614v-1231zM160 1393l379 -633l381 633h-760zM102 1434h875v-1434h-875v1434z" />
    <glyph glyph-name=".notdef" horiz-adv-x="1079" 
d="M565 717l371 -621v1239zM541 674l-379 -631h758zM514 717l-369 614v-1231zM160 1393l379 -633l381 633h-760zM102 1434h875v-1434h-875v1434z" />
    <glyph glyph-name=".null" horiz-adv-x="0" 
 />
    <glyph glyph-name=".null" horiz-adv-x="0" 
 />
    <glyph glyph-name="nonmarkingreturn" horiz-adv-x="682" 
 />
    <glyph glyph-name="controlLF" unicode="&#xa;" horiz-adv-x="0" 
 />
    <glyph glyph-name="controlCR" unicode="&#xd;" horiz-adv-x="0" 
 />
    <glyph glyph-name="space" unicode=" " horiz-adv-x="563" 
 />
    <glyph glyph-name="exclam" unicode="!" horiz-adv-x="481" 
d="M249 261q49 0 87 -38.5t38 -89.5q0 -60 -37 -96.5t-93 -36.5q-53 0 -92 39.5t-39 93.5q0 50 42 89t94 39zM257 328l-26 1q-7 38 -38.5 205.5t-49.5 268.5t-35.5 221t-17.5 168q0 70 43 110.5t116 40.5q57 0 99 -33.5t42 -117.5q0 -110 -50 -411t-83 -453z" />
    <glyph glyph-name="quotedbl" unicode="&#x22;" horiz-adv-x="610" 
d="M500 1394q19 0 31.5 -12.5t12.5 -31.5v-149q0 -24 -10 -43l-67 -133l-46 -1l-63 136q-10 22 -10 40v150q0 19 13 31.5t32 12.5h107zM217 1394q19 0 31.5 -12.5t12.5 -31.5v-149q0 -24 -10 -43l-67 -133l-46 -1l-63 136q-9 19 -9 40v150q0 19 12.5 31.5t31.5 12.5h107z
" />
    <glyph glyph-name="numbersign" unicode="#" horiz-adv-x="1103" 
d="M471 664l-53 -191h198l53 191h-198zM72 374l27 99h180l53 191h-180l26 99h180l101 367h138l-101 -367h201l99 367h140l-104 -367h199l-28 -99h-196l-53 -191h201l-28 -99h-198l-102 -374h-136l99 374h-200l-99 -374h-139l102 374h-182z" />
    <glyph glyph-name="dollar" unicode="$" horiz-adv-x="1112" 
d="M530 1279q-74 0 -125.5 -39t-50.5 -107q1 -58 39 -112t97 -99t130.5 -90.5t142.5 -93.5t129.5 -99t95 -117t36.5 -139q0 -163 -113.5 -267.5t-300.5 -115.5v-154h-104v154q-224 13 -414 101v366h35q10 -17 27 -45t68.5 -99t101.5 -126t117.5 -99.5t124.5 -44.5
q64 0 119.5 38t55.5 107q0 57 -35 110.5t-90.5 96.5t-123 86.5t-134.5 90t-122.5 96.5t-90.5 116t-35 140q0 91 33.5 166t89.5 123t126.5 75.5t146.5 30.5v126h104v-127q97 -5 185 -21t127 -29l40 -14v-415h-38q-31 68 -59 120.5t-68 114t-78.5 101.5t-88 67t-100.5 27z" />
    <glyph glyph-name="percent" unicode="%" horiz-adv-x="1286" 
d="M338 1270q-35 0 -61.5 -77t-26.5 -184q0 -108 26 -184.5t62 -76.5q35 0 60.5 76t25.5 185t-25.5 185t-60.5 76zM336 728q-110 0 -188 82t-78 197q0 117 78.5 201t187.5 84q106 0 184.5 -84.5t78.5 -200.5q0 -115 -78.5 -197t-184.5 -82zM955 542q-36 0 -62 -76.5
t-26 -184.5t26 -184.5t62 -76.5q35 0 60.5 76t25.5 185t-25.5 185t-60.5 76zM953 0q-110 0 -188 82t-78 197q0 118 78 201.5t188 83.5q106 0 184.5 -84t78.5 -201q0 -115 -78.5 -197t-184.5 -82zM433 0h-183l587 1292h183z" />
    <glyph glyph-name="ampersand" unicode="&#x26;" horiz-adv-x="1392" 
d="M345 237q39 -66 100.5 -106t123.5 -50t121.5 -6t100.5 18t55 29l-419 519q-9 -7 -22.5 -20.5t-43 -56.5t-45.5 -88t-12 -110.5t41 -128.5zM623 1176q-54 0 -83.5 -48t-29.5 -112q0 -99 95 -232q4 -5 5 -7q5 2 13 6.5t29 23t37.5 42.5t29.5 67t13 94q0 38 -10 74t-36 64
t-63 28zM1033 265q14 -20 38 -50.5t83 -91.5t101 -84l34 -25v-24h-129q-56 0 -88 1.5t-77.5 13t-70.5 33.5l-39 39q-31 -26 -55 -41.5t-70.5 -36t-114.5 -30.5t-158 -10q-154 0 -258.5 60t-137.5 164q-17 53 -17.5 103.5t14 92t36.5 79t53.5 68t61 55t63 44t56 31t42.5 19.5
q-5 7 -29 41t-33 50.5t-24.5 48.5t-21.5 64.5t-6 70.5q0 70 27 124t72.5 85.5t100 47.5t115.5 16q74 0 130 -23t84.5 -59t42 -72.5t13.5 -72.5q0 -38 -12.5 -73t-33 -60t-45 -46.5t-49 -35.5t-45 -23.5t-32.5 -13.5l-13 -5l346 -427q8 11 20 32t37.5 84t37.5 125l58 -11
q-11 -69 -38 -138.5t-48 -103.5z" />
    <glyph glyph-name="quotesingle" unicode="'" horiz-adv-x="327" 
d="M217 1394q19 0 31.5 -12.5t12.5 -31.5v-149q0 -24 -10 -43l-67 -133l-46 -1l-63 136q-9 19 -9 40v150q0 19 12.5 31.5t31.5 12.5h107z" />
    <glyph glyph-name="parenleft" unicode="(" horiz-adv-x="495" 
d="M104 401q0 13 -1 31t-1 33q-2 18 -2 31v61q0 9 -2 29v112q2 22 2 31v30q0 110 10 201l7 70q10 61 17.5 93.5t23.5 81t44 90.5t69 85q25 26 44.5 42t74.5 40t125 34v-68l-9 -4q-47 -22 -83 -77t-55 -122.5t-32.5 -144t-15.5 -141.5t-4.5 -114.5t0.5 -62.5l1 -259
q1 -15 1 -46t1 -47q1 -64 9 -127.5t27.5 -143.5t60.5 -152.5t99 -121.5v-70q-32 4 -51.5 7.5t-59.5 17.5t-70.5 34.5t-69.5 60t-71 93.5q-23 40 -38 81.5t-21 72t-16 93.5l-8 72q-4 37 -6 74z" />
    <glyph glyph-name="parenright" unicode=")" horiz-adv-x="495" 
d="M392 463q0 -12 -0.5 -30t-0.5 -31q-1 -38 -6 -75l-8 -71q-12 -78 -22 -120.5t-43 -106.5t-88 -122q-18 -19 -31.5 -30t-43 -30.5t-72.5 -32.5t-97 -19v70q23 19 44.5 44t49.5 72.5t48.5 104t35.5 141t17 181.5q0 15 0.5 31t1.5 35t1 30v255q3 14 0.5 64t-4.5 115
t-15.5 142t-32 144.5t-54.5 122.5t-83 77l-9 4v68q31 -4 51 -8t60 -19t71 -36t70 -61t70 -94q43 -72 63 -180l12 -67l8 -71q9 -88 9 -201v-31q0 -8 2 -28v-113q-2 -24 -2 -30v-61q0 -11 -2 -33z" />
    <glyph glyph-name="asterisk" unicode="*" horiz-adv-x="669" 
d="M535 1164q26 9 46 -12.5t18.5 -51.5t-28.5 -40l-144 -44q-7 -2 -9 -9t3 -12l99 -127q16 -22 -1 -48t-43.5 -30.5t-46.5 17.5l-84 134q-4 6 -11.5 6t-11.5 -6l-87 -129q-20 -22 -46.5 -17.5t-43.5 30.5t-1 48l102 122q5 5 3 12.5t-9 9.5l-141 43q-28 10 -29.5 40
t18.5 51.5t46 12.5l135 -60q7 -3 13 1t6 12l-8 154q0 21 18 32.5t37 11.5t36.5 -12t17.5 -35l-11 -152q-1 -7 5.5 -12t13.5 -2z" />
    <glyph glyph-name="plus" unicode="+" horiz-adv-x="927" 
d="M541 654h326v-81h-326v-369h-155v369h-327v81h327v360h155v-360z" />
    <glyph glyph-name="comma" unicode="," horiz-adv-x="391" 
d="M188 247q60 0 98 -39t38 -109q0 -125 -105 -222l-19 13q9 12 16 30.5t8.5 36.5t-7.5 30.5t-29 12.5q-53 0 -87.5 33t-34.5 87q0 52 35 89.5t87 37.5z" />
    <glyph glyph-name="hyphen" unicode="-" horiz-adv-x="571" 
d="M513 512h-456v130h456v-130z" />
    <glyph glyph-name="period" unicode="." horiz-adv-x="385" 
d="M193 250q50 0 88 -35.5t38 -86.5q0 -49 -37.5 -88.5t-88.5 -39.5q-57 0 -92 39.5t-35 88.5q0 52 37 87t90 35z" />
    <glyph glyph-name="slash" unicode="/" horiz-adv-x="901" 
d="M243 0h-220l554 1291h221z" />
    <glyph glyph-name="zero" unicode="0" horiz-adv-x="1191" 
d="M792 648q0 132 -17 249t-44.5 195t-62 123t-69.5 45q-53 0 -98 -82t-71 -223t-26 -307t26 -307.5t71 -223.5t98 -82q35 0 69.5 45t62 123.5t44.5 195.5t17 249zM1106 648q0 -175 -68 -324t-185 -235.5t-254 -86.5q-104 0 -199 51.5t-164 138t-109.5 206t-40.5 250.5
q0 175 68.5 323.5t187 235t257.5 86.5q137 0 254 -86.5t185 -235t68 -323.5z" />
    <glyph glyph-name="one" unicode="1" horiz-adv-x="577" 
d="M473 2h-288v1012q0 32 -11 53.5t-26 29.5t-30.5 11.5t-26.5 1.5l-11 -1v47l393 137v-1291z" />
    <glyph glyph-name="two" unicode="2" horiz-adv-x="1048" 
d="M915 2h-854l1 28q156 131 303 267q173 161 248 337t7 334q-28 66 -91.5 106t-136 45.5t-147.5 -31.5t-123 -114l-26 11q3 6 8.5 17.5t26 43.5t44 61t62.5 64.5t82 61t102 43t122 17.5q167 0 272.5 -74.5t135.5 -213.5q13 -63 3.5 -124t-36.5 -118t-65.5 -109.5t-85 -99
t-93 -86t-90.5 -71t-78 -53.5t-54 -34l-21 -11h484v-297z" />
    <glyph glyph-name="three" unicode="3" horiz-adv-x="1013" 
d="M115 1003q28 46 49 77t61 76t79.5 72t98 47t123.5 20q36 0 71.5 -7t72.5 -25t67 -45t52.5 -71t30.5 -99q13 -92 -36.5 -190t-139.5 -145q53 -7 103 -29.5t93 -60.5t68 -99t23 -136q-3 -117 -67.5 -209t-172 -141.5t-237.5 -49.5q-93 0 -199.5 41.5t-191.5 108.5l32 31
q16 -12 45.5 -23.5t70.5 -18.5t85.5 -7t90.5 14.5t85.5 41.5t70.5 78t45 120q23 114 -11.5 191t-123.5 102q-10 3 -12 11.5t6 15.5q55 48 82 116t23 124.5t-30 84.5q-46 49 -103 67t-109 6t-95.5 -38t-72.5 -61z" />
    <glyph glyph-name="four" unicode="4" horiz-adv-x="1095" 
d="M549 887l-311 -408h311v408zM841 2h-292v240h-500v38l759 1013h33l2 -813l177 -1v-237h-179v-240z" />
    <glyph glyph-name="five" unicode="5" horiz-adv-x="937" 
d="M335 871q283 0 423 -159q105 -120 97 -290q-9 -159 -113 -279q-119 -139 -306 -153q-18 -1 -37 -1q-79 0 -179 28t-154 83l18 30q136 -73 236.5 -37.5t158.5 140.5t62 243q5 169 -88 271q-29 32 -92 46.5t-119 24t-71 30.5q-26 34 -18 80l63 365h531v-246h-533l-16 -98
q-4 -38 11 -58t126 -20z" />
    <glyph glyph-name="six" unicode="6" horiz-adv-x="997" 
d="M433 773q-46 -12 -50 -132.5t23 -257.5t80.5 -245t108.5 -98q36 7 47 88.5t-5 192t-44 218t-72 176.5t-88 58zM731 1253q-62 -14 -117 -59.5t-90.5 -99.5t-64.5 -118t-42 -105.5t-19 -70.5q29 16 75 21.5t101 0.5t112 -30.5t105.5 -66t83 -112t42.5 -163.5
q9 -98 -21 -183.5t-86.5 -142.5t-132 -89.5t-155.5 -32.5q-105 0 -189.5 39.5t-138 108t-82 156.5t-28.5 189q0 178 83.5 347.5t230 291t322.5 159.5z" />
    <glyph glyph-name="seven" unicode="7" horiz-adv-x="915" 
d="M376 2h-310l477 1243h-477v48h812z" />
    <glyph glyph-name="eight" unicode="8" horiz-adv-x="1069" 
d="M700 831q27 49 40.5 119t9.5 138.5t-41.5 119.5t-105.5 57q-70 7 -113.5 -42.5t-28.5 -112.5q8 -31 27 -63.5t49.5 -64.5t54 -54.5t60 -54t48.5 -42.5zM714 265q-13 65 -66.5 141.5t-103.5 125.5t-124.5 114.5t-87.5 78.5q-45 -88 -69 -186t-22 -191.5t29.5 -169
t93 -121.5t160.5 -46q90 0 149.5 80.5t40.5 173.5zM979 348q-10 -51 -48 -112t-95 -118t-140.5 -95.5t-171.5 -38.5q-113 0 -204.5 40t-146 104.5t-77 147.5t-8.5 166.5t70.5 165.5t150.5 140q-6 5 -15 13.5t-33 35t-42 54t-33 66t-15 74.5q0 74 33.5 134t89.5 97t125 57
t144 20q79 0 153.5 -36t120 -105t34.5 -153q-4 -34 -21.5 -66.5t-39 -54t-42.5 -38.5t-35 -25l-14 -8q31 -26 53 -45t49 -45t45.5 -46.5t39.5 -47t33.5 -50t24.5 -52t16.5 -56t4.5 -59t-6 -64.5z" />
    <glyph glyph-name="nine" unicode="9" horiz-adv-x="997" 
d="M563 522q46 12 50 132.5t-23 257.5t-80.5 245t-108.5 98q-36 -7 -47 -88.5t5 -192t44 -218t72 -176.5t88 -58zM265 42q63 14 119 61t91.5 102t64 119.5t40.5 104t18 66.5q-29 -16 -74.5 -21.5t-101 -0.5t-112 30.5t-105 66t-83 112t-42.5 163.5q-9 98 21 183.5
t86.5 142.5t132 89.5t155.5 32.5q105 0 189.5 -39.5t138 -108t82 -156.5t28.5 -189q0 -175 -81.5 -343.5t-228.5 -291.5t-326 -163z" />
    <glyph glyph-name="colon" unicode=":" horiz-adv-x="409" 
d="M206 686q-57 0 -92.5 39t-35.5 88q0 52 37.5 87.5t90.5 35.5q50 0 87.5 -36t37.5 -87q0 -49 -37 -88t-88 -39zM206 250q50 0 87.5 -35.5t37.5 -86.5q0 -49 -37 -88.5t-88 -39.5q-57 0 -92.5 39.5t-35.5 88.5q0 52 37.5 87t90.5 35z" />
    <glyph glyph-name="semicolon" unicode=";" horiz-adv-x="415" 
d="M208 692q-57 0 -92 39.5t-35 88.5q0 52 37 87t90 35q50 0 88 -35.5t38 -86.5q0 -49 -37.5 -88.5t-88.5 -39.5zM200 247q60 0 98 -39t38 -109q0 -126 -104 -222l-19 13q9 12 16 30.5t8.5 36.5t-8 30.5t-29.5 12.5q-53 0 -87.5 33t-34.5 87q0 52 35 89.5t87 37.5z" />
    <glyph glyph-name="less" unicode="&#x3c;" horiz-adv-x="956" 
d="M876 205l-808 368v146l808 368v-133l-606 -273l606 -279v-197z" />
    <glyph glyph-name="equal" unicode="=" horiz-adv-x="952" 
d="M879 306h-807v155h807v-155zM879 605h-807v155h807v-155z" />
    <glyph glyph-name="greater" unicode="&#x3e;" horiz-adv-x="956" 
d="M80 205v132l605 274l-605 279v197l808 -368v-146z" />
    <glyph glyph-name="question" unicode="?" horiz-adv-x="892" 
d="M449 1329q155 0 264 -89.5t109 -231.5q-1 -64 -26 -122.5t-64.5 -104t-86.5 -89t-94.5 -86.5t-86 -87.5t-63 -100.5t-24.5 -118h-42q0 86 19 167.5t46.5 143t54.5 117t46 111t19 102.5q0 101 -60.5 159t-142.5 58q-67 0 -132 -30t-99 -85l-41 -1q55 129 160 208t244 79z
M356 250q51 0 88 -37t37 -88q0 -50 -36 -87.5t-89 -37.5q-51 0 -88 38t-37 92q0 50 38 85t87 35z" />
    <glyph glyph-name="at" unicode="@" horiz-adv-x="1468" 
d="M591 128v-6q0 -5 -0.5 -11.5t0 -16t1 -18t2.5 -17.5t4.5 -15.5t6.5 -10.5t10 -4q52 0 95.5 62.5t68 149t37.5 161.5t13 115q0 80 -19 105q-12 17 -33 17q-48 0 -94 -115t-69 -232t-23 -164zM1292 -40q-33 -37 -60.5 -64.5t-83 -66.5t-114.5 -64t-149.5 -43.5
t-193.5 -18.5q-121 0 -232.5 45t-194.5 122.5t-132.5 189t-49.5 237.5q0 163 61 298.5t164 224t238 137.5t284 49q107 0 204 -35t176.5 -102.5t127 -180t47.5 -255.5q0 -120 -46 -217t-143 -157.5t-231 -60.5q-73 0 -124 43q-30 25 -68 26t-69 -23q-61 -46 -125 -46
q-76 0 -129.5 43.5t-76.5 107t-23 138.5q0 171 101.5 286.5t263.5 115.5q52 0 89.5 -32.5t51.5 -87.5l28 96h285q0 -1 -12.5 -38t-17.5 -51t-18.5 -56t-20.5 -65t-19.5 -64.5t-19.5 -69t-16 -64.5t-14 -63t-8.5 -53.5t-3.5 -47.5q0 -13 10 -28.5t27 -15.5q113 0 202 113
t89 260q0 150 -63 273t-182 196.5t-272 73.5q-160 0 -295 -57.5t-222.5 -152t-136 -213.5t-48.5 -244q0 -118 48.5 -223t127 -177.5t180.5 -114.5t208 -42q363 0 556 220z" />
    <glyph glyph-name="A" unicode="A" horiz-adv-x="1097" 
d="M403 1005q-88 -215 -115.5 -304t-39.5 -191h337zM1094 28q5 -9 0 -18t-15 -9h-232q-34 0 -62 19t-39 50l-146 400h-356q-12 -147 7 -276t46 -164q6 -8 3.5 -19t-12.5 -11h-262q-8 0 -13.5 5.5t-4.5 13.5q4 36 22 95.5t35.5 105.5t43 109t30.5 75q8 23 39 101v5h2
q279 726 290 754q12 28 42 28h36q30 0 42 -28q45 -112 210.5 -541t197.5 -519q11 -31 30.5 -67t41 -70t24.5 -39z" />
    <glyph glyph-name="B" unicode="B" horiz-adv-x="1110" 
d="M480 34q187 0 275 86t88 241q0 82 -22.5 145.5t-59 99t-81.5 53.5t-91 15.5t-88 -21.5q-3 -1 -56.5 -27.5t-75.5 -37.5v-484q0 -70 33 -70h78zM416 1258q-23 0 -35 -19t-12 -48v-556q100 52 173 83q80 34 139 115t59 174q0 117 -59.5 184t-202.5 67h-62zM646 716
q108 0 202.5 -44t155 -128t60.5 -190q0 -169 -126.5 -261.5t-367.5 -92.5h-478q-13 0 -16 11t7 18q26 20 26 72v1087q0 56 -26 75q-10 7 -7 18t16 11h410q240 0 359.5 -75.5t119.5 -201.5q0 -51 -23 -96t-57 -76t-81.5 -57.5t-88.5 -42t-85 -27.5z" />
    <glyph glyph-name="C" unicode="C" horiz-adv-x="1177" 
d="M51 643q0 193 68 344t203 240t318 89q340 0 486 -308l-232 -72q-33 175 -129.5 270.5t-225.5 67.5q-63 -14 -113.5 -70t-80.5 -137.5t-41.5 -181.5t-3.5 -202t42 -198.5t87.5 -171t138.5 -120t190 -45.5q66 0 127 20t101 48.5t70 57t44 48.5l13 20q24 -18 36 -28
q-24 -44 -53.5 -84.5t-79.5 -89t-106 -83t-135 -55t-166 -15.5q-92 6 -171 35.5t-135 73t-100.5 100t-72.5 115.5t-46.5 121t-25.5 114t-7 97z" />
    <glyph glyph-name="D" unicode="D" horiz-adv-x="1179" 
d="M534 34q76 0 135.5 51t94.5 137t53 190.5t18 219.5q0 171 -26.5 295t-74 194.5t-107 103t-132.5 32.5h-79q-23 0 -35 -18.5t-12 -47.5v-1087q0 -70 33 -70h132zM502 1292q126 0 239 -44.5t200 -125t138 -203.5t51 -270q0 -97 -20.5 -189t-66 -176t-111.5 -146.5
t-164.5 -100t-217.5 -37.5h-458q-13 0 -16 11t7 18q26 20 26 72v1087q0 56 -26 75q-10 7 -7 18t16 11h410z" />
    <glyph glyph-name="E" unicode="E" horiz-adv-x="1021" 
d="M1001 94v-57q0 -15 -10.5 -25.5t-24.5 -10.5h-874q-13 0 -16 10.5t7 18.5q26 20 26 71v1087q0 56 -26 75l-1 1q-1 1 -2.5 3t-2.5 4.5t-1.5 5.5t1 5.5t5.5 5t10 4.5h848q14 0 24.5 -11t10.5 -26v-57q0 -14 -15.5 -17.5t-22.5 9.5q-9 15 -16 24t-27.5 19t-49.5 10h-475
v-558h332q64 0 94 52q7 13 22.5 9.5t15.5 -17.5v-141q0 -14 -15.5 -17.5t-22.5 9.5q-30 53 -94 53h-332v-584h500q64 0 94 53q7 13 22.5 9.5t15.5 -17.5z" />
    <glyph glyph-name="F" unicode="F" horiz-adv-x="946" 
d="M900 1292q14 0 24.5 -11t10.5 -26v-57q0 -14 -15.5 -17.5t-22.5 9.5q-30 53 -94 53h-434v-558h312q64 0 94 52q7 13 22.5 9.5t15.5 -17.5v-141q0 -14 -15.5 -17.5t-22.5 9.5q-30 53 -94 53h-312v-532q0 -53 25 -72q10 -7 7 -18t-16 -11h-293q-13 0 -16 11t7 18
q26 19 26 75v1087q0 52 -26 72q-10 7 -7 18t16 11h808z" />
    <glyph glyph-name="G" unicode="G" horiz-adv-x="1222" 
d="M53 648q0 189 67 337.5t199.5 236t312.5 87.5q334 0 478 -302l-228 -71q-33 173 -128.5 269t-220.5 63q-90 -24 -150.5 -108.5t-79.5 -200.5t-14 -248.5t46.5 -256t101.5 -220t151.5 -144.5t194.5 -24q59 14 94.5 60t44 107.5t6 128.5t-15.5 127.5t-24 99.5t-16 49
q-5 9 0 18t15 9l65 1h108q49 0 83.5 -34t34.5 -83v-49q0 -135 -76 -243q-36 -51 -79.5 -95t-102.5 -85.5t-133.5 -66t-154.5 -24.5q-179 0 -312 87.5t-200 236t-67 338.5z" />
    <glyph glyph-name="H" unicode="H" horiz-adv-x="1183" 
d="M1074 104q0 -56 26 -75q10 -7 7 -18t-16 -11h-293q-13 0 -16 11t7 18q26 20 26 72v561h-446v-558q0 -57 25 -75q10 -7 7 -18t-16 -11h-293q-13 0 -16 11t7 18q26 20 26 72v1087q0 56 -26 75q-10 7 -7 18t16 11h293q13 0 16 -11t-7 -18q-25 -19 -25 -72v-489h446v486
q0 56 -26 75q-10 7 -7 18t16 11h293q13 0 16 -11t-7 -18q-26 -20 -26 -72v-1087z" />
    <glyph glyph-name="I" unicode="I" horiz-adv-x="479" 
d="M369 104q0 -57 25 -75q10 -7 7 -18t-16 -11h-293q-13 0 -16 11t7 18q26 20 26 72v1087q0 56 -26 75q-10 7 -7 18t16 11h293q13 0 16 -11t-7 -18q-25 -19 -25 -72v-1087z" />
    <glyph glyph-name="J" unicode="J" horiz-adv-x="522" 
d="M138 1292h293q13 0 16 -11t-7 -18q-25 -19 -25 -72l2 -968q0 -240 -208 -240q-81 0 -170 73q-11 10 -11 19t9 14t18 1q35 -16 59 10.5t32.5 67.5t8.5 87v933q0 56 -26 75q-10 7 -7 18t16 11z" />
    <glyph glyph-name="K" unicode="K" horiz-adv-x="1017" 
d="M946 27q10 -7 7 -18t-16 -11h-199q-32 0 -54.5 23t-22.5 55l-1 577q0 59 -23.5 79.5t-66.5 2.5q-57 -23 -201 -63v-570q0 -56 25 -74q10 -8 7 -18.5t-16 -10.5h-293q-13 0 -16 10.5t7 18.5q26 20 26 71v1087q0 56 -26 75q-10 7 -7 18t16 11h293q13 0 16 -11t-7 -18
q-25 -19 -25 -72v-474q107 41 192.5 132.5t124 210t11.5 228.5q5 1 13.5 1.5t32.5 1t46.5 -1.5t49.5 -8.5t46 -18t32.5 -32.5t13.5 -49q0 -85 -81 -197.5t-211 -198.5q41 12 95 12q187 0 187 -183v-510q0 -57 25 -75z" />
    <glyph glyph-name="L" unicode="L" horiz-adv-x="929" 
d="M935 94v-57q0 -15 -10.5 -26t-24.5 -11h-808q-13 0 -16 11t7 18q26 20 26 72v1087q0 56 -26 75q-10 7 -7 18t16 11h293q13 0 16 -11t-7 -18q-25 -19 -25 -72v-1142h434q64 0 94 53q7 13 22.5 9.5t15.5 -17.5z" />
    <glyph glyph-name="M" unicode="M" horiz-adv-x="1464" 
d="M1354 104h-1q0 -56 26 -75q10 -7 7 -18t-16 -11h-293q-13 0 -16 11t7 18q26 20 26 72v1044l-401 -1117q-6 -17 -24 -18t-26 16l-490 1100v-160q0 -93 12 -187.5t31 -172.5t44.5 -156t50.5 -136t52.5 -113t46.5 -87.5t35 -59t17 -27.5q5 -9 0 -17.5t-15 -8.5
q-3 0 -117 -0.5t-161 -0.5q-16 0 -27.5 12t-11.5 29v973q0 68 -2 113.5t-7 69.5t-8.5 34t-11 20t-9.5 14q-5 9 0 18t15 9q4 0 108 -0.5t147 -0.5q35 0 50 -34l380 -865l317 872q11 28 38 28h243q13 0 16 -11t-7 -18q-25 -19 -25 -72v-1087z" />
    <glyph glyph-name="N" unicode="N" horiz-adv-x="1181" 
d="M1079 1251l2 -1251h-46l-877 1140l-1 -174q0 -93 12 -187.5t31 -173t45 -155.5t51 -135.5t52.5 -113.5t46.5 -87.5t35 -59t17 -27.5q5 -9 0 -17.5t-15 -8.5h-279q-16 0 -27.5 11.5t-11.5 28.5l-6 1108q0 23 -4.5 42.5t-8 28t-13.5 25t-12 20.5q-5 9 0 18t15 9h305
l638 -824q-9 91 -28 182t-44 166.5t-52 142.5t-54.5 121.5t-48.5 91.5t-37.5 64.5t-17.5 28.5q-5 9 0 18t15 9h279q16 0 27.5 -12t11.5 -29z" />
    <glyph glyph-name="O" unicode="O" horiz-adv-x="1382" 
d="M931 64q87 38 128.5 148t29 263.5t-76.5 311.5t-161.5 273.5t-202 161t-191.5 7.5t-128.5 -148t-29.5 -263t76 -311t161.5 -273.5t202.5 -161.5t192 -8zM668 1316q175 0 326.5 -90t243 -244.5t97.5 -335.5t-75 -335t-226 -243.5t-320 -89.5t-326 90t-242.5 244.5
t-97.5 335.5q-6 182 75 335.5t225.5 243t319.5 89.5z" />
    <glyph glyph-name="P" unicode="P" horiz-adv-x="1026" 
d="M369 580q100 -27 184 2.5t135.5 116.5t51.5 218q0 58 -13 113.5t-41 108.5t-81.5 85.5t-126.5 32.5h-62q-23 0 -35 -18.5t-12 -47.5v-611zM92 1292h456q97 0 174.5 -19t128 -51.5t84 -78t48 -97t14.5 -110.5q0 -83 -25.5 -150.5t-67.5 -111.5t-98 -75t-115 -45.5
t-119.5 -19.5t-111.5 -1t-91 14v-443q0 -57 25 -75q10 -7 7 -18t-16 -11h-293q-13 0 -16 11t7 18q26 20 26 72v1087q0 56 -26 75q-10 7 -7 18t16 11z" />
    <glyph glyph-name="Q" unicode="Q" horiz-adv-x="1384" 
d="M373 506q64 -158 161.5 -273.5t202.5 -161.5t192 -8t128.5 148t29 263.5t-76.5 311.5t-161.5 273.5t-202 161.5t-191.5 8t-128.5 -148t-29.5 -263.5t76 -311.5zM744 -22q42 -9 129.5 -59t146.5 -64q82 -20 148 -7t80 51h17q-11 -32 -27.5 -60.5t-44 -60.5t-70 -51
t-95.5 -19t-103 19.5t-89.5 49t-76.5 59.5t-79 56.5t-82 35.5q-20 4 -38.5 -1t-27.5 -13l-8 -7l-9 8q50 58 113 68q-128 18 -237.5 83t-183.5 157.5t-116 209t-44 234.5t41.5 237.5t132.5 215.5q88 95 203.5 145.5t244.5 50.5q131 0 252 -53t210.5 -143t144.5 -214t60 -260
q6 -176 -70 -326.5t-214.5 -242t-307.5 -99.5z" />
    <glyph glyph-name="R" unicode="R" horiz-adv-x="1163" 
d="M369 1191v-611q100 -27 183.5 2.5t135 116.5t51.5 218q0 58 -13 113.5t-40.5 108.5t-81 85.5t-126.5 32.5h-62q-23 0 -35 -18.5t-12 -47.5zM1148 32q7 0 11.5 -8.5t3 -17t-9.5 -8.5h-243q-41 0 -78.5 23t-63.5 62q-22 34 -116 164t-131 188q-53 83 -105 103q-26 3 -47 9
v-443q0 -57 25 -75q10 -7 7 -18t-16 -11h-293q-13 0 -16 11t7 18q26 20 26 72v1087q0 56 -26 75q-10 7 -7 18t16 11h456q120 0 210 -30t140.5 -82t74.5 -113t24 -131q0 -84 -25 -151t-70 -112t-97.5 -73.5t-116.5 -45.5q69 -21 104 -74q6 -8 52 -78.5t80 -121t80 -114.5
t79 -99t48 -35h17z" />
    <glyph glyph-name="S" unicode="S" horiz-adv-x="1042" 
d="M623 778q376 -229 376 -448q0 -156 -132 -252.5t-351 -96.5q-99 0 -185 22t-138.5 53.5t-90.5 62.5t-54 53l-15 22l202 189q1 -8 3.5 -21.5t13 -52.5t24.5 -74.5t39 -78.5t55 -74t74 -52.5t95 -21.5q71 0 128 50.5t57 131.5q0 36 -17.5 72t-40.5 64.5t-67.5 65t-76 59
t-89.5 61.5q-71 48 -125 91.5t-109.5 101.5t-85.5 123t-30 132q0 148 121 245.5t275 97.5q84 0 161.5 -21t136 -56t99.5 -69.5t73 -72.5l-169 -182q-9 17 -24.5 45.5t-62.5 97.5t-93 118t-108.5 79.5t-115.5 8.5q-24 -10 -41.5 -28.5t-24.5 -45.5t-3 -59t25 -72t57 -82
t96 -90t138 -96z" />
    <glyph glyph-name="T" unicode="T" horiz-adv-x="1015" 
d="M16 1292h983v-325h-23q-17 52 -128.5 158.5t-210.5 127.5v-1149q0 -56 26 -75q10 -7 7 -17.5t-16 -10.5h-293q-13 0 -16 10.5t7 17.5q25 19 25 72l1 1152q-99 -22 -210.5 -128.5t-128.5 -158.5h-23v326z" />
    <glyph glyph-name="U" unicode="U" horiz-adv-x="1140" 
d="M1061 1292q13 0 16.5 -11t-6.5 -18q-26 -19 -26 -75l-1 -653q0 -279 -120.5 -411t-331.5 -132q-92 0 -166 19t-125 51t-89.5 79t-60.5 96.5t-35 111.5t-17.5 115.5t-4.5 115.5l1 608q0 56 -26 75q-10 7 -7 18t16 11h293q13 0 16 -11t-7 -18q-25 -18 -25 -75v-648
q0 -492 321 -492q144 0 238 123.5t94 360.5v656q0 56 -26 75q-10 7 -7 18t16 11h70z" />
    <glyph glyph-name="V" unicode="V" horiz-adv-x="1095" 
d="M1086 1273q-4 -36 -22 -95.5t-35.5 -105.5t-43 -109t-30.5 -75q-206 -542 -330 -860q-12 -28 -42 -28h-36q-30 0 -42 28q-45 112 -210.5 541t-197.5 519q-11 31 -31 67.5t-41.5 70t-24.5 38.5q-5 9 0.5 18.5t15.5 9.5h232q34 0 61.5 -19t38.5 -51l343 -935
q79 195 107 276q37 108 50 229.5t5 216t-23 163t-32 90.5q-6 8 -3.5 19t12.5 11h261q8 0 13.5 -5.5t4.5 -13.5z" />
    <glyph glyph-name="W" unicode="W" horiz-adv-x="1695" 
d="M1407 1292h261q8 0 13.5 -5.5t4.5 -13.5q-4 -36 -22 -95.5t-35.5 -105.5t-43 -109t-30.5 -75q-155 -408 -331 -860q-12 -28 -41 -28h-37q-29 0 -41 28q-64 156 -242 620q-196 -515 -238 -620q-12 -28 -42 -28h-36q-30 0 -42 28q-45 112 -210.5 541t-197.5 519
q-11 31 -31 67.5t-41.5 70t-24.5 38.5q-5 9 0.5 18.5t15.5 9.5h232q34 0 61.5 -19t38.5 -51l343 -935q108 288 153 412q-122 317 -148 389q-11 31 -30.5 67t-41 70t-24.5 39q-5 9 0.5 18.5t15.5 9.5h232q34 0 61.5 -19t38.5 -51l343 -935q79 195 107 276q37 108 50 229.5
t5 216t-23 163t-32 90.5q-6 8 -3.5 19t12.5 11z" />
    <glyph glyph-name="X" unicode="X" horiz-adv-x="1124" 
d="M1110 37q10 -11 8 -23.5t-12 -12.5h-321q-16 0 -20.5 10.5t-0.5 22.5q10 31 -77 174q-11 17 -213 347q-40 -50 -75 -117.5t-56 -130.5t-35 -125t-13 -100.5t11 -56.5q6 -7 3.5 -17t-12.5 -10h-235q-8 0 -13.5 5t-4.5 12q7 55 152 248.5t258 325.5q-56 91 -134 218
t-122.5 199.5t-50.5 83.5q-29 47 -67.5 96t-60.5 71q-10 11 -8 24t12 13h321q16 0 20.5 -10.5t0.5 -22.5q-10 -32 76 -174q3 -5 27.5 -45t71.5 -116.5t88 -143.5q41 49 73.5 111t50.5 119.5t27.5 110.5t7.5 90.5t-14 52.5q-6 8 -3.5 18t12.5 10q11 0 112.5 -0.5t122.5 -0.5
q97 -1 -368 -545q63 -103 147 -240t133.5 -218t52.5 -86q28 -47 66.5 -95.5t61.5 -71.5z" />
    <glyph glyph-name="Y" unicode="Y" horiz-adv-x="1015" 
d="M634 104q0 -56 26 -75q10 -7 6.5 -17.5t-16.5 -10.5h-292q-13 0 -16.5 10.5t6.5 17.5q26 20 26 72v588q-230 376 -276 445.5t-98 122.5q-10 11 -7.5 23.5t12.5 12.5h320q16 0 20.5 -10.5t0.5 -22.5q-8 -24 38 -106t249 -414q50 60 84 146.5t45 163t9 137t-17 79.5
q-6 8 -3.5 17.5t12.5 9.5h235q18 0 18 -17q0 -73 -130 -262.5t-252 -324.5v-585z" />
    <glyph glyph-name="Z" unicode="Z" horiz-adv-x="1034" 
d="M959 102q7 13 22.5 9.5t15.5 -17.5v-57q0 -15 -10.5 -25.5t-24.5 -10.5h-912q-22 0 -33 20.5t1 39.5l657 1185h-462q-64 0 -94 -52q-7 -13 -22.5 -9.5t-15.5 17.5v57q0 15 10.5 25.5t24.5 10.5h874q15 0 22.5 -13.5t-0.5 -27.5l-649 -1205h502q64 0 94 53z" />
    <glyph glyph-name="bracketleft" unicode="[" horiz-adv-x="393" 
d="M484 -205h-382v1698h382v-188h-194v-1322h194v-188z" />
    <glyph glyph-name="backslash" unicode="\" horiz-adv-x="755" 
d="M706 0h-217l-442 1291h217z" />
    <glyph glyph-name="bracketright" unicode="]" horiz-adv-x="393" 
d="M289 -205h-381v188h194v1322h-194v188h381v-1698z" />
    <glyph glyph-name="underscore" unicode="_" horiz-adv-x="1239" 
d="M1135 -307h-1033v216h1033v-216z" />
    <glyph glyph-name="a" unicode="a" 
d="M632 122v766q-3 4 -9.5 10t-31 16.5t-53.5 10.5q-74 0 -125.5 -59t-74 -152.5t-22.5 -213.5q0 -215 54 -322.5t137 -107.5q67 0 125 52zM762 11q-34 0 -63.5 14.5t-40.5 26t-26 30.5q-55 -49 -120.5 -69.5t-129 -12.5t-123 45.5t-104.5 96.5t-72.5 148.5t-27.5 194.5
q0 97 27 181.5t72.5 143.5t105.5 100t125.5 56t134.5 5.5t130 -44.5q74 -42 142 -11q10 5 31.5 14.5t29.5 12.5q20 7 29.5 0.5t9.5 -20.5v-855q1 -7 3.5 -10.5t9.5 -2.5q11 1 16 -10t0.5 -22.5t-16.5 -11.5h-143z" />
    <glyph glyph-name="b" unicode="b" horiz-adv-x="1001" 
d="M479 42q204 0 204 416q0 218 -48 324t-129 106q-33 0 -69 -21.5t-55 -42.5l-20 -22l-1 -709q6 -6 17.5 -14.5t42.5 -22.5t58 -14zM362 855q56 56 122.5 82.5t130.5 22.5t124 -39t105 -94.5t72.5 -151.5t27.5 -202q0 -111 -30 -200.5t-79 -145.5t-111.5 -90.5t-128 -42
t-128.5 6.5t-112 49q-17 -39 -57 -39h-213q-13 0 -16 10.5t7 18.5q25 18 25 75l1 1010q0 6 -0.5 9.5t-3.5 7.5t-9 3q-17 -2 -20.5 16.5t13.5 27.5q175 84 240 110q20 7 30 0.5t10 -20.5v-424z" />
    <glyph glyph-name="c" unicode="c" horiz-adv-x="919" 
d="M864 201q3 3 8.5 1t8 -7t-0.5 -11q-24 -37 -58 -70.5t-81.5 -63t-111.5 -45t-135 -11.5q-202 11 -321.5 140.5t-119.5 345.5q0 212 127.5 349t325.5 137q137 0 221.5 -57t154.5 -180l-218 -81q-1 4 -2.5 12t-8 30.5t-14 44t-21 49.5t-28 50.5t-36 43t-45 31t-54.5 10.5
t-64 -14q-54 -24 -78 -98.5t-18 -162t33 -166.5q59 -178 159 -270.5t202 -92.5q99 0 175 86z" />
    <glyph glyph-name="d" unicode="d" horiz-adv-x="1001" 
d="M639 163v688q-4 7 -13 16.5t-37 26t-59 16.5q-74 0 -122.5 -57.5t-68 -147.5t-19.5 -211q0 -218 47.5 -324t128.5 -106q22 0 45 10t40 25t30.5 29.5t20.5 24.5zM925 40q10 -8 6.5 -18.5t-16.5 -10.5h-212q-26 0 -45 19t-19 47v30q-56 -60 -122 -89t-129.5 -26.5
t-123.5 37t-105 94t-72.5 152t-27.5 204.5q0 111 29.5 201t77.5 145.5t109.5 90t126 41.5t126.5 -7.5t111 -50.5v226q0 6 -0.5 9.5t-3.5 7.5t-9 3q-17 -2 -20.5 16.5t13.5 27.5q175 84 240 110q20 7 30 0.5t10 -20.5v-1164q0 -56 26 -75z" />
    <glyph glyph-name="e" unicode="e" horiz-adv-x="935" 
d="M469 920q-68 0 -110.5 -47.5t-54.5 -117.5t-8 -145t23 -136t44 -84q114 0 189 114q65 100 66 221q0 121 -68 170q-34 25 -81 25zM858 194q5 5 12 4.5t11.5 -8.5t0.5 -16q-38 -74 -142.5 -127t-243.5 -53q-122 0 -218 53.5t-145.5 139.5t-72.5 189.5t1 207t73.5 189.5
t146 139.5t219.5 53.5q170 0 272.5 -88t102.5 -209q0 -63 -30 -115.5t-79.5 -88t-115 -60t-135 -36t-140.5 -11.5q5 -10 15 -27t43 -59.5t69 -75t91 -59.5t112 -27q95 0 153 84z" />
    <glyph glyph-name="f" unicode="f" horiz-adv-x="526" 
d="M284 1273q-24 -15 -26 -44t13 -60.5t42 -64.5q68 -81 71 -157h91q25 0 25 -21q0 -20 -23 -20h-92l-1 -791q0 -56 26 -75q10 -8 7 -18.5t-16 -10.5h-293q-13 0 -16 10.5t7 18.5q25 19 25 72l1 794h-61q-25 0 -25 21q0 20 24 20h62v88q0 69 20.5 123.5t54 86.5t66.5 50
t66 25q54 10 97.5 4.5t76.5 -22t55.5 -34t33.5 -30.5l11 -14l-104 -145q-24 80 -98.5 151.5t-119.5 42.5z" />
    <glyph glyph-name="g" unicode="g" horiz-adv-x="989" 
d="M632 122v766q-3 4 -9.5 10t-31 16.5t-53.5 10.5q-74 0 -125.5 -59t-74 -152.5t-22.5 -213.5q0 -215 54 -322.5t137 -107.5q67 0 125 52zM892 923l2 -1028q0 -108 -101 -185.5t-245 -77.5q-73 0 -178 23t-174 47l-68 23l63 231q9 -12 25 -31t62 -68.5t88.5 -87.5t95.5 -69
t92 -31q44 0 61 44.5t17 128.5v240q-55 -49 -120.5 -69.5t-129 -12t-123 45.5t-104.5 96.5t-72.5 148.5t-27.5 194q0 97 27 181.5t72.5 143.5t105.5 100t125.5 56t134.5 5.5t130 -44.5q73 -41 142 -10q15 7 38 17l23 9q20 7 29.5 0.5t9.5 -20.5z" />
    <glyph glyph-name="h" unicode="h" horiz-adv-x="980" 
d="M910 40q10 -8 6.5 -18.5t-16.5 -10.5h-293q-13 0 -16 10.5t7 18.5q26 19 26 75v589q0 152 -112 152q-79 0 -152 -82v-659q0 -56 26 -75q10 -8 6.5 -18.5t-16.5 -10.5h-292q-13 0 -16.5 10.5t6.5 18.5q26 20 26 72v1013q0 6 -0.5 9.5t-3.5 7.5t-9 3q-17 -2 -20.5 16.5
t13.5 27.5q175 84 240 110q20 7 30 0.5t10 -20.5v-456q46 55 121 99t178 44q99 0 162 -66.5t63 -151.5v-633q0 -56 26 -75z" />
    <glyph glyph-name="i" unicode="i" horiz-adv-x="458" 
d="M386 40q10 -8 6.5 -18.5t-16.5 -10.5h-292q-13 0 -16.5 10.5t6.5 18.5q26 20 26 72v657q0 6 -0.5 9.5t-3.5 7.5t-9 3q-17 -2 -20.5 16.5t13.5 27.5q175 84 240 110q20 7 30 0.5t10 -20.5v-808q0 -56 26 -75zM229 1026q-53 0 -91 39.5t-38 94.5q0 56 38 95.5t91 39.5
t91.5 -40t38.5 -95t-38.5 -94.5t-91.5 -39.5z" />
    <glyph glyph-name="j" unicode="j" horiz-adv-x="456" 
d="M321 943q20 7 29.5 0.5t9.5 -20.5l2 -1028q0 -109 -100.5 -186.5t-244.5 -77.5q-73 0 -178 23.5t-173 46.5l-69 23l62 232q9 -12 25 -31t62 -68.5t89 -87.5t96 -69t92 -31q44 0 61 44t17 128l-1 928q0 19 -9 20h-3q-17 -2 -21 16.5t13 27.5q170 82 241 110zM233 1026
q-53 0 -91 39.5t-38 94.5q0 56 38 95.5t91 39.5t91 -39.5t38 -95.5q0 -55 -38 -94.5t-91 -39.5z" />
    <glyph glyph-name="k" unicode="k" horiz-adv-x="901" 
d="M826 40q10 -8 7 -18.5t-16 -10.5h-199q-32 0 -54.5 23t-22.5 55l-1 397q0 62 -22.5 98.5t-67.5 36.5q-43 0 -66.5 -38.5t-23.5 -103.5v-364q0 -56 26 -75q10 -8 6.5 -18.5t-16.5 -10.5h-292q-13 0 -16.5 10.5t6.5 18.5q26 20 26 72v1013q0 6 -0.5 9.5t-3.5 7.5t-9 3
q-17 -2 -20.5 16.5t13.5 27.5q175 84 240 110q20 7 30 0.5t10 -20.5v-647q9 13 25 34t67 75.5t102.5 96t124 75.5t139.5 34v-216q-11 4 -29 8t-74.5 11.5t-102.5 -2.5q-67 -10 -110 -34t-87 -65q67 32 161 32q99 0 162 -66.5t63 -151.5v-348q0 -57 25 -75z" />
    <glyph glyph-name="l" unicode="l" horiz-adv-x="448" 
d="M375 40q10 -8 7 -18.5t-16 -10.5h-104q-71 0 -121.5 50.5t-50.5 121.5v942q0 6 -0.5 9.5t-3.5 7.5t-9 3q-17 -2 -20.5 16.5t13.5 27.5q175 84 240 110q20 7 30 0.5t10 -20.5v-1164q0 -57 25 -75z" />
    <glyph glyph-name="m" unicode="m" horiz-adv-x="1478" 
d="M1408 40q10 -8 6.5 -18.5t-16.5 -10.5h-104q-71 0 -121.5 50.5t-50.5 121.5l-1 516q0 152 -111 152q-82 0 -157 -87q2 -14 2 -21v-628q0 -56 26 -75q10 -8 6.5 -18.5t-16.5 -10.5h-293q-13 0 -16 10.5t7 18.5q26 19 26 75v584q0 152 -112 152q-61 0 -122 -53v-683
q0 -57 25 -75q10 -8 7 -18.5t-16 -10.5h-293q-13 0 -16 10.5t7 18.5q26 19 26 75v728q0 56 -26 75q-10 8 -7 18.5t16 10.5h213q26 0 45 -19t19 -47v-31q114 112 269 112q81 0 138.5 -46t77.5 -114q17 23 40 45.5t62 51t93.5 46t115.5 17.5q99 0 162 -67t63 -152v-628
q0 -56 26 -75z" />
    <glyph glyph-name="n" unicode="n" horiz-adv-x="980" 
d="M909 40q10 -8 7 -18.5t-16 -10.5h-104q-71 0 -122 50.5t-51 121.5v521q0 152 -112 152q-76 0 -150 -81v-660q0 -57 25 -75q10 -8 7 -18.5t-16 -10.5h-293q-13 0 -16 10.5t7 18.5q26 19 26 75v728q0 56 -26 75q-10 8 -7 18.5t16 10.5h213q26 0 45 -19t19 -47v-57
q46 55 120.5 98.5t177.5 43.5q99 0 162 -66.5t63 -151.5v-633q0 -57 25 -75z" />
    <glyph glyph-name="o" unicode="o" horiz-adv-x="999" 
d="M684 54q61 29 50 172.5t-88 319.5t-173.5 279.5t-157.5 75.5t-49.5 -173t87.5 -320t173 -279t158 -75zM902 667q40 -92 44.5 -190.5t-23 -184t-86.5 -156.5t-141 -110q-83 -41 -172 -38.5t-169.5 36.5t-149 103t-108.5 161t-44.5 190.5t23 184t86.5 156t141 109.5
q83 41 172 38.5t169.5 -36.5t149 -102.5t108.5 -160.5z" />
    <glyph glyph-name="p" unicode="p" horiz-adv-x="1034" 
d="M496 48q110 0 166 116t56 300q0 215 -54 322.5t-137 107.5q-95 0 -167 -97v-691q54 -58 136 -58zM360 852q56 59 124.5 88t136.5 26t133 -37.5t114.5 -93.5t79.5 -152t30 -204t-32 -201t-84.5 -145.5t-119 -90t-135 -41.5t-133.5 7t-114 50v-290q1 -5 1.5 -7t3 -4t7.5 -2
q17 2 21 -16.5t-13 -27.5q-17 -8 -101.5 -27t-140.5 -28q-20 -3 -29 6.5t-9 24.5v1082q0 6 -0.5 9.5t-3.5 7.5t-9 3q-17 -2 -20.5 16.5t13.5 27.5q175 84 240 110q20 7 30 0.5t10 -20.5v-71z" />
    <glyph glyph-name="q" unicode="q" horiz-adv-x="987" 
d="M632 122v766q-3 4 -9.5 10t-31 16.5t-53.5 10.5q-74 0 -125.5 -59t-74 -152.5t-22.5 -213.5q0 -215 54 -322.5t137 -107.5q67 0 125 52zM905 -245q17 2 20.5 -16.5t-13.5 -27.5q-17 -8 -101.5 -27t-140.5 -28q-20 -3 -29 6.5t-9 24.5v388q-68 -55 -148 -71t-155 10.5
t-137 84.5t-99.5 159t-37.5 227q0 116 38 213.5t101 157.5t139.5 92t160 26.5t156.5 -47.5q73 -41 142 -10q15 7 38 17l23 9q20 7 29.5 0.5t9.5 -20.5v-1155q1 -7 3.5 -10.5t9.5 -2.5z" />
    <glyph glyph-name="r" unicode="r" horiz-adv-x="710" 
d="M361 881v-49q34 74 94.5 107.5t124.5 24t116 -53.5l-82 -197q-4 8 -11 21t-32 40.5t-52.5 41t-70 7t-87.5 -45.5v-662q0 -57 25 -75q10 -8 7 -18.5t-16 -10.5h-293q-13 0 -16 10.5t7 18.5q26 19 26 75v728q0 56 -26 75q-10 8 -7 18.5t16 10.5h213q26 0 45 -19t19 -47z
" />
    <glyph glyph-name="s" unicode="s" horiz-adv-x="862" 
d="M675 460q56 -38 88.5 -88.5t39 -102t-14.5 -101.5t-65.5 -88.5t-121 -62.5t-173.5 -24q-69 0 -134 19.5t-108.5 48t-77 56.5t-49.5 47l-16 20l160 171q1 -7 3 -19t10.5 -47t20.5 -66.5t33.5 -70.5t48 -67t66.5 -47t87 -19q48 0 77 26.5t33 64t-18 81t-67 75.5
q-47 33 -154.5 110.5t-144.5 103.5q-53 37 -84 89t-37.5 105.5t12.5 107t58.5 95t107.5 67.5t154 26q73 0 141 -17t113 -41t80 -48t51 -41l17 -17l-130 -173q-2 7 -5.5 18t-16.5 43.5t-28 62.5t-40 66t-52 62t-64 44t-77 18q-69 0 -103 -48.5t-17 -113.5t81 -109
q39 -26 160 -109t156 -107z" />
    <glyph glyph-name="t" unicode="t" horiz-adv-x="530" 
d="M473 100q9 4 17.5 -1t8.5 -14t-11 -19q-88 -72 -169 -72q-208 0 -208 239v673h-41q-25 0 -25 21q0 20 24 20h44v149l220 140q20 7 30 0.5t10 -20.5v-269h76q25 0 25 -21q0 -20 -23 -20h-78v-641q0 -46 8.5 -87t32.5 -67.5t59 -10.5z" />
    <glyph glyph-name="u" unicode="u" horiz-adv-x="983" 
d="M892 111q17 2 20.5 -17t-13.5 -28q-17 -8 -101.5 -27t-140.5 -28q-20 -3 -29 6.5t-9 24.5v83q-2 -5 -7.5 -14t-26 -32t-47 -40t-73 -31.5t-101.5 -14.5q-123 0 -195.5 66t-72.5 152l1 633q0 56 -26 75q-10 7 -7 18t16 11h293q13 0 16 -11t-7 -18q-25 -18 -25 -75v-589
q0 -64 35 -108t97 -44q58 0 94 39t36 98v604q0 57 -25 75q-10 7 -7 18t16 11h293q13 0 16 -11t-7 -18q-26 -19 -26 -75v-721q2 -13 13 -12z" />
    <glyph glyph-name="v" unicode="v" horiz-adv-x="854" 
d="M815 947q8 0 13.5 -5.5t4.5 -13.5q-4 -36 -22 -95.5t-35.5 -105.5t-43 -109t-30.5 -75q-22 -58 -100.5 -257t-97.5 -247q-12 -28 -41 -28h-37q-29 0 -41 28q-229 571 -276 704q-11 31 -30.5 67t-41 70t-24.5 39q-5 9 0 18.5t15 9.5h232q34 0 62 -19.5t39 -50.5l210 -580
q23 59 64 169q34 89 22.5 186.5t-35.5 164.5t-50 101q-4 5 -4.5 12t2.5 12t10 5h235z" />
    <glyph glyph-name="w" unicode="w" horiz-adv-x="1320" 
d="M1281 947q8 0 13.5 -5.5t4.5 -13.5q-4 -36 -22 -95.5t-35.5 -105.5t-43 -109t-30.5 -75q-22 -58 -100.5 -257t-97.5 -247q-12 -28 -42 -28h-36q-31 0 -42 27q-14 34 -174 439q-55 -143 -172 -438q-12 -28 -41 -28h-37q-30 0 -41 27q-226 564 -276 705q-11 31 -30.5 67
t-41 70t-24.5 39q-5 9 0 18.5t15 9.5h232q34 0 62 -19.5t39 -50.5l210 -580q47 124 86 230q-51 130 -82 216q-11 31 -30.5 67t-41 70t-24.5 39q-5 9 0 18.5t15 9.5h232q34 0 61.5 -19.5t38.5 -50.5l211 -580q23 59 64 169q34 89 22.5 186.5t-35.5 164.5t-50 101
q-4 5 -4.5 12t2.5 12t10 5h235z" />
    <glyph glyph-name="x" unicode="x" horiz-adv-x="921" 
d="M894 48q10 -10 8 -23.5t-12 -13.5h-321q-16 0 -20.5 12t0.5 21q7 23 -20 73.5t-139 233.5q-33 -64 -45.5 -132t-6.5 -114t23 -67q6 -8 3.5 -17.5t-12.5 -9.5h-235q-73 0 148 273q48 60 96 115q-37 59 -87.5 141.5t-84 137.5t-40.5 66q-61 99 -128 166q-10 10 -8 23.5
t12 13.5h321q16 0 20.5 -10.5t0.5 -22.5q-7 -24 20 -75.5t157 -262.5q39 69 55 144t11 126.5t-23 73.5q-6 8 -3.5 17.5t12.5 9.5h235q51 -1 -35.5 -127t-224.5 -288q34 -56 84.5 -138t79 -128.5t31.5 -51.5q55 -90 128 -166z" />
    <glyph glyph-name="y" unicode="y" horiz-adv-x="856" 
d="M816 947q8 0 13.5 -5.5t4.5 -13.5q-4 -36 -22 -95.5t-35.5 -105.5t-43 -109t-30.5 -75q-21 -54 -130.5 -335.5t-111.5 -286.5q-62 -170 -118.5 -240t-159.5 -70q-73 0 -177 27.5t-172 54.5l-67 27l121 202q6 -10 17.5 -27t47 -60.5t71.5 -76.5t86.5 -60t96.5 -27
q23 0 45 7.5t38 18t32.5 30t27 34.5t24 42t20 42t19 44.5t16.5 39.5q-271 676 -319 814q-11 31 -30.5 67t-41 70t-24.5 39q-5 9 0 18.5t15 9.5h233q34 0 61.5 -19.5t38.5 -50.5l210 -580q23 59 64 169q34 89 22.5 186.5t-35.5 164.5t-50 101q-4 5 -4.5 12t2.5 12t10 5h235z
" />
    <glyph glyph-name="z" unicode="z" horiz-adv-x="911" 
d="M860 947q15 0 22.5 -14t0.5 -27l-509 -846h342q64 0 94 52q7 13 22.5 9.5t15.5 -17.5v-56q0 -15 -10.5 -26t-24.5 -11h-753q-22 0 -32.5 20.5t1.5 39.5l516 827h-322q-29 0 -49.5 -9.5t-28 -18.5t-15.5 -24q-7 -13 -22.5 -9.5t-15.5 17.5v56q0 15 10.5 26t24.5 11h733z
" />
    <glyph glyph-name="braceleft" unicode="{" horiz-adv-x="559" 
d="M515 -205q-57 0 -104.5 21.5t-78 54.5t-51.5 76t-30 84t-9 80q3 167 -3 273q-3 42 -17.5 76.5t-33 54t-38.5 32.5t-31.5 17.5t-13.5 4.5l-33 9v120l31 10q10 4 16 6.5t30.5 19.5t40 36t31 55t18.5 79q3 47 3.5 115.5t-0.5 112.5v45q0 39 9 80t30 84t51.5 76t78 54.5
t104.5 21.5h136v-158q-64 8 -80 8q-114 0 -114 -69v-206q-2 -8 0.5 -37t-3.5 -82t-15 -106t-33.5 -108t-58.5 -89q30 -28 52.5 -73.5t33 -85.5t16.5 -85.5t7 -64.5t1 -30v-285q0 -68 114 -68l80 7v-166h-136z" />
    <glyph glyph-name="verticalbar" unicode="|" horiz-adv-x="393" 
d="M289 -205h-187v1661h187v-1661z" />
    <glyph glyph-name="braceright" unicode="}" horiz-adv-x="559" 
d="M44 -205h-136v159q64 -8 80 -8q114 0 114 68v207q2 8 -0.5 37t3 81.5t14.5 105.5t33.5 108t58.5 89q-30 28 -52.5 73.5t-33 86t-16 86t-6.5 64t-1 30.5v285q0 68 -114 68l-80 -8v166h136q57 0 104.5 -21.5t77.5 -54.5t51 -76t30 -84t9 -80q-3 -167 3 -273
q3 -42 17.5 -76.5t33 -54t38.5 -32.5t31.5 -17.5t13.5 -4.5l34 -8v-121l-31 -10q-10 -4 -16 -6.5t-30.5 -19.5t-40.5 -36t-31.5 -55t-18.5 -79q-3 -47 -3.5 -115.5t0.5 -112.5v-45q0 -39 -9 -80t-30 -84t-51 -76t-77.5 -54.5t-104.5 -21.5z" />
    <glyph glyph-name="nonbreakingspace" unicode="&#xa0;" horiz-adv-x="563" 
 />
    <glyph glyph-name="exclamdown" unicode="&#xa1;" horiz-adv-x="448" 
d="M235 727q7 -38 38.5 -205.5t49.5 -268.5t35.5 -221t17.5 -168q0 -70 -43 -110.5t-116 -40.5q-57 0 -99 33.5t-42 117.5q0 110 50 410.5t83 452.5h26zM217 795q-49 0 -87.5 38.5t-38.5 89.5q0 60 37.5 96.5t93.5 36.5q53 0 91.5 -39t38.5 -94q0 -50 -41.5 -89t-93.5 -39z
" />
    <glyph glyph-name="cent" unicode="&#xa2;" horiz-adv-x="1038" 
d="M475 9q-95 19 -171.5 67.5t-125 114.5t-74.5 145t-26.5 159t24.5 156t72.5 136.5t125.5 101.5t175 49v324h104v-327q80 -8 146.5 -39t107.5 -73t64.5 -87.5t25.5 -87.5q1 -18 -4.5 -39.5t-19 -45.5t-44 -40t-72.5 -16q-127 0 -162 144q-2 7 -7 29t-8.5 36t-10.5 37.5
t-13.5 39t-16 34t-21 29t-25 18t-30 6.5t-35.5 -10q-40 -19 -62 -73.5t-24 -125t17 -150.5t55 -150.5t96 -125t134 -73.5q48 -11 87.5 -6.5t71.5 19.5t54 31t33 29l12 13l34 -37q-5 -9 -14.5 -24t-44.5 -53t-75.5 -67.5t-107.5 -53.5t-141 -24v-327h-104v337z" />
    <glyph glyph-name="sterling" unicode="&#xa3;" horiz-adv-x="1110" 
d="M989 187l44 -130q2 -7 -4 -10q-90 -47 -199 -47q-36 0 -84.5 10.5t-75.5 19t-98 31.5q-62 20 -122.5 22t-108.5 -12t-79 -28.5t-58 -32.5q-11 -8 -24.5 -5t-20.5 15l-48 87q-14 24 7 43q15 13 30.5 28.5t36 41t37.5 53t32 63.5t23 73.5t7 82.5t-14 90l-9 29h-181v101h152
q-28 98 -32 116q-30 123 13.5 235.5t158 185t274.5 72.5q146 0 229 -80.5t138 -257.5l-229 -48v18q0 11 -1.5 35.5t-12 78t-28 97t-54 77.5t-85.5 34q-63 0 -99.5 -53.5t-38 -136.5t25.5 -184q3 -10 24 -76t33 -106q2 -7 9 -7h285v-101h-256q-4 0 -7 -2.5t-2 -6.5
q3 -12 1.5 -40.5t-3.5 -61t-14 -74.5t-28.5 -82.5t-48.5 -83t-73 -77.5q-6 -5 -3 -11t11 -4q58 12 94 10t103 -17q70 -16 120 -22t81 -7t62 9.5t46.5 19.5t49.5 31q10 6 14 -5z" />
    <glyph glyph-name="yen" unicode="&#xa5;" horiz-adv-x="1472" 
d="M1011 1292h360v-36q-7 -3 -19.5 -8.5t-47 -25.5t-65 -44t-65 -63.5t-54.5 -83.5l-194 -412v-33h239v-104h-238l1 -53q0 -28 1 -42h236v-104h-225q13 -86 38 -148.5t44 -82.5l18 -19v-33h-561v33q3 2 8 6.5t19.5 24t27 45t26 72t21.5 102.5h-227v104h237q1 14 1 44v51
h-238v104h237v2l-206 370q-38 68 -81 124t-77.5 87t-63.5 52t-45 28l-16 7v36h658v-33q-5 -2 -12.5 -7t-23 -25t-22.5 -45t0.5 -70.5t34.5 -99.5l140 -265q8 -16 26.5 -15.5t26.5 16.5l132 289q22 49 24.5 90t-9 64t-26 39.5t-27.5 21.5l-13 6v34z" />
    <glyph glyph-name="section" unicode="&#xa7;" horiz-adv-x="1095" 
d="M704 454q36 -4 55.5 18t19.5 57q0 30 -22.5 60.5t-60 56t-75 46t-76.5 40.5q-14 7 -21 10q-46 23 -87 35t-70.5 12.5t-51.5 -7.5t-32.5 -22t-10.5 -33q0 -48 96 -114t197.5 -111t138.5 -48zM338 1289q0 -35 37 -69t96 -64.5t130.5 -62.5t143 -71t130.5 -83t96 -105
t37 -131q0 -111 -66 -189.5t-174 -116.5q175 -117 175 -265q0 -106 -63 -184.5t-157.5 -115.5t-202.5 -37q-78 0 -176.5 13.5t-157.5 26.5l-59 13v343h45q4 -7 10.5 -19t28.5 -47.5t46 -67t61 -70.5t74.5 -67.5t84.5 -47.5t94 -19q68 0 105.5 28.5t37.5 75.5
q0 42 -34.5 79.5t-89.5 67.5t-121.5 60.5t-133 66.5t-121.5 78t-89.5 102.5t-34.5 132.5q0 120 65.5 195t171.5 107q-172 112 -172 269q0 69 24 125.5t62.5 93t91 61t106.5 35t111 10.5q61 0 154.5 -19.5t155.5 -38.5l63 -20l-1 -334h-39q-7 13 -21 35t-59 77.5t-94 98
t-123.5 77.5t-149.5 35q-37 0 -67.5 -16.5t-30.5 -45.5z" />
    <glyph glyph-name="copyright" unicode="&#xa9;" horiz-adv-x="1460" 
d="M841 422q36 -8 65.5 -4.5t53.5 14.5t40.5 23.5t25.5 22.5l9 9l25 -28q-4 -7 -11 -18t-33.5 -40t-57 -51t-81 -40t-105.5 -18q-181 0 -287 129q-87 107 -86 249q0 144 90 236t242 92q154 0 242 -95q61 -66 57 -139q-4 -66 -63 -85q-19 -6 -41 -6q-94 0 -121 108
q-1 5 -5 22t-6.5 27t-7.5 28t-10 29t-12.5 25.5t-16 22t-18.5 13t-22.5 5t-26.5 -7.5q-36 -17 -53 -71t-9.5 -122.5t31.5 -136.5t75 -122t117 -71zM730 58q119 0 228 46.5t187.5 125t125 187.5t46.5 228t-46.5 228t-125 187.5t-187.5 125t-228 46.5t-228 -46.5t-187.5 -125
t-125 -187.5t-46.5 -228t46.5 -228t125 -187.5t187.5 -125t228 -46.5zM730 1291q175 0 323.5 -86.5t235 -235.5t86.5 -324t-86.5 -324t-235 -235.5t-323.5 -86.5q-131 0 -250.5 51.5t-206 138t-138 206t-51.5 250.5t51.5 250.5t138 206t206 138t250.5 51.5z" />
    <glyph glyph-name="guillemotleft" unicode="&#xab;" horiz-adv-x="1026" 
d="M960 894l-289 -344l289 -345h-232l-290 339q-4 4 -4 6t4 6l294 338h228zM592 894l-289 -344l289 -345h-232l-290 339q-4 4 -4 6t4 6l294 338h228z" />
    <glyph glyph-name="softhyphen" unicode="&#xad;" horiz-adv-x="0" 
 />
    <glyph glyph-name="registered" unicode="&#xae;" horiz-adv-x="987" 
d="M443 1008q55 3 85 38t30 96q0 62 -30 96.5t-85 37.5v-268zM661 908q28 -42 55.5 -66t41.5 -28l13 -3v-13h-249v14q31 17 8 83t-55 87q-17 9 -25.5 3.5t-8.5 -18.5q0 -37 4.5 -67t10.5 -46t12.5 -26.5t11.5 -13.5l4 -4v-12h-216v12q2 1 5 4t10.5 15.5t13 28.5t10.5 47
t5 68v148q0 59 -11 99.5t-22 51.5l-11 11v12h206q103 0 159.5 -40t56.5 -113q0 -58 -41.5 -94.5t-103.5 -50.5q69 -19 116 -89zM493 653q156 0 266.5 110.5t110.5 266.5t-110.5 266t-266.5 110t-266.5 -110t-110.5 -266t110.5 -266.5t266.5 -110.5zM493 1445
q172 0 293.5 -121.5t121.5 -293.5t-121.5 -293.5t-293.5 -121.5t-293.5 121.5t-121.5 293.5t121.5 293.5t293.5 121.5z" />
    <glyph glyph-name="degree" unicode="&#xb0;" horiz-adv-x="589" 
d="M293 1132q56 0 90.5 35.5t34.5 93.5q0 55 -36 91.5t-89 36.5t-86.5 -36t-33.5 -92q0 -59 32.5 -94t87.5 -35zM293 1496q98 0 165 -68t67 -167q0 -102 -65.5 -169t-166.5 -67q-99 0 -163 67t-64 169q0 100 65 167.5t162 67.5z" />
    <glyph glyph-name="periodcentered" unicode="&#xb7;" horiz-adv-x="385" 
d="M193 660q50 0 88 -35t38 -87q0 -49 -37.5 -88.5t-88.5 -39.5q-57 0 -92 39.5t-35 88.5q0 52 37 87t90 35z" />
    <glyph glyph-name="guillemotright" unicode="&#xbb;" horiz-adv-x="1026" 
d="M955 555q5 -5 5 -6t-5 -6l-294 -338h-227l288 344l-288 345h231zM592 549q0 -1 -5 -6l-294 -338h-227l288 344l-288 345h231l290 -339q5 -5 5 -6z" />
    <glyph glyph-name="questiondown" unicode="&#xbf;" horiz-adv-x="714" 
d="M794 -1h41q-55 -128 -160.5 -207t-244.5 -79q-100 0 -185 39t-136.5 113t-51.5 168q1 64 26 122.5t64.5 104t87 89t94.5 86.5t86 87.5t63.5 100.5t24.5 118h42q0 -86 -19 -167.5t-46.5 -143t-54.5 -117t-46 -111t-19 -102.5q0 -101 60 -159t142 -58q67 0 132.5 30.5
t99.5 85.5zM524 791q-51 0 -88.5 37t-37.5 88q0 50 36.5 87.5t89.5 37.5q51 0 88 -38t37 -92q0 -50 -38 -85t-87 -35z" />
    <glyph glyph-name="Agrave" unicode="&#xc0;" horiz-adv-x="1138" 
d="M419 1006q-92 -217 -120.5 -305.5t-40.5 -189.5h350zM1137 29q5 -9 0 -18.5t-16 -9.5h-242q-35 0 -63.5 19t-40.5 51l-152 400h-370q-13 -147 7 -276t48 -164q7 -8 4.5 -19t-13.5 -11h-272q-8 0 -14 5.5t-5 13.5q4 36 22.5 95.5t37 105.5t45 108.5t31.5 75.5l18 45t22 56
v5h3q246 619 301 754q12 28 43 28h38q32 0 44 -28q45 -107 218 -538t206 -522q12 -31 32.5 -67.5t42 -69.5t25.5 -39zM575 1371h-66l-209 242h163z" />
    <glyph glyph-name="Aacute" unicode="&#xc1;" horiz-adv-x="1138" 
d="M419 1006q-92 -217 -120.5 -305.5t-40.5 -189.5h350zM1137 29q5 -9 0 -18.5t-16 -9.5h-242q-35 0 -63.5 19t-40.5 51l-152 400h-370q-13 -147 7 -276t48 -164q7 -8 4.5 -19t-13.5 -11h-272q-8 0 -14 5.5t-5 13.5q4 36 22.5 95.5t37 105.5t45 108.5t31.5 75.5l18 45t22 56
v5h3q246 619 301 754q12 28 43 28h38q32 0 44 -28q45 -107 218 -538t206 -522q12 -31 32.5 -67.5t42 -69.5t25.5 -39zM788 1613l-209 -242h-66l112 242h163z" />
    <glyph glyph-name="Acircumflex" unicode="&#xc2;" horiz-adv-x="1138" 
d="M419 1006q-92 -217 -120.5 -305.5t-40.5 -189.5h350zM1137 29q5 -9 0 -18.5t-16 -9.5h-242q-35 0 -63.5 19t-40.5 51l-152 400h-370q-13 -147 7 -276t48 -164q7 -8 4.5 -19t-13.5 -11h-272q-8 0 -14 5.5t-5 13.5q4 36 22.5 95.5t37 105.5t45 108.5t31.5 75.5l18 45t22 56
v5h3q246 619 301 754q12 28 43 28h38q32 0 44 -28q45 -107 218 -538t206 -522q12 -31 32.5 -67.5t42 -69.5t25.5 -39zM552 1544l-102 -173h-104l147 242h117l147 -242h-104z" />
    <glyph glyph-name="Atilde" unicode="&#xc3;" horiz-adv-x="1138" 
d="M419 1006q-92 -217 -120.5 -305.5t-40.5 -189.5h350zM1137 29q5 -9 0 -18.5t-16 -9.5h-242q-35 0 -63.5 19t-40.5 51l-152 400h-370q-13 -147 7 -276t48 -164q7 -8 4.5 -19t-13.5 -11h-272q-8 0 -14 5.5t-5 13.5q4 36 22.5 95.5t37 105.5t45 108.5t31.5 75.5l18 45t22 56
v5h3q246 619 301 754q12 28 43 28h38q32 0 44 -28q45 -107 218 -538t206 -522q12 -31 32.5 -67.5t42 -69.5t25.5 -39zM440 1462q-29 0 -55.5 -16t-38.5 -32l-13 -16v96q4 5 13 13.5t42.5 22t73.5 13.5q42 0 105 -28.5t101 -28.5q21 0 47 14t42 28l16 15v-91
q-34 -30 -58 -37.5t-75 -8.5q-33 -1 -100.5 27.5t-99.5 28.5z" />
    <glyph glyph-name="Adieresis" unicode="&#xc4;" horiz-adv-x="1138" 
d="M419 1006q-92 -217 -120.5 -305.5t-40.5 -189.5h350zM1137 29q5 -9 0 -18.5t-16 -9.5h-242q-35 0 -63.5 19t-40.5 51l-152 400h-370q-13 -147 7 -276t48 -164q7 -8 4.5 -19t-13.5 -11h-272q-8 0 -14 5.5t-5 13.5q4 36 22.5 95.5t37 105.5t45 108.5t31.5 75.5l18 45t22 56
v5h3q246 619 301 754q12 28 43 28h38q32 0 44 -28q45 -107 218 -538t206 -522q12 -31 32.5 -67.5t42 -69.5t25.5 -39zM687 1372q-38 0 -62.5 25.5t-24.5 65.5q0 39 24.5 65.5t62.5 26.5t64 -27t26 -65q0 -40 -25.5 -65.5t-64.5 -25.5zM452 1372q-38 0 -62.5 25.5t-24.5 65.5
q0 39 24.5 65.5t62.5 26.5t64 -27t26 -65q0 -40 -25.5 -65.5t-64.5 -25.5z" />
    <glyph glyph-name="Aring" unicode="&#xc5;" horiz-adv-x="1138" 
d="M419 1005q-92 -217 -120.5 -305.5t-40.5 -189.5h350zM1137 28q5 -9 0 -18.5t-16 -9.5h-242q-35 0 -63.5 19t-40.5 50l-152 401h-370q-13 -147 7 -276.5t48 -164.5q7 -8 4.5 -18.5t-13.5 -10.5h-272q-8 0 -14 6t-5 13q4 36 22.5 95.5t37 105.5t45 108.5t31.5 75.5
q4 10 17.5 43.5t22.5 56.5v6h3q219 550 301 753q12 28 43 28h38q33 0 44 -27q44 -106 217.5 -538t206.5 -523q12 -31 32.5 -67.5t42 -68.5t25.5 -39zM540 1563q-33 0 -57 -23.5t-24 -56.5t24 -57t57 -24t57 23.5t24 57.5q0 33 -24 56.5t-57 23.5zM540 1325q-65 0 -111 46.5
t-46 111.5t46 111t111 46t111 -46t46 -111t-46 -111.5t-111 -46.5z" />
    <glyph glyph-name="AE" unicode="&#xc6;" horiz-adv-x="1501" 
d="M258 511h294v667l-25 -21q-68 -58 -103 -139q-95 -226 -123.5 -312t-42.5 -195zM1479 95l1 -57q0 -15 -11 -26t-26 -11h-908q-13 0 -16.5 10.5t6.5 18.5q27 20 27 72v369h-299q-13 -147 7 -276t48 -164q7 -8 4.5 -19t-13.5 -11h-272q-8 0 -14 5.5t-5 13.5q4 36 22.5 95.5
t37 105.5t45 108.5t31.5 75.5l18 45t22 56v5h3q246 619 301 754q3 7 12.5 14t17.5 11l8 3h890q15 0 26 -11t11 -26v-57q0 -14 -16.5 -17.5t-23.5 9.5q-30 53 -97 53h-494v-558h346q67 0 97 52q7 13 23.5 9.5t16.5 -17.5v-141q0 -14 -16.5 -17.5t-23.5 9.5q-30 53 -97 53
h-346v-584h520q68 0 98 53q8 13 23.5 9.5t15.5 -17.5z" />
    <glyph glyph-name="Ccedilla" unicode="&#xc7;" horiz-adv-x="1253" 
d="M49 644q0 192 70.5 343t211 240.5t330.5 89.5q353 0 505 -308l-241 -72q-35 175 -135 270.5t-234 67.5q-53 -11 -98 -50.5t-77 -98t-53 -133.5t-29 -156.5t-1 -166t27.5 -164t59 -149.5t90.5 -122t126.5 -82.5t162.5 -30.5q85 0 160.5 30t122.5 72.5t82 85.5t49 73l15 30
l37 -18q-3 -8 -9.5 -22.5t-30 -55.5t-51.5 -78.5t-74.5 -84t-98.5 -80.5t-125.5 -58.5t-152.5 -27.5l-11 -64q6 -2 16.5 -6.5t36.5 -21t44 -36t28.5 -52.5t2.5 -71q-11 -48 -48 -78t-83 -38t-90 -9.5t-74 2.5l-30 5l8 80q8 -1 21.5 -3t49 -3t63.5 3t53 18.5t30 39.5
q8 40 -28 68t-76 36l-40 8l19 128q-121 16 -217 71t-153 126.5t-95 158t-52 159t-14 135.5z" />
    <glyph glyph-name="Egrave" unicode="&#xc8;" horiz-adv-x="1056" 
d="M1035 95v-57q0 -15 -10.5 -26t-25.5 -11h-908q-13 0 -16.5 10.5t6.5 18.5q27 20 27 72v1087q0 55 -27 75l-1 1q-1 1 -2.5 3t-3 4.5t-1.5 5.5t1.5 5.5t5.5 5t11 4.5h881q15 0 26 -11t11 -26v-57q0 -14 -16.5 -17.5t-23.5 9.5q-30 53 -97 53h-494v-558h346q67 0 97 52
q7 13 23.5 9.5t16.5 -17.5v-141q0 -14 -16.5 -17.5t-23.5 9.5q-30 53 -97 53h-346v-584h520q68 0 98 53q8 13 23.5 9.5t15.5 -17.5zM659 1371h-66l-210 242h163z" />
    <glyph glyph-name="Eacute" unicode="&#xc9;" horiz-adv-x="1056" 
d="M1035 95v-57q0 -15 -10.5 -26t-25.5 -11h-908q-13 0 -16.5 10.5t6.5 18.5q27 20 27 72v1087q0 55 -27 75l-1 1q-1 1 -2.5 3t-3 4.5t-1.5 5.5t1.5 5.5t5.5 5t11 4.5h881q15 0 26 -11t11 -26v-57q0 -14 -16.5 -17.5t-23.5 9.5q-30 53 -97 53h-494v-558h346q67 0 97 52
q7 13 23.5 9.5t16.5 -17.5v-141q0 -14 -16.5 -17.5t-23.5 9.5q-30 53 -97 53h-346v-584h520q68 0 98 53q8 13 23.5 9.5t15.5 -17.5zM779 1613l-210 -242h-65l112 242h163z" />
    <glyph glyph-name="Ecircumflex" unicode="&#xca;" horiz-adv-x="1056" 
d="M1035 95l1 -57q0 -15 -11 -26t-26 -11h-908q-13 0 -16.5 10.5t6.5 18.5q27 20 27 72v1087q0 55 -27 75l-1 1q-1 1 -2.5 3t-3 4.5t-1.5 5.5t1.5 5.5t5.5 5t11 4.5h881q15 0 26 -11t11 -26v-57q0 -14 -16.5 -17.5t-23.5 9.5q-30 53 -97 53h-494v-558h346q67 0 97 52
q7 13 23.5 9.5t16.5 -17.5v-141q0 -14 -16.5 -17.5t-23.5 9.5q-30 53 -97 53h-346v-584h520q68 0 98 53q8 13 23.5 9.5t15.5 -17.5zM560 1543l-102 -173h-104l148 241h116l147 -241h-103z" />
    <glyph glyph-name="Edieresis" unicode="&#xcb;" horiz-adv-x="1056" 
d="M1035 95v-57q0 -15 -10.5 -26t-25.5 -11h-908q-13 0 -16.5 10.5t6.5 18.5q27 20 27 72v1087q0 55 -27 75l-1 1q-1 1 -2.5 3t-3 4.5t-1.5 5.5t1.5 5.5t5.5 5t11 4.5h881q15 0 26 -11t11 -26v-57q0 -14 -16.5 -17.5t-23.5 9.5q-30 53 -97 53h-494v-558h346q67 0 97 52
q7 13 23.5 9.5t16.5 -17.5v-141q0 -14 -16.5 -17.5t-23.5 9.5q-30 53 -97 53h-346v-584h520q68 0 98 53q8 13 23.5 9.5t15.5 -17.5zM677 1372q-38 0 -62.5 25.5t-24.5 65.5q0 39 24.5 65.5t62.5 26.5t63.5 -26.5t25.5 -65.5q0 -40 -25 -65.5t-64 -25.5zM442 1372
q-38 0 -62.5 25.5t-24.5 65.5q0 39 24.5 65.5t62.5 26.5t63.5 -26.5t25.5 -65.5q0 -40 -25 -65.5t-64 -25.5z" />
    <glyph glyph-name="Igrave" unicode="&#xcc;" horiz-adv-x="489" 
d="M379 105q0 -55 27 -75q10 -8 7 -18.5t-16 -10.5h-305q-13 0 -16 10.5t7 18.5q26 19 26 72v1087q0 56 -26 75q-10 8 -7 18.5t16 10.5h305q13 0 16 -10.5t-7 -18.5q-26 -19 -26 -72zM308 1371h-66l-209 242h163z" />
    <glyph glyph-name="Iacute" unicode="&#xcd;" horiz-adv-x="487" 
d="M405 1264q-27 -20 -27 -72v-1087q0 -55 27 -75q10 -8 6.5 -18.5t-16.5 -10.5h-304q-13 0 -16.5 10.5t6.5 18.5q27 20 27 72v1087q0 55 -27 75q-10 8 -6.5 18.5t16.5 10.5h304q13 0 16.5 -10.5t-6.5 -18.5zM505 1613l-210 -242h-66l113 242h163z" />
    <glyph glyph-name="Icircumflex" unicode="&#xce;" horiz-adv-x="489" 
d="M406 1264q-26 -19 -26 -72l-1 -1087q0 -55 27 -75q10 -8 7 -18.5t-16 -10.5h-305q-13 0 -16 10.5t7 18.5q26 19 26 72l1 1087q0 55 -27 75q-10 8 -7 18.5t16 10.5h305q13 0 16 -10.5t-7 -18.5zM244 1544l-101 -173h-104l147 242h116l148 -242h-104z" />
    <glyph glyph-name="Idieresis" unicode="&#xcf;" horiz-adv-x="487" 
d="M404 1264q-26 -19 -26 -72v-1087q0 -56 26 -75q10 -8 7 -18.5t-16 -10.5h-304q-13 0 -16.5 10.5t6.5 18.5q27 20 27 72v1087q0 55 -27 75q-10 8 -6.5 18.5t16.5 10.5h304q13 0 16 -10.5t-7 -18.5zM214 1463q0 -40 -25.5 -65.5t-64.5 -25.5q-38 0 -62.5 25.5t-24.5 65.5
q0 39 24.5 65.5t62.5 26.5t64 -27t26 -65zM359 1555q38 0 64 -27t26 -65q0 -40 -25.5 -65.5t-64.5 -25.5q-38 0 -62.5 25.5t-24.5 65.5q0 39 24.5 65.5t62.5 26.5z" />
    <glyph glyph-name="Ntilde" unicode="&#xd1;" horiz-adv-x="1218" 
d="M1116 1252l2 -1251h-47l-912 1140v-174q0 -105 15.5 -211.5t41.5 -196t56 -168.5t63 -144t58 -109t46 -76.5t21 -33.5q5 -9 0 -17.5t-16 -8.5h-289q-17 0 -29 12t-12 28l-7 1108q0 23 -4.5 42t-8.5 28t-13.5 25t-12.5 21q-5 9 0 18t15 9h317l664 -824q-9 91 -29 182
t-46 166.5t-53.5 142.5t-57 122t-50.5 91.5t-39 64t-18 28.5q-5 9 0 17.5t15 8.5q3 0 122 0.5t168 0.5q16 0 28 -12t12 -29zM479 1460q-29 0 -55.5 -16t-39.5 -32l-12 -15v96q4 5 13 13.5t42.5 22t73.5 13.5q42 0 105 -29t101 -29q21 0 47 14.5t42 29.5l16 14v-92
q-34 -29 -57.5 -36.5t-75.5 -8.5q-33 -1 -100.5 27t-99.5 28z" />
    <glyph glyph-name="Ograve" unicode="&#xd2;" horiz-adv-x="1429" 
d="M963 65q90 38 133.5 148t31 263.5t-79.5 311.5t-168 273.5t-210 161t-199 7.5t-133.5 -148t-31 -263t79.5 -311t168 -273.5t210 -161.5t199 -8zM690 1317q181 0 338.5 -90t253 -244.5t101.5 -335.5t-78 -335t-234.5 -243.5t-332.5 -89.5q-181 0 -338.5 89.5t-253 244
t-101.5 335.5q-6 182 78 336t235 243.5t332 89.5zM852 1371h-66l-209 242h163z" />
    <glyph glyph-name="Oacute" unicode="&#xd3;" horiz-adv-x="1429" 
d="M963 65q90 38 133.5 148t31 263.5t-79.5 311.5t-168 273.5t-210 161t-199 7.5t-133.5 -148t-31 -263t79.5 -311t168 -273.5t210 -161.5t199 -8zM690 1317q181 0 338.5 -90t253 -244.5t101.5 -335.5t-78 -335t-234.5 -243.5t-332.5 -89.5q-181 0 -338.5 89.5t-253 244
t-101.5 335.5q-6 182 78 336t235 243.5t332 89.5zM912 1613l-209 -242h-66l112 242h163z" />
    <glyph glyph-name="Ocircumflex" unicode="&#xd4;" horiz-adv-x="1429" 
d="M963 65q90 38 133.5 148t31 263.5t-79.5 311.5t-168 273.5t-210 161t-199 7.5t-133.5 -148t-31 -263t79.5 -311t168 -273.5t210 -161.5t199 -8zM690 1317q181 0 338.5 -90t253 -244.5t101.5 -335.5t-78 -335t-234.5 -243.5t-332.5 -89.5q-181 0 -338.5 89.5t-253 244
t-101.5 335.5q-6 182 78 336t235 243.5t332 89.5zM714 1544l-101 -173h-104l147 242h116l148 -242h-104z" />
    <glyph glyph-name="Otilde" unicode="&#xd5;" horiz-adv-x="1429" 
d="M963 65q90 38 133.5 148t31 263.5t-79.5 311.5t-168 273.5t-210 161t-199 7.5t-133.5 -148t-31 -263t79.5 -311t168 -273.5t210 -161.5t199 -8zM690 1317q181 0 338.5 -90t253 -244.5t101.5 -335.5t-78 -335t-234.5 -243.5t-332.5 -89.5q-181 0 -338.5 89.5t-253 244
t-101.5 335.5q-6 182 78 336t235 243.5t332 89.5zM601 1460q-29 0 -55.5 -16t-39.5 -32l-12 -15v96q4 5 13 13.5t42.5 22t73.5 13.5q42 0 105.5 -29t101.5 -29q21 0 47 14.5t41 29.5l16 14v-92q-34 -29 -57.5 -36.5t-75.5 -8.5q-33 -1 -100.5 27t-99.5 28z" />
    <glyph glyph-name="Odieresis" unicode="&#xd6;" horiz-adv-x="1429" 
d="M963 65q90 38 133.5 148t31 263.5t-79.5 311.5t-168 273.5t-210 161t-199 7.5t-133.5 -148t-31 -263t79.5 -311t168 -273.5t210 -161.5t199 -8zM690 1317q181 0 338.5 -90t253 -244.5t101.5 -335.5t-78 -335t-234.5 -243.5t-332.5 -89.5q-181 0 -338.5 89.5t-253 244
t-101.5 335.5q-6 182 78 336t235 243.5t332 89.5zM829 1372q-38 0 -62.5 25.5t-24.5 65.5q0 39 24.5 65.5t62.5 26.5t64 -27t26 -65q0 -40 -25.5 -65.5t-64.5 -25.5zM595 1372q-38 0 -62.5 25.5t-24.5 65.5q0 39 24.5 65.5t62.5 26.5t63.5 -26.5t25.5 -65.5q0 -40 -25 -65.5
t-64 -25.5z" />
    <glyph glyph-name="multiply" unicode="&#xd7;" horiz-adv-x="823" 
d="M751 777l-254 -255l230 -230l-57 -58l-231 231l-260 -260l-109 109l260 261l-231 230l57 57l231 -230l255 254z" />
    <glyph glyph-name="Oslash" unicode="&#xd8;" horiz-adv-x="1445" 
d="M971 63q99 42 141.5 170.5t15.5 304.5t-120 346l-509 -568q107 -155 236.5 -226t235.5 -27zM479 1228q-74 -31 -116.5 -114t-49 -193.5t25.5 -245.5t101 -263l509 568q-106 153 -235.5 222.5t-234.5 25.5zM1199 1097q99 -104 147.5 -232t45.5 -250t-51 -239t-130 -204.5
t-203.5 -141t-261.5 -53.5q-232 0 -420 146l-155 -173l-80 72l155 173q-99 104 -147.5 232t-45.5 250t51 239t130 204.5t203.5 141t261.5 53.5q232 0 420 -146l155 173l80 -72z" />
    <glyph glyph-name="Ugrave" unicode="&#xd9;" horiz-adv-x="1177" 
d="M1099 1293q13 0 16 -10.5t-7 -18.5q-26 -19 -26 -75l-1 -653q0 -279 -125.5 -411t-345.5 -132q-95 0 -172.5 19t-130.5 51t-92.5 79t-62 96.5t-36.5 111.5t-18.5 115t-4.5 116l1 608q0 55 -27 75q-10 8 -6.5 18.5t16.5 10.5h304q13 0 16.5 -10.5t-6.5 -18.5
q-27 -20 -27 -75l1 -648q0 -492 333 -492q150 0 247.5 123.5t97.5 360.5v656q0 55 -27 75q-10 8 -6.5 18.5t16.5 10.5h73zM694 1371h-66l-209 242h163z" />
    <glyph glyph-name="Uacute" unicode="&#xda;" horiz-adv-x="1177" 
d="M1099 1293q13 0 16 -10.5t-7 -18.5q-26 -19 -26 -75l-1 -653q0 -279 -125.5 -411t-345.5 -132q-95 0 -172.5 19t-130.5 51t-92.5 79t-62 96.5t-36.5 111.5t-18.5 115t-4.5 116l1 608q0 55 -27 75q-10 8 -6.5 18.5t16.5 10.5h304q13 0 16.5 -10.5t-6.5 -18.5
q-27 -20 -27 -75l1 -648q0 -492 333 -492q150 0 247.5 123.5t97.5 360.5v656q0 55 -27 75q-10 8 -6.5 18.5t16.5 10.5h73zM890 1613l-209 -242h-66l112 242h163z" />
    <glyph glyph-name="Ucircumflex" unicode="&#xdb;" horiz-adv-x="1177" 
d="M1099 1295q13 0 16 -10.5t-7 -18.5q-26 -19 -26 -75l-1 -653q0 -143 -34 -248.5t-97.5 -169.5t-148 -94.5t-190.5 -30.5q-95 0 -172.5 19t-130.5 51t-92.5 79t-62.5 96.5t-37 111.5t-18.5 115.5t-4.5 115.5l1 608q0 55 -27 75q-10 8 -6.5 18.5t16.5 10.5h304
q13 0 16.5 -10.5t-6.5 -18.5q-27 -20 -27 -75l1 -648q0 -492 333 -492q150 0 247.5 123t97.5 360v657q0 55 -27 75q-10 8 -6.5 18.5t16.5 10.5h73zM622 1544l-102 -173h-103l147 242h116l148 -242h-104z" />
    <glyph glyph-name="Udieresis" unicode="&#xdc;" horiz-adv-x="1177" 
d="M1099 1295q13 0 16 -10.5t-7 -18.5q-26 -19 -26 -75l-1 -653q0 -143 -34 -248.5t-97.5 -169.5t-148 -94.5t-190.5 -30.5q-95 0 -172.5 19t-130.5 51t-92.5 79t-62.5 96.5t-37 111.5t-18.5 115.5t-4.5 115.5l1 608q0 55 -27 75q-10 8 -6.5 18.5t16.5 10.5h304
q13 0 16.5 -10.5t-6.5 -18.5q-27 -20 -27 -75l1 -648q0 -492 333 -492q150 0 247.5 123t97.5 360v657q0 55 -27 75q-10 8 -6.5 18.5t16.5 10.5h73zM704 1370q-38 0 -62.5 25.5t-24.5 65.5q0 39 24.5 65t62.5 26t64 -26.5t26 -64.5q0 -40 -25.5 -65.5t-64.5 -25.5zM469 1370
q-38 0 -62.5 25.5t-24.5 65.5q0 39 24.5 65t62.5 26t64 -26.5t26 -64.5q0 -40 -25.5 -65.5t-64.5 -25.5z" />
    <glyph glyph-name="Yacute" unicode="&#xdd;" horiz-adv-x="1054" 
d="M659 107q0 -55 27 -75q10 -8 6.5 -18.5t-16.5 -10.5h-304q-13 0 -16.5 10.5t6.5 18.5q27 20 27 72v588q-243 382 -288.5 449t-99.5 119q-11 10 -9 23t13 13h333q16 0 21 -11t1 -22q-8 -24 41 -108.5t257 -411.5q52 60 87 146.5t47 163t10 137t-18 79.5q-7 8 -4 17.5
t14 9.5h244q18 0 18 -17q0 -72 -135.5 -261.5t-261.5 -325.5v-585zM759 1610l-210 -241h-65l112 241h163z" />
    <glyph glyph-name="germandbls" unicode="&#xdf;" horiz-adv-x="1185" 
d="M866 729q54 -20 106 -59t93.5 -96.5t62.5 -123.5t10 -148t-60 -162q-51 -83 -134 -120.5t-168.5 -28t-167.5 58t-135 126.5l149 132q35 -53 95.5 -102t123 -77.5t119 -24.5t81.5 50q27 46 21.5 94.5t-30.5 94t-74.5 86t-109.5 71t-135.5 48t-153.5 17.5v39
q58 198 102 384q13 54 16.5 101.5t-3.5 94.5t-37.5 74.5t-83.5 27.5q-33 0 -59 -11.5t-43.5 -29.5t-29.5 -46.5t-19 -55.5t-10.5 -65t-4.5 -66t-1 -66v-952h-292v910q0 88 27.5 160t71.5 118t102 77t115 44t115 13q39 0 79.5 -6.5t86.5 -24t84.5 -44.5t70 -73.5t46.5 -105.5
t9.5 -145t-35.5 -188z" />
    <glyph glyph-name="agrave" unicode="&#xe0;" 
d="M632 106v766q-3 4 -9.5 10t-31 16t-53.5 10q-74 0 -125.5 -59t-74 -152t-22.5 -213q0 -215 54 -322.5t137 -107.5q67 0 125 52zM762 -5q-74 0 -130 71q-55 -49 -120.5 -69.5t-129 -12.5t-123 45.5t-104.5 96.5t-72.5 148.5t-27.5 194.5q0 97 27 181.5t72.5 143.5
t105.5 100t125.5 56t134.5 5.5t130 -44.5q74 -42 142 -11q10 5 31.5 14.5t29.5 12.5q20 7 29.5 0.5t9.5 -20.5v-855q1 -7 3.5 -10.5t9.5 -2.5q11 1 16 -10t0.5 -22.5t-16.5 -11.5h-143zM627 1046h-66l-209 241h163z" />
    <glyph glyph-name="aacute" unicode="&#xe1;" 
d="M632 106l1 766q-3 4 -10 10t-31.5 16t-53.5 10q-74 0 -125.5 -59t-74 -152t-22.5 -213q0 -215 54 -322.5t137 -107.5q67 0 125 52zM762 -5q-77 0 -130 71q-55 -49 -120.5 -69.5t-129 -12.5t-123 45.5t-104.5 96.5t-72.5 148.5t-27.5 194.5q0 97 27 181.5t72.5 143.5
t105.5 100t125.5 56t134.5 5.5t130 -44.5q74 -42 142 -11q10 5 31.5 14.5t29.5 12.5q20 7 29.5 0.5t9.5 -20.5v-855q1 -7 3.5 -10.5t9.5 -2.5q11 1 16 -10t0.5 -22.5t-16.5 -11.5h-143zM701 1287l-210 -241h-66l113 241h163z" />
    <glyph glyph-name="acircumflex" unicode="&#xe2;" 
d="M632 106v766q-3 4 -9.5 10t-31 16t-53.5 10q-74 0 -125.5 -59t-74 -152t-22.5 -213q0 -215 54 -322.5t137 -107.5q67 0 125 52zM762 -5q-74 0 -130 71q-55 -49 -120.5 -69.5t-129 -12.5t-123 45.5t-104.5 96.5t-72.5 148.5t-27.5 194.5q0 97 27 181.5t72.5 143.5
t105.5 100t125.5 56t134.5 5.5t130 -44.5q74 -42 142 -11q10 5 31.5 14.5t29.5 12.5q20 7 29.5 0.5t9.5 -20.5v-855q1 -7 3.5 -10.5t9.5 -2.5q11 1 16 -10t0.5 -22.5t-16.5 -11.5h-143zM522 1218l-102 -172h-104l148 241h116l147 -241h-104z" />
    <glyph glyph-name="atilde" unicode="&#xe3;" 
d="M632 106v766q-3 4 -9.5 10t-31 16t-53.5 10q-74 0 -125.5 -59t-74 -152t-22.5 -213q0 -215 54 -322.5t137 -107.5q67 0 125 52zM762 -5q-74 0 -130 71q-55 -49 -120.5 -69.5t-129 -12.5t-123 45.5t-104.5 96.5t-72.5 148.5t-27.5 194.5q0 97 27 181.5t72.5 143.5
t105.5 100t125.5 56t134.5 5.5t130 -44.5q74 -42 142 -11q10 5 31.5 14.5t29.5 12.5q20 7 29.5 0.5t9.5 -20.5v-855q1 -7 3.5 -10.5t9.5 -2.5q11 1 16 -10t0.5 -22.5t-16.5 -11.5h-143zM423 1136q-29 0 -55.5 -16t-39.5 -32l-12 -16v97q4 5 13 13t42.5 21.5t73.5 13.5
q42 0 105 -28.5t101 -28.5q21 0 47 14t42 28l16 15v-91q-34 -30 -58 -37.5t-75 -8.5q-33 -1 -100.5 27.5t-99.5 28.5z" />
    <glyph glyph-name="adieresis" unicode="&#xe4;" 
d="M632 106v766q-3 4 -9.5 10t-31 16t-53.5 10q-74 0 -125.5 -59t-74 -152t-22.5 -213q0 -215 54 -322.5t137 -107.5q67 0 125 52zM762 -5q-74 0 -130 71q-55 -49 -120.5 -69.5t-129 -12.5t-123 45.5t-104.5 96.5t-72.5 148.5t-27.5 194.5q0 97 27 181.5t72.5 143.5
t105.5 100t125.5 56t134.5 5.5t130 -44.5q74 -42 142 -11q10 5 31.5 14.5t29.5 12.5q20 7 29.5 0.5t9.5 -20.5v-855q1 -7 3.5 -10.5t9.5 -2.5q11 1 16 -10t0.5 -22.5t-16.5 -11.5h-143zM634 1046q-38 0 -62.5 25.5t-24.5 65.5q0 39 24.5 65.5t62.5 26.5t64 -27t26 -65
q0 -40 -25.5 -65.5t-64.5 -25.5zM400 1046q-38 0 -62.5 25.5t-24.5 65.5q0 39 24.5 65.5t62.5 26.5t63.5 -26.5t25.5 -65.5q0 -40 -25 -65.5t-64 -25.5z" />
    <glyph glyph-name="aring" unicode="&#xe5;" 
d="M632 106v766q-3 4 -9.5 10t-31 16t-53.5 10q-74 0 -125.5 -59t-74 -152t-22.5 -213q0 -215 54 -322.5t137 -107.5q67 0 125 52zM762 -5q-74 0 -130 71q-55 -49 -120.5 -69.5t-129 -12.5t-123 45.5t-104.5 96.5t-72.5 148.5t-27.5 194.5q0 97 27 181.5t72.5 143.5
t105.5 100t125.5 56t134.5 5.5t130 -44.5q74 -42 142 -11q10 5 31.5 14.5t29.5 12.5q20 7 29.5 0.5t9.5 -20.5v-855q1 -7 3.5 -10.5t9.5 -2.5q11 1 16 -10t0.5 -22.5t-16.5 -11.5h-143zM532 1239q-33 0 -56.5 -24t-23.5 -57t23.5 -56.5t56.5 -23.5t57 23.5t24 56.5
q0 34 -24 57.5t-57 23.5zM532 1001q-65 0 -111 46t-46 111t46 111.5t111 46.5t111.5 -46.5t46.5 -111.5t-46.5 -111t-111.5 -46z" />
    <glyph glyph-name="ae" unicode="&#xe6;" horiz-adv-x="1576" 
d="M1093 914q-70 0 -114.5 -47.5t-56.5 -117.5t-8 -145t24 -136t46 -84q118 0 196 114q67 99 67 220q1 119 -68 170q-36 26 -86 26zM632 106v766q-3 4 -9.5 10t-31 16.5t-53.5 10.5q-74 0 -125.5 -59t-74 -152.5t-22.5 -213.5q0 -215 54 -322.5t137 -107.5q67 0 125 52z
M762 -5q-74 0 -130 71q-55 -49 -120.5 -69.5t-129 -12.5t-123 45.5t-104.5 96.5t-72.5 148.5t-27.5 194.5q0 97 27 181.5t72.5 143.5t105.5 100t125.5 56t134.5 5.5t130 -44.5q74 -42 142 -11q10 5 31.5 14.5t29.5 12.5q20 7 29.5 0.5t9.5 -20.5v-4q102 57 234 57
q177 0 283 -87.5t106 -208.5q0 -78 -47 -139.5t-123.5 -98t-166 -55.5t-182.5 -19q5 -10 15.5 -27t44.5 -59.5t71.5 -75t95 -59.5t116.5 -27q98 0 159 85q4 6 12.5 4.5t12 -8.5t-0.5 -16q-40 -74 -148 -127.5t-253 -53.5q-107 0 -201 43q6 -10 2 -23t-17 -13h-143z" />
    <glyph glyph-name="ccedilla" unicode="&#xe7;" horiz-adv-x="919" 
d="M864 199q3 3 8.5 1.5t8.5 -6.5t0 -11q-33 -51 -81.5 -93t-130.5 -72t-175 -25h-9h1l-5 -34q7 -1 19.5 -3.5t41.5 -15.5t49.5 -31.5t32.5 -55.5t2 -83q-11 -52 -48.5 -84.5t-82.5 -42t-88.5 -11.5t-72.5 2l-29 5l7 86q9 -1 23 -3t51 -2.5t66.5 4t55.5 20t31 42.5t-10.5 47
t-41 28.5t-51.5 13t-45 4.5h-19l19 126l28 -4q-170 31 -268 157t-98 321q0 212 127.5 349t325.5 137q137 0 221.5 -57t154.5 -180l-218 -81q-1 4 -2.5 12t-8 30.5t-14 44t-21 49.5t-28 50.5t-36 43t-45 31t-54.5 10.5t-64 -14q-54 -24 -78 -98.5t-18 -161.5t33 -166
q59 -178 159 -271t202 -93q100 0 175 85z" />
    <glyph glyph-name="egrave" unicode="&#xe8;" horiz-adv-x="968" 
d="M485 908q-70 0 -114.5 -47.5t-56.5 -117.5t-8 -145t24 -136t46 -84q118 0 196 114q67 99 67 220q1 119 -68 170q-36 26 -86 26zM889 183q5 5 12.5 4.5t12.5 -8.5t0 -16q-40 -74 -148 -127.5t-253 -53.5q-127 0 -226.5 53.5t-151 139.5t-75 189.5t1 207t76.5 189.5
t152.5 139.5t227.5 53.5q177 0 283 -87.5t106 -208.5q0 -78 -47 -139.5t-123.5 -98t-166 -55.5t-182.5 -19q5 -10 15.5 -27t44.5 -59.5t71 -75t94.5 -59.5t116.5 -27q98 0 159 85zM591 1050h-66l-209 241h163z" />
    <glyph glyph-name="eacute" unicode="&#xe9;" horiz-adv-x="968" 
d="M485 908q-70 0 -114.5 -47.5t-56.5 -117.5t-8 -145t24 -136t46 -84q118 0 196 114q67 99 67 220q1 119 -68 170q-36 26 -86 26zM889 183q5 5 12.5 4.5t12.5 -8.5t0 -16q-40 -74 -148 -127.5t-253 -53.5q-127 0 -226.5 53.5t-151 139.5t-75 189.5t1 207t76.5 189.5
t152.5 139.5t227.5 53.5q177 0 283 -87.5t106 -208.5q0 -78 -47 -139.5t-123.5 -98t-166 -55.5t-182.5 -19q5 -10 15.5 -27t44.5 -59.5t71 -75t94.5 -59.5t116.5 -27q98 0 159 85zM708 1291l-209 -241h-66l112 241h163z" />
    <glyph glyph-name="ecircumflex" unicode="&#xea;" horiz-adv-x="968" 
d="M485 908q-70 0 -114.5 -47.5t-56.5 -117.5t-8 -145t24 -136t46 -84q118 0 196 114q67 99 67 220q1 119 -68 170q-36 26 -86 26zM889 183q5 5 12.5 4.5t12.5 -8.5t0 -16q-40 -74 -148 -127.5t-253 -53.5q-127 0 -226.5 53.5t-151 139.5t-75 189.5t1 207t76.5 189.5
t152.5 139.5t227.5 53.5q177 0 283 -87.5t106 -208.5q0 -78 -47 -139.5t-123.5 -98t-166 -55.5t-182.5 -19q5 -10 15.5 -27t44.5 -59.5t71 -75t94.5 -59.5t116.5 -27q98 0 159 85zM492 1221l-102 -173h-104l148 241h116l147 -241h-103z" />
    <glyph glyph-name="edieresis" unicode="&#xeb;" horiz-adv-x="968" 
d="M485 908q-70 0 -114.5 -47.5t-56.5 -117.5t-8 -145t24 -136t46 -84q118 0 196 114q67 99 67 220q1 119 -68 170q-36 26 -86 26zM889 183q5 5 12.5 4.5t12.5 -8.5t0 -16q-40 -74 -148 -127.5t-253 -53.5q-127 0 -226.5 53.5t-151 139.5t-75 189.5t1 207t76.5 189.5
t152.5 139.5t227.5 53.5q177 0 283 -87.5t106 -208.5q0 -78 -47 -139.5t-123.5 -98t-166 -55.5t-182.5 -19q5 -10 15.5 -27t44.5 -59.5t71 -75t94.5 -59.5t116.5 -27q98 0 159 85zM615 1050q-38 0 -62.5 26t-24.5 66q0 39 24.5 65t62.5 26t64 -26.5t26 -64.5
q0 -40 -25.5 -66t-64.5 -26zM380 1050q-38 0 -62.5 26t-24.5 66q0 39 24.5 65t62.5 26t64 -26.5t26 -64.5q0 -40 -25.5 -66t-64.5 -26z" />
    <glyph glyph-name="igrave" unicode="&#xec;" horiz-adv-x="471" 
d="M397 28q10 -8 7 -18.5t-16 -10.5h-305q-13 0 -16 10.5t7 18.5q26 19 26 72v658v7t-1 6t-4 5.5t-8 0.5q-18 -2 -22 16.5t14 27.5q179 82 250 110q21 7 31 1t10 -20v-809q0 -55 27 -75zM339 1050h-66l-210 241h164z" />
    <glyph glyph-name="iacute" unicode="&#xed;" horiz-adv-x="473" 
d="M371 103q0 -55 27 -75q10 -8 7 -18.5t-16 -10.5h-305q-13 0 -16 10.5t7 18.5q26 19 26 72v658v7t-1 6t-4 5.5t-8 0.5q-18 -2 -22 16.5t14 27.5q179 82 250 110q21 7 31 1t10 -20v-809zM433 1291l-210 -241h-65l112 241h163z" />
    <glyph glyph-name="icircumflex" unicode="&#xee;" horiz-adv-x="471" 
d="M371 103q0 -55 27 -75q10 -8 6.5 -18.5t-16.5 -10.5h-304q-13 0 -16.5 10.5t6.5 18.5q27 20 27 72v658v7t-1 6t-4 5.5t-8 0.5q-18 -2 -22 16.5t14 27.5q179 82 250 110q21 7 31 1t10 -20v-809zM234 1222l-102 -172h-103l147 241h116l148 -241h-104z" />
    <glyph glyph-name="idieresis" unicode="&#xef;" horiz-adv-x="473" 
d="M371 103q0 -55 27 -75q10 -8 6.5 -18.5t-16.5 -10.5h-304q-13 0 -16.5 10.5t6.5 18.5q27 20 27 72v658v7t-1 6t-4 5.5t-8 0.5q-18 -2 -22 16.5t14 27.5q179 82 250 110q21 7 31 1t10 -20v-809zM210 1142q0 -40 -25.5 -66t-64.5 -26q-38 0 -62.5 26t-24.5 66q0 39 24.5 65
t62.5 26t64 -26.5t26 -64.5zM355 1233q38 0 64 -26.5t26 -64.5q0 -40 -25.5 -66t-64.5 -26q-38 0 -62.5 26t-24.5 66q0 39 24.5 65t62.5 26z" />
    <glyph glyph-name="ntilde" unicode="&#xf1;" horiz-adv-x="1013" 
d="M942 28q10 -8 7 -18.5t-16 -10.5h-305q-13 0 -16 10.5t7 18.5q26 19 26 75v589q0 152 -116 152q-81 0 -157 -81v-660q0 -55 27 -75q10 -8 6.5 -18.5t-16.5 -10.5h-304q-13 0 -16.5 10.5t6.5 18.5q27 20 27 75v729q0 54 -27 74q-10 8 -6.5 18.5t16.5 10.5h221q28 0 47 -19
t19 -47v-57q48 55 125.5 99t184.5 44q103 0 168.5 -67t65.5 -152v-633q0 -56 26 -75zM396 1139q-29 0 -55.5 -16t-38.5 -32l-13 -16v96q4 5 13 13.5t42.5 22t73.5 13.5q42 0 105 -28.5t101 -28.5q21 0 47 14.5t42 28.5l16 14v-91q-34 -30 -58 -37.5t-75 -8.5
q-33 -1 -100.5 27.5t-99.5 28.5z" />
    <glyph glyph-name="ograve" unicode="&#xf2;" horiz-adv-x="1034" 
d="M709 61q63 29 51.5 172.5t-91.5 319.5q-79 175 -180 279t-164 75t-51.5 -172.5t91.5 -319.5q79 -175 180 -279t164 -75zM935 674q42 -92 46.5 -190.5t-24 -184t-90 -156.5t-146.5 -110q-86 -41 -179 -38.5t-176.5 36.5t-154 102.5t-112.5 160.5t-46.5 190.5t24 184
t89.5 156.5t146 110q86 41 179 38.5t177 -36.5t154.5 -102.5t112.5 -160.5zM568 1068h-66l-209 241h163z" />
    <glyph glyph-name="oacute" unicode="&#xf3;" horiz-adv-x="1034" 
d="M709 61q63 29 51.5 172.5t-91.5 319.5q-79 175 -180 279t-164 75t-51.5 -172.5t91.5 -319.5q79 -175 180 -279t164 -75zM935 674q42 -92 46.5 -190.5t-24 -184t-90 -156.5t-146.5 -110q-86 -41 -179 -38.5t-176.5 36.5t-154 102.5t-112.5 160.5t-46.5 190.5t24 184
t89.5 156.5t146 110q86 41 179 38.5t177 -36.5t154.5 -102.5t112.5 -160.5zM747 1309l-210 -241h-65l112 241h163z" />
    <glyph glyph-name="ocircumflex" unicode="&#xf4;" horiz-adv-x="1034" 
d="M709 61q63 29 51.5 172.5t-91.5 319.5q-79 175 -180 279t-164 75t-51.5 -172.5t91.5 -319.5q79 -175 180 -279t164 -75zM935 674q42 -92 46.5 -190.5t-24 -184t-90 -156.5t-146.5 -110q-86 -41 -179 -38.5t-176.5 36.5t-154 102.5t-112.5 160.5t-46.5 190.5t24 184
t89.5 156.5t146 110q86 41 179 38.5t177 -36.5t154.5 -102.5t112.5 -160.5zM517 1241l-102 -173h-104l148 241h116l147 -241h-103z" />
    <glyph glyph-name="otilde" unicode="&#xf5;" horiz-adv-x="1034" 
d="M709 61q63 29 51.5 172.5t-91.5 319.5q-79 175 -180 279t-164 75t-51.5 -172.5t91.5 -319.5q79 -175 180 -279t164 -75zM935 674q42 -92 46.5 -190.5t-24 -184t-90 -156.5t-146.5 -110q-86 -41 -179 -38.5t-176.5 36.5t-154 102.5t-112.5 160.5t-46.5 190.5t24 184
t89.5 156.5t146 110q86 41 179 38.5t177 -36.5t154.5 -102.5t112.5 -160.5zM404 1157q-29 0 -55.5 -16t-38.5 -32l-13 -16v97q4 5 13 13.5t42.5 22t73.5 13.5q42 0 105 -29t101 -29q21 0 47 14.5t42 28.5l16 15v-92q-34 -30 -58 -37.5t-75 -8.5q-33 -1 -100.5 27.5
t-99.5 28.5z" />
    <glyph glyph-name="odieresis" unicode="&#xf6;" horiz-adv-x="1034" 
d="M709 61q63 29 51.5 172.5t-91.5 319.5q-79 175 -180 279t-164 75t-51.5 -172.5t91.5 -319.5q79 -175 180 -279t164 -75zM935 674q42 -92 46.5 -190.5t-24 -184t-90 -156.5t-146.5 -110q-86 -41 -179 -38.5t-176.5 36.5t-154 102.5t-112.5 160.5t-46.5 190.5t24 184
t89.5 156.5t146 110q86 41 179 38.5t177 -36.5t154.5 -102.5t112.5 -160.5zM631 1069q-38 0 -62.5 25.5t-24.5 65.5q0 39 24.5 65t62.5 26t64 -26.5t26 -64.5q0 -40 -25.5 -65.5t-64.5 -25.5zM396 1069q-38 0 -62.5 25.5t-24.5 65.5q0 39 24.5 65t62.5 26t64 -26.5t26 -64.5
q0 -40 -25.5 -65.5t-64.5 -25.5z" />
    <glyph glyph-name="oslash" unicode="&#xf8;" horiz-adv-x="1044" 
d="M715 64q42 19 51 94t-18 188t-85 235l-224 -293q74 -121 150 -184t126 -40zM331 910q-41 -19 -51 -91.5t16.5 -186.5t86.5 -239l224 292q-74 122 -150 185t-126 40zM846 819q69 -74 105.5 -165.5t36.5 -182.5t-27.5 -176t-88.5 -153.5t-145 -106.5q-113 -49 -229.5 -35
t-216.5 84l-99 -130l-86 66l104 135q-68 74 -105 165.5t-37 182.5t27.5 175.5t88.5 153t145 106.5q113 49 229.5 35.5t216.5 -83.5l99 129l86 -66z" />
    <glyph glyph-name="ugrave" unicode="&#xf9;" horiz-adv-x="1013" 
d="M922 99q18 2 22 -16.5t-14 -27.5q-18 -8 -106 -27.5t-145 -28.5q-21 -3 -30.5 7t-9.5 25v82q-3 -5 -8 -14t-27 -32t-49 -40t-75.5 -31.5t-105.5 -14.5q-128 0 -203.5 66t-75.5 153l1 633q0 55 -27 75q-10 8 -6.5 18t16.5 10h304q13 0 16.5 -10t-6.5 -18q-27 -20 -27 -75
v-589q0 -64 36 -108t101 -44q61 0 98.5 39t37.5 98v604q0 55 -27 75q-10 8 -6.5 18.5t16.5 10.5h305q13 0 16 -10.5t-7 -18.5q-27 -20 -27 -75v-721q1 -7 3.5 -10.5t9.5 -2.5zM546 1050h-66l-209 241h163z" />
    <glyph glyph-name="uacute" unicode="&#xfa;" horiz-adv-x="1013" 
d="M922 99q18 2 22 -16.5t-14 -27.5q-18 -8 -106 -27.5t-145 -28.5q-21 -3 -30.5 7t-9.5 25v82q-3 -5 -8 -14t-27 -32t-49 -40t-75.5 -31.5t-105.5 -14.5q-128 0 -203.5 66t-75.5 153l1 633q0 55 -27 75q-10 8 -6.5 18t16.5 10h304q13 0 16.5 -10t-6.5 -18q-27 -20 -27 -75
v-589q0 -64 36 -108t101 -44q61 0 98.5 39t37.5 98v604q0 55 -27 75q-10 8 -6.5 18.5t16.5 10.5h305q13 0 16 -10.5t-7 -18.5q-27 -20 -27 -75v-721q1 -7 3.5 -10.5t9.5 -2.5zM686 1291l-209 -241h-66l112 241h163z" />
    <glyph glyph-name="ucircumflex" unicode="&#xfb;" horiz-adv-x="1013" 
d="M922 100q18 2 22 -16.5t-14 -27.5q-18 -8 -106 -27.5t-145 -28.5q-21 -3 -30.5 7t-9.5 25v82q-3 -5 -8 -14t-27 -32t-49 -40t-75.5 -31.5t-105.5 -14.5q-128 0 -203.5 66t-75.5 152l1 633q0 55 -27 75q-10 8 -6.5 18.5t16.5 10.5h304q13 0 16.5 -10.5t-6.5 -18.5
q-27 -20 -27 -75v-589q0 -64 36 -108t101 -44q61 0 98.5 39t37.5 98v604q0 55 -27 75q-10 8 -6.5 18.5t16.5 10.5h304q13 0 16.5 -10.5t-6.5 -18.5q-27 -20 -27 -75v-721q2 -13 13 -12zM503 1219l-102 -172h-104l148 241h116l148 -241h-104z" />
    <glyph glyph-name="udieresis" unicode="&#xfc;" horiz-adv-x="1013" 
d="M922 100q18 2 22 -16.5t-14 -27.5q-18 -8 -106 -27.5t-145 -28.5q-21 -3 -30.5 7t-9.5 25v82q-3 -5 -8 -14t-27 -32t-49 -40t-75.5 -31.5t-105.5 -14.5q-128 0 -203.5 66t-75.5 152l1 633q0 55 -27 75q-10 8 -6.5 18.5t16.5 10.5h304q13 0 16.5 -10.5t-6.5 -18.5
q-27 -20 -27 -75v-589q0 -64 36 -108t101 -44q61 0 98.5 39t37.5 98v604q0 55 -27 75q-10 8 -6.5 18.5t16.5 10.5h304q13 0 16.5 -10.5t-6.5 -18.5q-27 -20 -27 -75v-721q2 -13 13 -12zM648 1047q-38 0 -62.5 26t-24.5 66q0 39 24.5 65t62.5 26t64 -26.5t26 -64.5
q0 -40 -25.5 -66t-64.5 -26zM413 1047q-38 0 -62.5 26t-24.5 66q0 39 24.5 65t62.5 26t64 -26.5t26 -64.5q0 -40 -25.5 -66t-64.5 -26z" />
    <glyph glyph-name="yacute" unicode="&#xfd;" horiz-adv-x="854" 
d="M815 947q8 0 13.5 -5.5t4.5 -13.5q-4 -36 -22 -95.5t-35.5 -105.5t-43 -109t-30.5 -75q-21 -54 -130.5 -335.5t-111.5 -286.5q-31 -84 -54 -132.5t-55 -87.5t-70.5 -54.5t-93.5 -15.5q-73 0 -177 27.5t-172 54.5l-67 27l82 260q8 -13 22 -33.5t56 -73.5t83 -93.5t96 -74
t101 -33.5q19 0 36.5 4.5t31.5 10t28 17.5t23.5 21.5t21 27t18 28t16.5 32t14.5 31.5t14.5 33.5t13 31.5q-268 669 -319 815q-11 31 -30.5 67t-41 69.5t-24.5 38.5q-5 9 0 18.5t15 9.5h232q34 0 62 -19t39 -50l210 -581q23 59 64 169q34 89 22.5 186.5t-35.5 164.5t-50 101
q-4 5 -4.5 12t2.5 12t10 5h235zM682 1298l-209 -241h-66l112 241h163z" />
    <glyph glyph-name="ydieresis" unicode="&#xff;" horiz-adv-x="854" 
d="M815 947q8 0 13.5 -5.5t4.5 -13.5q-4 -36 -22 -95.5t-35.5 -105.5t-43 -109t-30.5 -75q-21 -54 -130.5 -335.5t-111.5 -286.5q-31 -84 -54 -132.5t-55 -87.5t-70.5 -54.5t-93.5 -15.5q-73 0 -177 27.5t-172 54.5l-67 27l82 260q8 -13 22 -33.5t56 -73.5t83 -93.5t96 -74
t101 -33.5q19 0 36.5 4.5t31.5 10t28 17.5t23.5 21.5t21 27t18 28t16.5 32t14.5 31.5t14.5 33.5t13 31.5q-268 669 -319 815q-11 31 -30.5 67t-41 69.5t-24.5 38.5q-5 9 0 18.5t15 9.5h232q34 0 62 -19t39 -50l210 -581q23 59 64 169q34 89 22.5 186.5t-35.5 164.5t-50 101
q-4 5 -4.5 12t2.5 12t10 5h235zM587 1057q-38 0 -62.5 26t-24.5 66q0 39 24.5 65t62.5 26t63.5 -26.5t25.5 -64.5q0 -40 -25.5 -66t-63.5 -26zM352 1057q-38 0 -62.5 26t-24.5 66q0 39 24.5 65t62.5 26t64 -26.5t26 -64.5q0 -40 -25.5 -66t-64.5 -26z" />
    <glyph glyph-name="dotlessi" unicode="&#x131;" horiz-adv-x="471" 
d="M396 29q10 -7 7 -18t-16 -11h-305q-13 0 -16 11t7 18q26 19 26 72v657q0 19 -9 20h-4q-18 -2 -22 16.5t14 27.5q179 82 250 110q21 7 31 1t10 -20v-809q0 -55 27 -75z" />
    <glyph glyph-name="OE" unicode="&#x152;" horiz-adv-x="2088" 
d="M963 65q90 38 133.5 148t31 263.5t-79.5 311.5t-168 273.5t-210 161t-199 7.5t-133.5 -148t-31 -263t79.5 -311t168 -273.5t210 -161.5t199 -8zM2067 95v-57q0 -15 -11 -26t-26 -11h-907q-13 0 -16.5 10.5t6.5 18.5q27 20 27 72v15q-175 -138 -402 -138
q-181 0 -338.5 89.5t-253 244t-101.5 335.5q-6 182 78 336t235 243.5t332 89.5q125 0 241 -44.5t209 -124.5v41q0 55 -27 75q-1 0 -1.5 1t-2.5 3t-3 4.5t-1.5 5.5t1 5.5t5.5 5t11 4.5h882q15 0 25.5 -11t10.5 -26v-57q0 -14 -16 -17.5t-24 9.5q-30 53 -97 53h-493v-558h345
q67 0 97 52q8 13 24 9.5t16 -17.5v-141q0 -14 -16 -17.5t-24 9.5q-30 53 -97 53h-345v-584h520q67 0 97 53q7 13 23.5 9.5t16.5 -17.5z" />
    <glyph glyph-name="oe" unicode="&#x153;" horiz-adv-x="1755" 
d="M1221 926q-70 0 -114.5 -47.5t-56.5 -117.5t-8 -145t24 -136t46 -84q118 0 196 114q67 99 67 220q1 119 -68 170q-36 26 -86 26zM760 60q63 29 51.5 172.5t-91.5 319.5t-180.5 279.5t-163.5 75.5q-63 -29 -51.5 -173t91.5 -320q79 -175 180 -279t164 -75zM897 809
q133 163 357 163q177 0 283 -88t106 -209q0 -78 -47 -139.5t-123.5 -97.5t-166 -55t-182.5 -19q5 -10 15.5 -27t44.5 -59.5t71.5 -75t95 -59.5t116.5 -27q98 0 159 85q5 5 12.5 4.5t12.5 -8.5t0 -16q-40 -74 -148 -127.5t-253 -53.5q-209 0 -335 137q-80 -89 -191.5 -122.5
t-219 -11.5t-204.5 98t-150 193q-42 92 -46.5 190.5t24 184t90 156t146.5 109.5q139 61 284 25.5t249 -150.5z" />
    <glyph glyph-name="Scaron" unicode="&#x160;" horiz-adv-x="1044" 
d="M625 797q376 -229 376 -448q0 -156 -132 -252.5t-351 -96.5q-99 0 -185 22t-138.5 53t-90.5 62.5t-54 53.5l-15 22l202 188q1 -8 3.5 -21.5t13.5 -52t24.5 -74t39 -78.5t55 -74t74 -52.5t95.5 -21.5q71 0 127.5 50.5t56.5 131.5q0 36 -17.5 72t-40.5 64.5t-67.5 65
t-76 59t-89.5 61.5q-72 48 -125.5 91.5t-109 101t-85.5 122.5t-30 132q0 75 34 140.5t90 109.5t127 69t145 25q84 0 161.5 -21t136 -56.5t99.5 -70t73 -72.5l-169 -181q-9 17 -24.5 45.5t-62.5 97.5t-93 118t-108.5 79.5t-115.5 8.5q-24 -10 -41.5 -28.5t-24.5 -45.5t-3 -59
t25 -72t57 -82t96 -90t138 -96zM576 1379h-116l-148 242h104l102 -173l102 173h104z" />
    <glyph glyph-name="scaron" unicode="&#x161;" horiz-adv-x="864" 
d="M678 456q56 -38 88.5 -88.5t38.5 -101.5t-15 -101t-65.5 -88.5t-121 -62.5t-173.5 -24q-69 0 -134 19.5t-108.5 47.5t-77 56t-49.5 47l-16 20l160 171q1 -7 3 -19t10.5 -47t20.5 -66.5t33.5 -70.5t48 -67t66.5 -47t87 -19q48 0 77 26.5t33 64t-18 81t-67 75.5
q-47 33 -154.5 110.5t-144.5 103.5q-53 37 -84 89t-37.5 105.5t12.5 107t58.5 95t107.5 67.5t154 26q73 0 141 -17t113 -41t80 -48t51 -41l17 -17l-130 -173q-2 7 -5.5 18t-16.5 43.5t-28 62.5t-40 66t-52 62t-64 44t-77 18q-69 0 -103 -48.5t-17 -113.5t81 -109
q36 -24 158 -107.5t159 -108.5zM487 1053h-116l-148 241h104l102 -173l102 173h104z" />
    <glyph glyph-name="Ydieresis" unicode="&#x178;" horiz-adv-x="1054" 
d="M659 107q0 -55 27 -75q10 -8 6.5 -18.5t-16.5 -10.5h-304q-13 0 -16.5 10.5t6.5 18.5q27 20 27 72v588q-243 382 -288.5 449t-99.5 119q-11 10 -9 23t13 13h333q16 0 21 -11t1 -22q-8 -24 41 -108.5t257 -411.5q52 60 87 146.5t47 163t10 137t-18 79.5q-7 8 -4 17.5
t14 9.5h244q18 0 18 -17q0 -72 -135.5 -261.5t-261.5 -325.5v-585zM640 1370q-38 0 -62.5 25.5t-24.5 65.5q0 39 24.5 65t62.5 26t64 -26.5t26 -64.5q0 -40 -25.5 -65.5t-64.5 -25.5zM405 1370q-38 0 -62.5 25.5t-24.5 65.5q0 39 24.5 65t62.5 26t64 -26.5t26 -64.5
q0 -40 -25.5 -65.5t-64.5 -25.5z" />
    <glyph glyph-name="Zcaron" unicode="&#x17d;" horiz-adv-x="1073" 
d="M1028 1298q16 0 24 -14t0 -27l-675 -1205h522q67 0 97 53q8 13 24 9.5t16 -17.5v-57q0 -15 -11 -26t-26 -11h-948q-23 0 -34 20.5t2 39.5l682 1186h-480q-67 0 -97 -52q-8 -13 -24 -9.5t-16 17.5v56q0 15 10.5 26t25.5 11h908zM592 1368h-116l-148 241h104l102 -173
l102 173h103z" />
    <glyph glyph-name="zcaron" unicode="&#x17e;" horiz-adv-x="946" 
d="M893 936q16 0 24 -14t0 -27l-530 -846h356q68 0 98 53q7 13 23 9t16 -18v-56q0 -15 -10.5 -26t-25.5 -11h-783q-23 0 -34 20t2 40l537 827h-335q-67 0 -97 -52q-8 -13 -24 -9.5t-16 17.5v56q0 15 11 26t26 11h762zM530 1045h-117l-147 242h104l101 -173l102 173h104z" />
    <glyph glyph-name="endash" unicode="&#x2013;" horiz-adv-x="985" 
d="M923 409h-862v180h862v-180z" />
    <glyph glyph-name="emdash" unicode="&#x2014;" horiz-adv-x="1165" 
d="M1098 409h-1032v216h1032v-216z" />
    <glyph glyph-name="quoteleft" unicode="&#x2018;" horiz-adv-x="393" 
d="M203 1272q53 0 88 -33t35 -87q0 -52 -35.5 -90t-87.5 -38q-60 0 -97.5 39t-37.5 110q0 125 104 221l19 -13q-9 -12 -16 -30t-8.5 -36t7.5 -30.5t29 -12.5z" />
    <glyph glyph-name="quoteright" unicode="&#x2019;" horiz-adv-x="387" 
d="M184 1394q60 0 98 -39t38 -109q0 -125 -105 -222l-19 13q9 12 16 30.5t8.5 36.5t-7.5 30.5t-29 12.5q-53 0 -88 33t-35 87q0 52 35.5 89.5t87.5 37.5z" />
    <glyph glyph-name="quotesinglbase" unicode="&#x201a;" horiz-adv-x="391" 
d="M188 247q60 0 98 -39t38 -109q0 -125 -105 -222l-19 13q9 12 16 30.5t8.5 36.5t-7.5 30.5t-29 12.5q-53 0 -87.5 33t-34.5 87q0 52 35 89.5t87 37.5z" />
    <glyph glyph-name="quotedblleft" unicode="&#x201c;" horiz-adv-x="692" 
d="M503 1272q53 0 88 -33t35 -87q0 -52 -35.5 -90t-87.5 -38q-60 0 -97.5 39t-37.5 110q0 125 104 221l19 -13q-9 -12 -16 -30t-8.5 -36t7.5 -30.5t29 -12.5zM203 1272q53 0 88 -33t35 -87q0 -52 -35.5 -90t-87.5 -38q-60 0 -97.5 39t-37.5 110q0 125 104 221l19 -13
q-9 -12 -16 -30t-8.5 -36t7.5 -30.5t29 -12.5z" />
    <glyph glyph-name="quotedblright" unicode="&#x201d;" horiz-adv-x="686" 
d="M184 1394q60 0 98 -39t38 -109q0 -125 -105 -222l-19 13q9 12 16 30.5t8.5 36.5t-7.5 30.5t-29 12.5q-53 0 -88 33t-35 87q0 52 35.5 89.5t87.5 37.5zM484 1394q60 0 98 -39t38 -109q0 -125 -105 -222l-19 13q9 12 16 30.5t8.5 36.5t-7.5 30.5t-29 12.5q-53 0 -88 33
t-35 87q0 52 35.5 89.5t87.5 37.5z" />
    <glyph glyph-name="quotedblbase" unicode="&#x201e;" horiz-adv-x="690" 
d="M188 247q60 0 98 -39t38 -109q0 -125 -105 -222l-19 13q9 12 16 30.5t8.5 36.5t-7.5 30.5t-29 12.5q-53 0 -87.5 33t-34.5 87q0 52 35 89.5t87 37.5zM488 247q60 0 98 -39t38 -109q0 -125 -105 -222l-19 13q9 12 16 30.5t8.5 36.5t-7.5 30.5t-29 12.5q-53 0 -87.5 33
t-34.5 87q0 52 35 89.5t87 37.5z" />
    <glyph glyph-name="dagger" unicode="&#x2020;" horiz-adv-x="931" 
d="M557 1100h314v-186h-314v-1119h-186v1119h-312v186h312v356h186v-356z" />
    <glyph glyph-name="bullet" unicode="&#x2022;" horiz-adv-x="544" 
d="M269 824q87 0 145 -60t58 -147q0 -91 -57.5 -149t-145.5 -58q-87 0 -142 57.5t-55 149.5q0 88 55.5 147.5t141.5 59.5z" />
    <glyph glyph-name="guilsinglleft" unicode="&#x2039;" horiz-adv-x="657" 
d="M592 894l-289 -344l289 -345h-232l-290 339q-4 4 -4 6t4 6l294 338h228z" />
    <glyph glyph-name="guilsinglright" unicode="&#x203a;" horiz-adv-x="657" 
d="M587 555q5 -5 5 -6t-5 -6l-294 -338h-227l288 344l-288 345h231z" />
    <glyph glyph-name="Euro" unicode="&#x20ac;" horiz-adv-x="1282" 
d="M989 143q40 0 70.5 7.5t50.5 17t27 10.5q21 0 29 -22t-7 -38q-58 -58 -151 -93t-189 -35q-223 0 -391.5 153t-207.5 389h-148v103h138q-1 8 -1 25q0 33 5 85h-142v104h160q55 237 204 363t373 126q33 0 70 -4.5t92 -22t100.5 -46.5t85 -84t54.5 -128l-200 -60
q-3 29 -8 58.5t-19 76t-33 81t-52.5 60t-75.5 25.5q-96 0 -175 -134t-79 -311h395v-104h-401q-2 -56 0 -110h401v-103h-388q13 -96 55 -172.5t100 -122.5t124 -70t134 -24z" />
    </font>
</defs>
</svg>
